<svg width="194" height="13" viewBox="0 0 194 13" fill="none" xmlns="http://www.w3.org/2000/svg">
<path d="M6.76598 10L5.85598 7.322H2.18998L1.27998 10H0.174977L3.34698 0.926H4.73798L7.90998 10H6.76598ZM4.04898 1.94H3.98398L2.44998 6.36H5.58298L4.04898 1.94ZM10.4141 10C10.0501 10 9.77277 9.90033 9.5821 9.701C9.4001 9.493 9.3091 9.233 9.3091 8.921V0.38H10.3491V9.09H11.3371V10H10.4141ZM12.8511 10V3.292H13.8911V4.527H13.9561C14.0774 4.20633 14.2941 3.92033 14.6061 3.669C14.9181 3.41767 15.3471 3.292 15.8931 3.292H16.2961V4.332H15.6851C15.1218 4.332 14.6798 4.44033 14.3591 4.657C14.0471 4.865 13.8911 5.12933 13.8911 5.45V10H12.8511ZM20.0831 10.156C19.6237 10.156 19.2077 10.0737 18.8351 9.909C18.4711 9.74433 18.1547 9.51033 17.8861 9.207C17.6261 8.895 17.4224 8.52667 17.2751 8.102C17.1364 7.66867 17.0671 7.18333 17.0671 6.646C17.0671 6.11733 17.1364 5.63633 17.2751 5.203C17.4224 4.76967 17.6261 4.40133 17.8861 4.098C18.1547 3.786 18.4711 3.54767 18.8351 3.383C19.2077 3.21833 19.6237 3.136 20.0831 3.136C20.5337 3.136 20.9367 3.21833 21.2921 3.383C21.6474 3.54767 21.9507 3.77733 22.2021 4.072C22.4534 4.358 22.6441 4.70033 22.7741 5.099C22.9127 5.49767 22.9821 5.93533 22.9821 6.412V6.906H18.1591V7.218C18.1591 7.504 18.2024 7.77267 18.2891 8.024C18.3844 8.26667 18.5144 8.479 18.6791 8.661C18.8524 8.843 19.0604 8.986 19.3031 9.09C19.5544 9.194 19.8361 9.246 20.1481 9.246C20.5727 9.246 20.9411 9.14633 21.2531 8.947C21.5737 8.74767 21.8207 8.46167 21.9941 8.089L22.7351 8.622C22.5184 9.08133 22.1804 9.454 21.7211 9.74C21.2617 10.0173 20.7157 10.156 20.0831 10.156ZM20.0831 4.007C19.7971 4.007 19.5371 4.059 19.3031 4.163C19.0691 4.25833 18.8654 4.397 18.6921 4.579C18.5274 4.761 18.3974 4.97767 18.3021 5.229C18.2067 5.47167 18.1591 5.74033 18.1591 6.035V6.126H21.8641V5.983C21.8641 5.385 21.6994 4.90833 21.3701 4.553C21.0494 4.189 20.6204 4.007 20.0831 4.007ZM29.5708 10C29.1808 10 28.8992 9.896 28.7258 9.688C28.5612 9.48 28.4572 9.22 28.4138 8.908H28.3488C28.2015 9.324 27.9588 9.636 27.6208 9.844C27.2828 10.052 26.8798 10.156 26.4118 10.156C25.7012 10.156 25.1465 9.974 24.7478 9.61C24.3578 9.246 24.1628 8.752 24.1628 8.128C24.1628 7.49533 24.3925 7.01 24.8518 6.672C25.3198 6.334 26.0435 6.165 27.0228 6.165H28.3488V5.502C28.3488 5.02533 28.2188 4.66133 27.9588 4.41C27.6988 4.15867 27.3002 4.033 26.7628 4.033C26.3555 4.033 26.0132 4.124 25.7358 4.306C25.4672 4.488 25.2418 4.73067 25.0598 5.034L24.4358 4.449C24.6178 4.085 24.9082 3.77733 25.3068 3.526C25.7055 3.266 26.2082 3.136 26.8148 3.136C27.6295 3.136 28.2622 3.33533 28.7128 3.734C29.1635 4.13267 29.3888 4.68733 29.3888 5.398V9.09H30.1558V10H29.5708ZM26.5808 9.272C26.8408 9.272 27.0792 9.24167 27.2958 9.181C27.5125 9.12033 27.6988 9.03367 27.8548 8.921C28.0108 8.80833 28.1322 8.67833 28.2188 8.531C28.3055 8.38367 28.3488 8.22333 28.3488 8.05V6.945H26.9708C26.3728 6.945 25.9352 7.03167 25.6578 7.205C25.3892 7.37833 25.2548 7.62967 25.2548 7.959V8.232C25.2548 8.56133 25.3718 8.817 25.6058 8.999C25.8485 9.181 26.1735 9.272 26.5808 9.272ZM35.9302 8.908H35.8782C35.4708 9.74 34.8165 10.156 33.9152 10.156C33.4992 10.156 33.1222 10.0737 32.7842 9.909C32.4462 9.74433 32.1558 9.51033 31.9132 9.207C31.6792 8.90367 31.4972 8.53533 31.3672 8.102C31.2458 7.66867 31.1852 7.18333 31.1852 6.646C31.1852 6.10867 31.2458 5.62333 31.3672 5.19C31.4972 4.75667 31.6792 4.38833 31.9132 4.085C32.1558 3.78167 32.4462 3.54767 32.7842 3.383C33.1222 3.21833 33.4992 3.136 33.9152 3.136C34.3832 3.136 34.7818 3.24 35.1112 3.448C35.4492 3.64733 35.7048 3.95933 35.8782 4.384H35.9302V0.38H36.9702V10H35.9302V8.908ZM34.2012 9.22C34.4352 9.22 34.6562 9.18967 34.8642 9.129C35.0808 9.06833 35.2672 8.98167 35.4232 8.869C35.5792 8.74767 35.7005 8.60467 35.7872 8.44C35.8825 8.26667 35.9302 8.07167 35.9302 7.855V5.359C35.9302 5.177 35.8825 5.008 35.7872 4.852C35.7005 4.68733 35.5792 4.54867 35.4232 4.436C35.2672 4.32333 35.0808 4.23667 34.8642 4.176C34.6562 4.10667 34.4352 4.072 34.2012 4.072C33.6118 4.072 33.1482 4.25833 32.8102 4.631C32.4722 4.995 32.3032 5.476 32.3032 6.074V7.218C32.3032 7.816 32.4722 8.30133 32.8102 8.674C33.1482 9.038 33.6118 9.22 34.2012 9.22ZM43.3152 3.292H44.3422L41.3392 11.56C41.2612 11.7593 41.1832 11.924 41.1052 12.054C41.0272 12.1927 40.9318 12.301 40.8192 12.379C40.7065 12.457 40.5635 12.5133 40.3902 12.548C40.2255 12.5827 40.0218 12.6 39.7792 12.6H39.2462V11.69H40.2992L40.8062 10.26L38.2972 3.292H39.3372L40.9492 7.855L41.2612 8.947H41.3262L41.6902 7.855L43.3152 3.292ZM48.7407 0.38H49.7807V4.384H49.8327C49.9974 4.00267 50.2271 3.69933 50.5217 3.474C50.8251 3.24867 51.2281 3.136 51.7307 3.136C52.4241 3.136 52.9701 3.36133 53.3687 3.812C53.7761 4.254 53.9797 4.88233 53.9797 5.697V10H52.9397V5.879C52.9397 4.67433 52.4327 4.072 51.4187 4.072C51.2107 4.072 51.0071 4.098 50.8077 4.15C50.6171 4.202 50.4437 4.28 50.2877 4.384C50.1317 4.488 50.0061 4.62233 49.9107 4.787C49.8241 4.943 49.7807 5.12933 49.7807 5.346V10H48.7407V0.38ZM61.0044 10C60.6144 10 60.3327 9.896 60.1594 9.688C59.9947 9.48 59.8907 9.22 59.8474 8.908H59.7824C59.6351 9.324 59.3924 9.636 59.0544 9.844C58.7164 10.052 58.3134 10.156 57.8454 10.156C57.1347 10.156 56.5801 9.974 56.1814 9.61C55.7914 9.246 55.5964 8.752 55.5964 8.128C55.5964 7.49533 55.8261 7.01 56.2854 6.672C56.7534 6.334 57.4771 6.165 58.4564 6.165H59.7824V5.502C59.7824 5.02533 59.6524 4.66133 59.3924 4.41C59.1324 4.15867 58.7337 4.033 58.1964 4.033C57.7891 4.033 57.4467 4.124 57.1694 4.306C56.9007 4.488 56.6754 4.73067 56.4934 5.034L55.8694 4.449C56.0514 4.085 56.3417 3.77733 56.7404 3.526C57.1391 3.266 57.6417 3.136 58.2484 3.136C59.0631 3.136 59.6957 3.33533 60.1464 3.734C60.5971 4.13267 60.8224 4.68733 60.8224 5.398V9.09H61.5894V10H61.0044ZM58.0144 9.272C58.2744 9.272 58.5127 9.24167 58.7294 9.181C58.9461 9.12033 59.1324 9.03367 59.2884 8.921C59.4444 8.80833 59.5657 8.67833 59.6524 8.531C59.7391 8.38367 59.7824 8.22333 59.7824 8.05V6.945H58.4044C57.8064 6.945 57.3687 7.03167 57.0914 7.205C56.8227 7.37833 56.6884 7.62967 56.6884 7.959V8.232C56.6884 8.56133 56.8054 8.817 57.0394 8.999C57.2821 9.181 57.6071 9.272 58.0144 9.272ZM64.4542 10L62.1012 3.292H63.1412L64.3112 6.62L65.0392 8.908H65.1042L65.8322 6.62L67.0282 3.292H68.0292L65.6632 10H64.4542ZM71.7911 10.156C71.3317 10.156 70.9157 10.0737 70.5431 9.909C70.1791 9.74433 69.8627 9.51033 69.5941 9.207C69.3341 8.895 69.1304 8.52667 68.9831 8.102C68.8444 7.66867 68.7751 7.18333 68.7751 6.646C68.7751 6.11733 68.8444 5.63633 68.9831 5.203C69.1304 4.76967 69.3341 4.40133 69.5941 4.098C69.8627 3.786 70.1791 3.54767 70.5431 3.383C70.9157 3.21833 71.3317 3.136 71.7911 3.136C72.2417 3.136 72.6447 3.21833 73.0001 3.383C73.3554 3.54767 73.6587 3.77733 73.9101 4.072C74.1614 4.358 74.3521 4.70033 74.4821 5.099C74.6207 5.49767 74.6901 5.93533 74.6901 6.412V6.906H69.8671V7.218C69.8671 7.504 69.9104 7.77267 69.9971 8.024C70.0924 8.26667 70.2224 8.479 70.3871 8.661C70.5604 8.843 70.7684 8.986 71.0111 9.09C71.2624 9.194 71.5441 9.246 71.8561 9.246C72.2807 9.246 72.6491 9.14633 72.9611 8.947C73.2817 8.74767 73.5287 8.46167 73.7021 8.089L74.4431 8.622C74.2264 9.08133 73.8884 9.454 73.4291 9.74C72.9697 10.0173 72.4237 10.156 71.7911 10.156ZM71.7911 4.007C71.5051 4.007 71.2451 4.059 71.0111 4.163C70.7771 4.25833 70.5734 4.397 70.4001 4.579C70.2354 4.761 70.1054 4.97767 70.0101 5.229C69.9147 5.47167 69.8671 5.74033 69.8671 6.035V6.126H73.5721V5.983C73.5721 5.385 73.4074 4.90833 73.0781 4.553C72.7574 4.189 72.3284 4.007 71.7911 4.007ZM84.3511 10C83.9611 10 83.6794 9.896 83.5061 9.688C83.3414 9.48 83.2374 9.22 83.1941 8.908H83.1291C82.9818 9.324 82.7391 9.636 82.4011 9.844C82.0631 10.052 81.6601 10.156 81.1921 10.156C80.4814 10.156 79.9268 9.974 79.5281 9.61C79.1381 9.246 78.9431 8.752 78.9431 8.128C78.9431 7.49533 79.1728 7.01 79.6321 6.672C80.1001 6.334 80.8238 6.165 81.8031 6.165H83.1291V5.502C83.1291 5.02533 82.9991 4.66133 82.7391 4.41C82.4791 4.15867 82.0804 4.033 81.5431 4.033C81.1358 4.033 80.7934 4.124 80.5161 4.306C80.2474 4.488 80.0221 4.73067 79.8401 5.034L79.2161 4.449C79.3981 4.085 79.6884 3.77733 80.0871 3.526C80.4858 3.266 80.9884 3.136 81.5951 3.136C82.4098 3.136 83.0424 3.33533 83.4931 3.734C83.9438 4.13267 84.1691 4.68733 84.1691 5.398V9.09H84.9361V10H84.3511ZM81.3611 9.272C81.6211 9.272 81.8594 9.24167 82.0761 9.181C82.2928 9.12033 82.4791 9.03367 82.6351 8.921C82.7911 8.80833 82.9124 8.67833 82.9991 8.531C83.0858 8.38367 83.1291 8.22333 83.1291 8.05V6.945H81.7511C81.1531 6.945 80.7154 7.03167 80.4381 7.205C80.1694 7.37833 80.0351 7.62967 80.0351 7.959V8.232C80.0351 8.56133 80.1521 8.817 80.3861 8.999C80.6288 9.181 80.9538 9.272 81.3611 9.272ZM86.4204 10V3.292H87.4604V4.384H87.5124C87.6771 4.00267 87.9068 3.69933 88.2014 3.474C88.5048 3.24867 88.9078 3.136 89.4104 3.136C90.1038 3.136 90.6498 3.36133 91.0484 3.812C91.4558 4.254 91.6594 4.88233 91.6594 5.697V10H90.6194V5.879C90.6194 4.67433 90.1124 4.072 89.0984 4.072C88.8904 4.072 88.6868 4.098 88.4874 4.15C88.2968 4.202 88.1234 4.28 87.9674 4.384C87.8114 4.488 87.6858 4.62233 87.5904 4.787C87.5038 4.943 87.4604 5.12933 87.4604 5.346V10H86.4204ZM101.756 10C101.366 10 101.085 9.896 100.911 9.688C100.747 9.48 100.643 9.22 100.599 8.908H100.534C100.387 9.324 100.144 9.636 99.8064 9.844C99.4684 10.052 99.0654 10.156 98.5974 10.156C97.8867 10.156 97.332 9.974 96.9334 9.61C96.5434 9.246 96.3484 8.752 96.3484 8.128C96.3484 7.49533 96.578 7.01 97.0374 6.672C97.5054 6.334 98.229 6.165 99.2084 6.165H100.534V5.502C100.534 5.02533 100.404 4.66133 100.144 4.41C99.8844 4.15867 99.4857 4.033 98.9484 4.033C98.541 4.033 98.1987 4.124 97.9214 4.306C97.6527 4.488 97.4274 4.73067 97.2454 5.034L96.6214 4.449C96.8034 4.085 97.0937 3.77733 97.4924 3.526C97.891 3.266 98.3937 3.136 99.0004 3.136C99.815 3.136 100.448 3.33533 100.898 3.734C101.349 4.13267 101.574 4.68733 101.574 5.398V9.09H102.341V10H101.756ZM98.7664 9.272C99.0264 9.272 99.2647 9.24167 99.4814 9.181C99.698 9.12033 99.8844 9.03367 100.04 8.921C100.196 8.80833 100.318 8.67833 100.404 8.531C100.491 8.38367 100.534 8.22333 100.534 8.05V6.945H99.1564C98.5584 6.945 98.1207 7.03167 97.8434 7.205C97.5747 7.37833 97.4404 7.62967 97.4404 7.959V8.232C97.4404 8.56133 97.5574 8.817 97.7914 8.999C98.034 9.181 98.359 9.272 98.7664 9.272ZM106.322 10.156C105.854 10.156 105.433 10.0737 105.061 9.909C104.688 9.74433 104.372 9.51033 104.112 9.207C103.86 8.90367 103.665 8.53533 103.527 8.102C103.397 7.66867 103.332 7.18333 103.332 6.646C103.332 6.10867 103.397 5.62333 103.527 5.19C103.665 4.75667 103.86 4.38833 104.112 4.085C104.372 3.78167 104.688 3.54767 105.061 3.383C105.433 3.21833 105.854 3.136 106.322 3.136C106.989 3.136 107.522 3.28333 107.921 3.578C108.328 3.864 108.631 4.241 108.831 4.709L107.96 5.151C107.838 4.80433 107.639 4.53567 107.362 4.345C107.084 4.15433 106.738 4.059 106.322 4.059C106.01 4.059 105.737 4.111 105.503 4.215C105.269 4.31033 105.074 4.449 104.918 4.631C104.762 4.80433 104.645 5.01667 104.567 5.268C104.489 5.51067 104.45 5.77933 104.45 6.074V7.218C104.45 7.80733 104.606 8.29267 104.918 8.674C105.238 9.04667 105.706 9.233 106.322 9.233C107.162 9.233 107.769 8.843 108.142 8.063L108.896 8.57C108.679 9.05533 108.354 9.441 107.921 9.727C107.496 10.013 106.963 10.156 106.322 10.156ZM112.784 10.156C112.316 10.156 111.895 10.0737 111.523 9.909C111.15 9.74433 110.834 9.51033 110.574 9.207C110.322 8.90367 110.127 8.53533 109.989 8.102C109.859 7.66867 109.794 7.18333 109.794 6.646C109.794 6.10867 109.859 5.62333 109.989 5.19C110.127 4.75667 110.322 4.38833 110.574 4.085C110.834 3.78167 111.15 3.54767 111.523 3.383C111.895 3.21833 112.316 3.136 112.784 3.136C113.451 3.136 113.984 3.28333 114.383 3.578C114.79 3.864 115.093 4.241 115.293 4.709L114.422 5.151C114.3 4.80433 114.101 4.53567 113.824 4.345C113.546 4.15433 113.2 4.059 112.784 4.059C112.472 4.059 112.199 4.111 111.965 4.215C111.731 4.31033 111.536 4.449 111.38 4.631C111.224 4.80433 111.107 5.01667 111.029 5.268C110.951 5.51067 110.912 5.77933 110.912 6.074V7.218C110.912 7.80733 111.068 8.29267 111.38 8.674C111.7 9.04667 112.168 9.233 112.784 9.233C113.624 9.233 114.231 8.843 114.604 8.063L115.358 8.57C115.141 9.05533 114.816 9.441 114.383 9.727C113.958 10.013 113.425 10.156 112.784 10.156ZM119.285 10.156C118.834 10.156 118.422 10.0737 118.05 9.909C117.677 9.74433 117.356 9.51033 117.088 9.207C116.828 8.895 116.624 8.52667 116.477 8.102C116.329 7.66867 116.256 7.18333 116.256 6.646C116.256 6.11733 116.329 5.63633 116.477 5.203C116.624 4.76967 116.828 4.40133 117.088 4.098C117.356 3.786 117.677 3.54767 118.05 3.383C118.422 3.21833 118.834 3.136 119.285 3.136C119.735 3.136 120.143 3.21833 120.507 3.383C120.879 3.54767 121.2 3.786 121.469 4.098C121.737 4.40133 121.945 4.76967 122.093 5.203C122.24 5.63633 122.314 6.11733 122.314 6.646C122.314 7.18333 122.24 7.66867 122.093 8.102C121.945 8.52667 121.737 8.895 121.469 9.207C121.2 9.51033 120.879 9.74433 120.507 9.909C120.143 10.0737 119.735 10.156 119.285 10.156ZM119.285 9.233C119.848 9.233 120.307 9.05967 120.663 8.713C121.018 8.36633 121.196 7.83767 121.196 7.127V6.165C121.196 5.45433 121.018 4.92567 120.663 4.579C120.307 4.23233 119.848 4.059 119.285 4.059C118.721 4.059 118.262 4.23233 117.907 4.579C117.551 4.92567 117.374 5.45433 117.374 6.165V7.127C117.374 7.83767 117.551 8.36633 117.907 8.713C118.262 9.05967 118.721 9.233 119.285 9.233ZM128.158 8.908H128.106C128.037 9.064 127.95 9.22 127.846 9.376C127.751 9.52333 127.629 9.65767 127.482 9.779C127.335 9.89167 127.157 9.98267 126.949 10.052C126.741 10.1213 126.498 10.156 126.221 10.156C125.528 10.156 124.977 9.935 124.57 9.493C124.163 9.04233 123.959 8.40967 123.959 7.595V3.292H124.999V7.413C124.999 8.61767 125.51 9.22 126.533 9.22C126.741 9.22 126.94 9.194 127.131 9.142C127.33 9.09 127.504 9.012 127.651 8.908C127.807 8.804 127.928 8.674 128.015 8.518C128.11 8.35333 128.158 8.15833 128.158 7.933V3.292H129.198V10H128.158V8.908ZM131.413 10V3.292H132.453V4.384H132.505C132.669 4.00267 132.899 3.69933 133.194 3.474C133.497 3.24867 133.9 3.136 134.403 3.136C135.096 3.136 135.642 3.36133 136.041 3.812C136.448 4.254 136.652 4.88233 136.652 5.697V10H135.612V5.879C135.612 4.67433 135.105 4.072 134.091 4.072C133.883 4.072 133.679 4.098 133.48 4.15C133.289 4.202 133.116 4.28 132.96 4.384C132.804 4.488 132.678 4.62233 132.583 4.787C132.496 4.943 132.453 5.12933 132.453 5.346V10H131.413ZM140.283 10C139.919 10 139.642 9.90033 139.451 9.701C139.269 9.493 139.178 9.22433 139.178 8.895V4.202H138.073V3.292H138.697C138.923 3.292 139.074 3.24867 139.152 3.162C139.239 3.06667 139.282 2.90633 139.282 2.681V1.433H140.218V3.292H141.687V4.202H140.218V9.09H141.583V10H140.283ZM144.581 7.296V5.164C145.292 5.12933 145.846 4.956 146.245 4.644C146.652 4.332 146.856 3.903 146.856 3.357V3.175C146.856 2.733 146.717 2.382 146.44 2.122C146.163 1.85333 145.79 1.719 145.322 1.719C144.819 1.719 144.416 1.862 144.113 2.148C143.818 2.434 143.619 2.798 143.515 3.24L142.553 2.876C142.631 2.59867 142.744 2.33433 142.891 2.083C143.047 1.823 143.238 1.59767 143.463 1.407C143.697 1.20767 143.97 1.05167 144.282 0.939C144.594 0.826333 144.954 0.77 145.361 0.77C146.167 0.77 146.804 0.990999 147.272 1.433C147.74 1.875 147.974 2.473 147.974 3.227C147.974 3.643 147.9 4.007 147.753 4.319C147.614 4.62233 147.432 4.88233 147.207 5.099C146.982 5.31567 146.726 5.489 146.44 5.619C146.154 5.749 145.868 5.84 145.582 5.892V7.296H144.581ZM145.088 10.156C144.811 10.156 144.607 10.0867 144.477 9.948C144.356 9.80933 144.295 9.62733 144.295 9.402V9.233C144.295 9.00767 144.356 8.82567 144.477 8.687C144.607 8.54833 144.811 8.479 145.088 8.479C145.365 8.479 145.565 8.54833 145.686 8.687C145.816 8.82567 145.881 9.00767 145.881 9.233V9.402C145.881 9.62733 145.816 9.80933 145.686 9.948C145.565 10.0867 145.365 10.156 145.088 10.156Z" fill="#3D3D3D"/>
<path d="M155.408 10.156C154.628 10.156 153.965 10.0173 153.419 9.74C152.882 9.46267 152.418 9.09867 152.028 8.648L153.185 7.53C153.497 7.894 153.844 8.17133 154.225 8.362C154.615 8.55267 155.044 8.648 155.512 8.648C156.041 8.648 156.44 8.53533 156.708 8.31C156.977 8.076 157.111 7.764 157.111 7.374C157.111 7.07067 157.025 6.82367 156.851 6.633C156.678 6.44233 156.353 6.30367 155.876 6.217L155.018 6.087C153.207 5.801 152.301 4.92133 152.301 3.448C152.301 3.04067 152.375 2.67233 152.522 2.343C152.678 2.01367 152.899 1.732 153.185 1.498C153.471 1.264 153.814 1.08633 154.212 0.964999C154.62 0.834999 155.079 0.77 155.59 0.77C156.275 0.77 156.873 0.882666 157.384 1.108C157.896 1.33333 158.333 1.667 158.697 2.109L157.527 3.214C157.302 2.93667 157.029 2.71133 156.708 2.538C156.388 2.36467 155.985 2.278 155.499 2.278C155.005 2.278 154.633 2.37333 154.381 2.564C154.139 2.746 154.017 3.006 154.017 3.344C154.017 3.69067 154.117 3.94633 154.316 4.111C154.516 4.27567 154.836 4.397 155.278 4.475L156.123 4.631C157.042 4.79567 157.718 5.09033 158.151 5.515C158.593 5.931 158.814 6.516 158.814 7.27C158.814 7.70333 158.736 8.09767 158.58 8.453C158.433 8.79967 158.212 9.103 157.917 9.363C157.631 9.61433 157.276 9.80933 156.851 9.948C156.435 10.0867 155.954 10.156 155.408 10.156ZM161.263 2.226C160.916 2.226 160.665 2.148 160.509 1.992C160.361 1.836 160.288 1.63667 160.288 1.394V1.134C160.288 0.891333 160.361 0.691999 160.509 0.535999C160.665 0.379999 160.916 0.301999 161.263 0.301999C161.601 0.301999 161.848 0.379999 162.004 0.535999C162.16 0.691999 162.238 0.891333 162.238 1.134V1.394C162.238 1.63667 162.16 1.836 162.004 1.992C161.848 2.148 161.601 2.226 161.263 2.226ZM160.431 3.214H162.095V10H160.431V3.214ZM170.147 10.572C170.147 10.9273 170.082 11.2393 169.952 11.508C169.83 11.7853 169.627 12.015 169.341 12.197C169.055 12.379 168.686 12.5177 168.236 12.613C167.785 12.7083 167.235 12.756 166.585 12.756C166.013 12.756 165.527 12.717 165.129 12.639C164.73 12.5697 164.401 12.4657 164.141 12.327C163.889 12.197 163.707 12.0323 163.595 11.833C163.482 11.6337 163.426 11.4083 163.426 11.157C163.426 10.7757 163.53 10.4767 163.738 10.26C163.954 10.052 164.253 9.91767 164.635 9.857V9.714C164.357 9.64467 164.141 9.51033 163.985 9.311C163.837 9.103 163.764 8.86033 163.764 8.583C163.764 8.40967 163.798 8.258 163.868 8.128C163.937 7.98933 164.028 7.87233 164.141 7.777C164.262 7.68167 164.396 7.60367 164.544 7.543C164.691 7.47367 164.847 7.42167 165.012 7.387V7.335C164.596 7.14433 164.284 6.88 164.076 6.542C163.876 6.204 163.777 5.80967 163.777 5.359C163.777 4.66567 164.015 4.111 164.492 3.695C164.968 3.27033 165.666 3.058 166.585 3.058C166.793 3.058 166.996 3.071 167.196 3.097C167.404 3.123 167.594 3.16633 167.768 3.227V3.006C167.768 2.34733 168.088 2.018 168.73 2.018H169.783V3.292H168.34V3.474C168.695 3.67333 168.959 3.93333 169.133 4.254C169.306 4.57467 169.393 4.943 169.393 5.359C169.393 6.04367 169.154 6.594 168.678 7.01C168.21 7.426 167.512 7.634 166.585 7.634C166.186 7.634 165.839 7.595 165.545 7.517C165.415 7.57767 165.302 7.66 165.207 7.764C165.111 7.85933 165.064 7.98067 165.064 8.128C165.064 8.466 165.358 8.635 165.948 8.635H167.768C168.6 8.635 169.202 8.80833 169.575 9.155C169.956 9.493 170.147 9.96533 170.147 10.572ZM168.587 10.767C168.587 10.5503 168.5 10.3813 168.327 10.26C168.153 10.1387 167.854 10.078 167.43 10.078H165.116C164.882 10.2513 164.765 10.4853 164.765 10.78C164.765 11.04 164.873 11.2437 165.09 11.391C165.306 11.5383 165.675 11.612 166.195 11.612H167.027C167.573 11.612 167.967 11.5427 168.21 11.404C168.461 11.2653 168.587 11.053 168.587 10.767ZM166.585 6.503C167.399 6.503 167.807 6.15633 167.807 5.463V5.242C167.807 4.54867 167.399 4.202 166.585 4.202C165.77 4.202 165.363 4.54867 165.363 5.242V5.463C165.363 6.15633 165.77 6.503 166.585 6.503ZM171.108 10V3.214H172.772V4.345H172.837C172.975 3.981 173.192 3.67767 173.487 3.435C173.79 3.18367 174.206 3.058 174.735 3.058C175.437 3.058 175.974 3.28767 176.347 3.747C176.719 4.20633 176.906 4.86067 176.906 5.71V10H175.242V5.879C175.242 5.39367 175.155 5.02967 174.982 4.787C174.808 4.54433 174.522 4.423 174.124 4.423C173.95 4.423 173.781 4.449 173.617 4.501C173.461 4.54433 173.318 4.61367 173.188 4.709C173.066 4.79567 172.967 4.90833 172.889 5.047C172.811 5.177 172.772 5.333 172.772 5.515V10H171.108ZM181.549 10V8.622H182.745V2.304H181.549V0.926H185.67V2.304H184.461V8.622H185.67V10H181.549ZM187.319 10V3.214H188.983V4.345H189.048C189.187 3.981 189.404 3.67767 189.698 3.435C190.002 3.18367 190.418 3.058 190.946 3.058C191.648 3.058 192.186 3.28767 192.558 3.747C192.931 4.20633 193.117 4.86067 193.117 5.71V10H191.453V5.879C191.453 5.39367 191.367 5.02967 191.193 4.787C191.02 4.54433 190.734 4.423 190.335 4.423C190.162 4.423 189.993 4.449 189.828 4.501C189.672 4.54433 189.529 4.61367 189.399 4.709C189.278 4.79567 189.178 4.90833 189.1 5.047C189.022 5.177 188.983 5.333 188.983 5.515V10H187.319Z" fill="#2F6CE5"/>
</svg>
