<svg width="315" height="12" viewBox="0 0 315 12" fill="none" xmlns="http://www.w3.org/2000/svg">
<path opacity="0.6" d="M0.72347 1.322H3.88047C4.51847 1.322 5.01714 1.50167 5.37647 1.861C5.74314 2.22033 5.92647 2.70067 5.92647 3.302C5.92647 3.588 5.88614 3.83 5.80547 4.028C5.7248 4.226 5.62214 4.391 5.49747 4.523C5.3728 4.64767 5.23714 4.743 5.09047 4.809C4.9438 4.86767 4.80814 4.908 4.68347 4.93V4.996C4.8228 5.00333 4.9768 5.04 5.14547 5.106C5.32147 5.172 5.48647 5.27833 5.64047 5.425C5.79447 5.56433 5.9228 5.74767 6.02547 5.975C6.13547 6.195 6.19047 6.46267 6.19047 6.778C6.19047 7.09333 6.13914 7.38667 6.03647 7.658C5.94114 7.92933 5.80547 8.164 5.62947 8.362C5.45347 8.56 5.24447 8.71767 5.00247 8.835C4.76047 8.945 4.49647 9 4.21047 9H0.72347V1.322ZM1.64747 8.186H3.92447C4.32047 8.186 4.63214 8.087 4.85947 7.889C5.0868 7.68367 5.20047 7.38667 5.20047 6.998V6.624C5.20047 6.23533 5.0868 5.942 4.85947 5.744C4.63214 5.53867 4.32047 5.436 3.92447 5.436H1.64747V8.186ZM1.64747 4.644H3.77047C4.13714 4.644 4.42314 4.55233 4.62847 4.369C4.8338 4.18567 4.93647 3.92167 4.93647 3.577V3.203C4.93647 2.85833 4.8338 2.59433 4.62847 2.411C4.42314 2.22767 4.13714 2.136 3.77047 2.136H1.64747V4.644ZM11.1246 3.324H11.9936L9.45257 10.32C9.38657 10.4887 9.32057 10.628 9.25457 10.738C9.18857 10.8553 9.10791 10.947 9.01257 11.013C8.91724 11.079 8.79624 11.1267 8.64957 11.156C8.51024 11.1853 8.33791 11.2 8.13257 11.2H7.68157V10.43H8.57257L9.00157 9.22L6.87857 3.324H7.75857L9.12257 7.185L9.38657 8.109H9.44157L9.74957 7.185L11.1246 3.324ZM17.2444 9.132C16.7164 9.132 16.2728 9.033 15.9134 8.835C15.5614 8.62967 15.2571 8.35833 15.0004 8.021L15.6274 7.515C15.8474 7.79367 16.0931 8.01 16.3644 8.164C16.6358 8.31067 16.9511 8.384 17.3104 8.384C17.6844 8.384 17.9741 8.30333 18.1794 8.142C18.3921 7.98067 18.4984 7.75333 18.4984 7.46C18.4984 7.24 18.4251 7.053 18.2784 6.899C18.1391 6.73767 17.8824 6.62767 17.5084 6.569L17.0574 6.503C16.7934 6.46633 16.5514 6.41133 16.3314 6.338C16.1114 6.25733 15.9171 6.15467 15.7484 6.03C15.5871 5.898 15.4588 5.73667 15.3634 5.546C15.2754 5.35533 15.2314 5.128 15.2314 4.864C15.2314 4.58533 15.2828 4.34333 15.3854 4.138C15.4881 3.92533 15.6274 3.74933 15.8034 3.61C15.9868 3.47067 16.2031 3.368 16.4524 3.302C16.7018 3.22867 16.9694 3.192 17.2554 3.192C17.7174 3.192 18.1024 3.27267 18.4104 3.434C18.7258 3.59533 19.0008 3.819 19.2354 4.105L18.6524 4.633C18.5278 4.457 18.3444 4.29933 18.1024 4.16C17.8604 4.01333 17.5561 3.94 17.1894 3.94C16.8228 3.94 16.5441 4.02067 16.3534 4.182C16.1701 4.336 16.0784 4.54867 16.0784 4.82C16.0784 5.09867 16.1701 5.30033 16.3534 5.425C16.5441 5.54967 16.8154 5.64133 17.1674 5.7L17.6074 5.766C18.2381 5.86133 18.6854 6.04467 18.9494 6.316C19.2134 6.58 19.3454 6.92833 19.3454 7.361C19.3454 7.911 19.1584 8.34367 18.7844 8.659C18.4104 8.97433 17.8971 9.132 17.2444 9.132ZM21.2518 1.993C21.0611 1.993 20.9218 1.949 20.8338 1.861C20.7531 1.76567 20.7128 1.64467 20.7128 1.498V1.355C20.7128 1.20833 20.7531 1.091 20.8338 1.003C20.9218 0.907666 21.0611 0.86 21.2518 0.86C21.4425 0.86 21.5781 0.907666 21.6588 1.003C21.7468 1.091 21.7908 1.20833 21.7908 1.355V1.498C21.7908 1.64467 21.7468 1.76567 21.6588 1.861C21.5781 1.949 21.4425 1.993 21.2518 1.993ZM20.8118 3.324H21.6918V9H20.8118V3.324ZM28.2588 9.627C28.2588 10.2137 28.0278 10.6427 27.5658 10.914C27.1111 11.1927 26.4255 11.332 25.5088 11.332C24.6215 11.332 23.9835 11.211 23.5948 10.969C23.2061 10.727 23.0118 10.3823 23.0118 9.935C23.0118 9.627 23.0925 9.385 23.2538 9.209C23.4151 9.04033 23.6351 8.91567 23.9138 8.835V8.714C23.5765 8.55267 23.4078 8.28867 23.4078 7.922C23.4078 7.636 23.4995 7.41967 23.6828 7.273C23.8661 7.119 24.1008 7.00533 24.3868 6.932V6.888C24.0495 6.72667 23.7855 6.49567 23.5948 6.195C23.4115 5.89433 23.3198 5.546 23.3198 5.15C23.3198 4.864 23.3711 4.6 23.4738 4.358C23.5765 4.116 23.7195 3.91067 23.9028 3.742C24.0935 3.566 24.3171 3.43033 24.5738 3.335C24.8378 3.23967 25.1311 3.192 25.4538 3.192C25.8571 3.192 26.2165 3.26533 26.5318 3.412V3.313C26.5318 3.093 26.5831 2.91333 26.6858 2.774C26.7885 2.62733 26.9571 2.554 27.1918 2.554H28.0388V3.324H26.9608V3.687C27.1661 3.863 27.3238 4.07567 27.4338 4.325C27.5511 4.567 27.6098 4.842 27.6098 5.15C27.6098 5.436 27.5585 5.7 27.4558 5.942C27.3531 6.184 27.2065 6.393 27.0158 6.569C26.8325 6.73767 26.6088 6.86967 26.3448 6.965C26.0808 7.06033 25.7875 7.108 25.4648 7.108C25.2815 7.108 25.0981 7.08967 24.9148 7.053C24.7241 7.10433 24.5518 7.18133 24.3978 7.284C24.2438 7.37933 24.1668 7.515 24.1668 7.691C24.1668 7.85967 24.2475 7.97333 24.4088 8.032C24.5701 8.09067 24.7791 8.12 25.0358 8.12H26.2458C26.9498 8.12 27.4595 8.25567 27.7748 8.527C28.0975 8.791 28.2588 9.15767 28.2588 9.627ZM27.4338 9.693C27.4338 9.46567 27.3458 9.28233 27.1698 9.143C27.0011 9.011 26.6968 8.945 26.2568 8.945H24.3648C24.0128 9.10633 23.8368 9.363 23.8368 9.715C23.8368 9.96433 23.9285 10.177 24.1118 10.353C24.3025 10.529 24.6215 10.617 25.0688 10.617H25.8828C26.3741 10.617 26.7555 10.54 27.0268 10.386C27.2981 10.232 27.4338 10.001 27.4338 9.693ZM25.4648 6.404C25.8388 6.404 26.1358 6.316 26.3558 6.14C26.5758 5.95667 26.6858 5.678 26.6858 5.304V4.996C26.6858 4.622 26.5758 4.347 26.3558 4.171C26.1358 3.98767 25.8388 3.896 25.4648 3.896C25.0908 3.896 24.7938 3.98767 24.5738 4.171C24.3538 4.347 24.2438 4.622 24.2438 4.996V5.304C24.2438 5.678 24.3538 5.95667 24.5738 6.14C24.7938 6.316 25.0908 6.404 25.4648 6.404ZM29.1973 9V3.324H30.0773V4.248H30.1213C30.2606 3.92533 30.455 3.66867 30.7043 3.478C30.961 3.28733 31.302 3.192 31.7273 3.192C32.314 3.192 32.776 3.38267 33.1133 3.764C33.458 4.138 33.6303 4.66967 33.6303 5.359V9H32.7503V5.513C32.7503 4.49367 32.3213 3.984 31.4633 3.984C31.2873 3.984 31.115 4.006 30.9463 4.05C30.785 4.094 30.6383 4.16 30.5063 4.248C30.3743 4.336 30.268 4.44967 30.1873 4.589C30.114 4.721 30.0773 4.87867 30.0773 5.062V9H29.1973ZM35.8013 1.993C35.6106 1.993 35.4713 1.949 35.3833 1.861C35.3026 1.76567 35.2623 1.64467 35.2623 1.498V1.355C35.2623 1.20833 35.3026 1.091 35.3833 1.003C35.4713 0.907666 35.6106 0.86 35.8013 0.86C35.9919 0.86 36.1276 0.907666 36.2083 1.003C36.2963 1.091 36.3403 1.20833 36.3403 1.355V1.498C36.3403 1.64467 36.2963 1.76567 36.2083 1.861C36.1276 1.949 35.9919 1.993 35.8013 1.993ZM35.3613 3.324H36.2413V9H35.3613V3.324ZM38.0233 9V3.324H38.9033V4.248H38.9473C39.0866 3.92533 39.2809 3.66867 39.5303 3.478C39.7869 3.28733 40.1279 3.192 40.5533 3.192C41.1399 3.192 41.6019 3.38267 41.9393 3.764C42.2839 4.138 42.4563 4.66967 42.4563 5.359V9H41.5763V5.513C41.5763 4.49367 41.1473 3.984 40.2893 3.984C40.1133 3.984 39.9409 4.006 39.7723 4.05C39.6109 4.094 39.4643 4.16 39.3323 4.248C39.2003 4.336 39.0939 4.44967 39.0133 4.589C38.9399 4.721 38.9033 4.87867 38.9033 5.062V9H38.0233ZM48.9722 9.627C48.9722 10.2137 48.7412 10.6427 48.2792 10.914C47.8246 11.1927 47.1389 11.332 46.2222 11.332C45.3349 11.332 44.6969 11.211 44.3082 10.969C43.9196 10.727 43.7252 10.3823 43.7252 9.935C43.7252 9.627 43.8059 9.385 43.9672 9.209C44.1286 9.04033 44.3486 8.91567 44.6272 8.835V8.714C44.2899 8.55267 44.1212 8.28867 44.1212 7.922C44.1212 7.636 44.2129 7.41967 44.3962 7.273C44.5796 7.119 44.8142 7.00533 45.1002 6.932V6.888C44.7629 6.72667 44.4989 6.49567 44.3082 6.195C44.1249 5.89433 44.0332 5.546 44.0332 5.15C44.0332 4.864 44.0846 4.6 44.1872 4.358C44.2899 4.116 44.4329 3.91067 44.6162 3.742C44.8069 3.566 45.0306 3.43033 45.2872 3.335C45.5512 3.23967 45.8446 3.192 46.1672 3.192C46.5706 3.192 46.9299 3.26533 47.2452 3.412V3.313C47.2452 3.093 47.2966 2.91333 47.3992 2.774C47.5019 2.62733 47.6706 2.554 47.9052 2.554H48.7522V3.324H47.6742V3.687C47.8796 3.863 48.0372 4.07567 48.1472 4.325C48.2646 4.567 48.3232 4.842 48.3232 5.15C48.3232 5.436 48.2719 5.7 48.1692 5.942C48.0666 6.184 47.9199 6.393 47.7292 6.569C47.5459 6.73767 47.3222 6.86967 47.0582 6.965C46.7942 7.06033 46.5009 7.108 46.1782 7.108C45.9949 7.108 45.8116 7.08967 45.6282 7.053C45.4376 7.10433 45.2652 7.18133 45.1112 7.284C44.9572 7.37933 44.8802 7.515 44.8802 7.691C44.8802 7.85967 44.9609 7.97333 45.1222 8.032C45.2836 8.09067 45.4926 8.12 45.7492 8.12H46.9592C47.6632 8.12 48.1729 8.25567 48.4882 8.527C48.8109 8.791 48.9722 9.15767 48.9722 9.627ZM48.1472 9.693C48.1472 9.46567 48.0592 9.28233 47.8832 9.143C47.7146 9.011 47.4102 8.945 46.9702 8.945H45.0782C44.7262 9.10633 44.5502 9.363 44.5502 9.715C44.5502 9.96433 44.6419 10.177 44.8252 10.353C45.0159 10.529 45.3349 10.617 45.7822 10.617H46.5962C47.0876 10.617 47.4689 10.54 47.7402 10.386C48.0116 10.232 48.1472 10.001 48.1472 9.693ZM46.1782 6.404C46.5522 6.404 46.8492 6.316 47.0692 6.14C47.2892 5.95667 47.3992 5.678 47.3992 5.304V4.996C47.3992 4.622 47.2892 4.347 47.0692 4.171C46.8492 3.98767 46.5522 3.896 46.1782 3.896C45.8042 3.896 45.5072 3.98767 45.2872 4.171C45.0672 4.347 44.9572 4.622 44.9572 4.996V5.304C44.9572 5.678 45.0672 5.95667 45.2872 6.14C45.5072 6.316 45.8042 6.404 46.1782 6.404ZM55.9204 8.076H55.8764C55.8177 8.208 55.7444 8.34 55.6564 8.472C55.5757 8.59667 55.473 8.71033 55.3484 8.813C55.2237 8.90833 55.0734 8.98533 54.8974 9.044C54.7214 9.10267 54.516 9.132 54.2814 9.132C53.6947 9.132 53.229 8.945 52.8844 8.571C52.5397 8.18967 52.3674 7.65433 52.3674 6.965V3.324H53.2474V6.811C53.2474 7.83033 53.68 8.34 54.5454 8.34C54.7214 8.34 54.89 8.318 55.0514 8.274C55.22 8.23 55.3667 8.164 55.4914 8.076C55.6234 7.988 55.726 7.878 55.7994 7.746C55.88 7.60667 55.9204 7.44167 55.9204 7.251V3.324H56.8004V9H55.9204V8.076ZM58.5863 3.324H59.4663V4.248H59.5103C59.657 3.88867 59.8696 3.62467 60.1483 3.456C60.4343 3.28 60.7753 3.192 61.1713 3.192C61.5233 3.192 61.8423 3.26167 62.1283 3.401C62.4143 3.54033 62.6563 3.73833 62.8543 3.995C63.0596 4.25167 63.2136 4.56333 63.3163 4.93C63.4263 5.29667 63.4813 5.70733 63.4813 6.162C63.4813 6.61667 63.4263 7.02733 63.3163 7.394C63.2136 7.76067 63.0596 8.07233 62.8543 8.329C62.6563 8.58567 62.4143 8.78367 62.1283 8.923C61.8423 9.06233 61.5233 9.132 61.1713 9.132C60.4013 9.132 59.8476 8.78 59.5103 8.076H59.4663V11.2H58.5863V3.324ZM60.9293 8.34C61.428 8.34 61.8203 8.186 62.1063 7.878C62.3923 7.56267 62.5353 7.152 62.5353 6.646V5.678C62.5353 5.172 62.3923 4.765 62.1063 4.457C61.8203 4.14167 61.428 3.984 60.9293 3.984C60.7313 3.984 60.5406 4.01333 60.3573 4.072C60.1813 4.12333 60.0273 4.19667 59.8953 4.292C59.7633 4.38733 59.657 4.50467 59.5763 4.644C59.503 4.776 59.4663 4.919 59.4663 5.073V7.185C59.4663 7.36833 59.503 7.53333 59.5763 7.68C59.657 7.81933 59.7633 7.94033 59.8953 8.043C60.0273 8.13833 60.1813 8.21167 60.3573 8.263C60.5406 8.31433 60.7313 8.34 60.9293 8.34ZM65.2253 7.713C65.46 7.713 65.6287 7.77533 65.7313 7.9C65.8413 8.01733 65.8963 8.17133 65.8963 8.362V8.516C65.8963 8.81667 65.8083 9.14667 65.6323 9.506C65.4563 9.87267 65.2107 10.1917 64.8953 10.463H64.1583C64.3783 10.2283 64.5543 10.0047 64.6863 9.792C64.8257 9.58667 64.9247 9.35567 64.9833 9.099C64.8367 9.06233 64.7267 8.99267 64.6533 8.89C64.5873 8.78733 64.5543 8.66267 64.5543 8.516V8.362C64.5543 8.17133 64.6057 8.01733 64.7083 7.9C64.8183 7.77533 64.9907 7.713 65.2253 7.713ZM73.583 3.324H74.452L71.911 10.32C71.845 10.4887 71.779 10.628 71.713 10.738C71.647 10.8553 71.5663 10.947 71.471 11.013C71.3757 11.079 71.2547 11.1267 71.108 11.156C70.9687 11.1853 70.7963 11.2 70.591 11.2H70.14V10.43H71.031L71.46 9.22L69.337 3.324H70.217L71.581 7.185L71.845 8.109H71.9L72.208 7.185L73.583 3.324ZM77.5776 9.132C77.1962 9.132 76.8479 9.06233 76.5326 8.923C76.2172 8.78367 75.9459 8.58567 75.7186 8.329C75.4986 8.065 75.3262 7.75333 75.2016 7.394C75.0769 7.02733 75.0146 6.61667 75.0146 6.162C75.0146 5.71467 75.0769 5.30767 75.2016 4.941C75.3262 4.57433 75.4986 4.26267 75.7186 4.006C75.9459 3.742 76.2172 3.54033 76.5326 3.401C76.8479 3.26167 77.1962 3.192 77.5776 3.192C77.9589 3.192 78.3036 3.26167 78.6116 3.401C78.9269 3.54033 79.1982 3.742 79.4256 4.006C79.6529 4.26267 79.8289 4.57433 79.9536 4.941C80.0782 5.30767 80.1406 5.71467 80.1406 6.162C80.1406 6.61667 80.0782 7.02733 79.9536 7.394C79.8289 7.75333 79.6529 8.065 79.4256 8.329C79.1982 8.58567 78.9269 8.78367 78.6116 8.923C78.3036 9.06233 77.9589 9.132 77.5776 9.132ZM77.5776 8.351C78.0542 8.351 78.4429 8.20433 78.7436 7.911C79.0442 7.61767 79.1946 7.17033 79.1946 6.569V5.755C79.1946 5.15367 79.0442 4.70633 78.7436 4.413C78.4429 4.11967 78.0542 3.973 77.5776 3.973C77.1009 3.973 76.7122 4.11967 76.4116 4.413C76.1109 4.70633 75.9606 5.15367 75.9606 5.755V6.569C75.9606 7.17033 76.1109 7.61767 76.4116 7.911C76.7122 8.20433 77.1009 8.351 77.5776 8.351ZM84.9978 8.076H84.9538C84.8952 8.208 84.8218 8.34 84.7338 8.472C84.6532 8.59667 84.5505 8.71033 84.4258 8.813C84.3012 8.90833 84.1508 8.98533 83.9748 9.044C83.7988 9.10267 83.5935 9.132 83.3588 9.132C82.7722 9.132 82.3065 8.945 81.9618 8.571C81.6172 8.18967 81.4448 7.65433 81.4448 6.965V3.324H82.3248V6.811C82.3248 7.83033 82.7575 8.34 83.6228 8.34C83.7988 8.34 83.9675 8.318 84.1288 8.274C84.2975 8.23 84.4442 8.164 84.5688 8.076C84.7008 7.988 84.8035 7.878 84.8768 7.746C84.9575 7.60667 84.9978 7.44167 84.9978 7.251V3.324H85.8778V9H84.9978V8.076ZM94.3004 9C93.9704 9 93.7321 8.912 93.5854 8.736C93.4461 8.56 93.3581 8.34 93.3214 8.076H93.2664C93.1417 8.428 92.9364 8.692 92.6504 8.868C92.3644 9.044 92.0234 9.132 91.6274 9.132C91.0261 9.132 90.5567 8.978 90.2194 8.67C89.8894 8.362 89.7244 7.944 89.7244 7.416C89.7244 6.88067 89.9187 6.47 90.3074 6.184C90.7034 5.898 91.3157 5.755 92.1444 5.755H93.2664V5.194C93.2664 4.79067 93.1564 4.48267 92.9364 4.27C92.7164 4.05733 92.3791 3.951 91.9244 3.951C91.5797 3.951 91.2901 4.028 91.0554 4.182C90.8281 4.336 90.6374 4.54133 90.4834 4.798L89.9554 4.303C90.1094 3.995 90.3551 3.73467 90.6924 3.522C91.0297 3.302 91.4551 3.192 91.9684 3.192C92.6577 3.192 93.1931 3.36067 93.5744 3.698C93.9557 4.03533 94.1464 4.50467 94.1464 5.106V8.23H94.7954V9H94.3004ZM91.7704 8.384C91.9904 8.384 92.1921 8.35833 92.3754 8.307C92.5587 8.25567 92.7164 8.18233 92.8484 8.087C92.9804 7.99167 93.0831 7.88167 93.1564 7.757C93.2297 7.63233 93.2664 7.49667 93.2664 7.35V6.415H92.1004C91.5944 6.415 91.2241 6.48833 90.9894 6.635C90.7621 6.78167 90.6484 6.99433 90.6484 7.273V7.504C90.6484 7.78267 90.7474 7.999 90.9454 8.153C91.1507 8.307 91.4257 8.384 91.7704 8.384ZM100.748 9.627C100.748 10.2137 100.517 10.6427 100.055 10.914C99.6007 11.1927 98.915 11.332 97.9984 11.332C97.111 11.332 96.473 11.211 96.0844 10.969C95.6957 10.727 95.5014 10.3823 95.5014 9.935C95.5014 9.627 95.582 9.385 95.7434 9.209C95.9047 9.04033 96.1247 8.91567 96.4034 8.835V8.714C96.066 8.55267 95.8974 8.28867 95.8974 7.922C95.8974 7.636 95.989 7.41967 96.1724 7.273C96.3557 7.119 96.5904 7.00533 96.8764 6.932V6.888C96.539 6.72667 96.275 6.49567 96.0844 6.195C95.901 5.89433 95.8094 5.546 95.8094 5.15C95.8094 4.864 95.8607 4.6 95.9634 4.358C96.066 4.116 96.209 3.91067 96.3924 3.742C96.583 3.566 96.8067 3.43033 97.0634 3.335C97.3274 3.23967 97.6207 3.192 97.9434 3.192C98.3467 3.192 98.706 3.26533 99.0214 3.412V3.313C99.0214 3.093 99.0727 2.91333 99.1754 2.774C99.278 2.62733 99.4467 2.554 99.6814 2.554H100.528V3.324H99.4504V3.687C99.6557 3.863 99.8134 4.07567 99.9234 4.325C100.041 4.567 100.099 4.842 100.099 5.15C100.099 5.436 100.048 5.7 99.9454 5.942C99.8427 6.184 99.696 6.393 99.5054 6.569C99.322 6.73767 99.0984 6.86967 98.8344 6.965C98.5704 7.06033 98.277 7.108 97.9544 7.108C97.771 7.108 97.5877 7.08967 97.4044 7.053C97.2137 7.10433 97.0414 7.18133 96.8874 7.284C96.7334 7.37933 96.6564 7.515 96.6564 7.691C96.6564 7.85967 96.737 7.97333 96.8984 8.032C97.0597 8.09067 97.2687 8.12 97.5254 8.12H98.7354C99.4394 8.12 99.949 8.25567 100.264 8.527C100.587 8.791 100.748 9.15767 100.748 9.627ZM99.9234 9.693C99.9234 9.46567 99.8354 9.28233 99.6594 9.143C99.4907 9.011 99.1864 8.945 98.7464 8.945H96.8544C96.5024 9.10633 96.3264 9.363 96.3264 9.715C96.3264 9.96433 96.418 10.177 96.6014 10.353C96.792 10.529 97.111 10.617 97.5584 10.617H98.3724C98.8637 10.617 99.245 10.54 99.5164 10.386C99.7877 10.232 99.9234 10.001 99.9234 9.693ZM97.9544 6.404C98.3284 6.404 98.6254 6.316 98.8454 6.14C99.0654 5.95667 99.1754 5.678 99.1754 5.304V4.996C99.1754 4.622 99.0654 4.347 98.8454 4.171C98.6254 3.98767 98.3284 3.896 97.9544 3.896C97.5804 3.896 97.2834 3.98767 97.0634 4.171C96.8434 4.347 96.7334 4.622 96.7334 4.996V5.304C96.7334 5.678 96.8434 5.95667 97.0634 6.14C97.2834 6.316 97.5804 6.404 97.9544 6.404ZM101.687 9V3.324H102.567V4.369H102.622C102.725 4.09767 102.908 3.85567 103.172 3.643C103.436 3.43033 103.799 3.324 104.261 3.324H104.602V4.204H104.085C103.608 4.204 103.234 4.29567 102.963 4.479C102.699 4.655 102.567 4.87867 102.567 5.15V9H101.687ZM107.718 9.132C107.33 9.132 106.978 9.06233 106.662 8.923C106.354 8.78367 106.087 8.58567 105.859 8.329C105.639 8.065 105.467 7.75333 105.342 7.394C105.225 7.02733 105.166 6.61667 105.166 6.162C105.166 5.71467 105.225 5.30767 105.342 4.941C105.467 4.57433 105.639 4.26267 105.859 4.006C106.087 3.742 106.354 3.54033 106.662 3.401C106.978 3.26167 107.33 3.192 107.718 3.192C108.1 3.192 108.441 3.26167 108.741 3.401C109.042 3.54033 109.299 3.73467 109.511 3.984C109.724 4.226 109.885 4.51567 109.995 4.853C110.113 5.19033 110.171 5.56067 110.171 5.964V6.382H106.09V6.646C106.09 6.888 106.127 7.11533 106.2 7.328C106.281 7.53333 106.391 7.713 106.53 7.867C106.677 8.021 106.853 8.142 107.058 8.23C107.271 8.318 107.509 8.362 107.773 8.362C108.133 8.362 108.444 8.27767 108.708 8.109C108.98 7.94033 109.189 7.69833 109.335 7.383L109.962 7.834C109.779 8.22267 109.493 8.538 109.104 8.78C108.716 9.01467 108.254 9.132 107.718 9.132ZM107.718 3.929C107.476 3.929 107.256 3.973 107.058 4.061C106.86 4.14167 106.688 4.259 106.541 4.413C106.402 4.567 106.292 4.75033 106.211 4.963C106.131 5.16833 106.09 5.39567 106.09 5.645V5.722H109.225V5.601C109.225 5.095 109.086 4.69167 108.807 4.391C108.536 4.083 108.173 3.929 107.718 3.929ZM113.667 9.132C113.279 9.132 112.927 9.06233 112.611 8.923C112.303 8.78367 112.036 8.58567 111.808 8.329C111.588 8.065 111.416 7.75333 111.291 7.394C111.174 7.02733 111.115 6.61667 111.115 6.162C111.115 5.71467 111.174 5.30767 111.291 4.941C111.416 4.57433 111.588 4.26267 111.808 4.006C112.036 3.742 112.303 3.54033 112.611 3.401C112.927 3.26167 113.279 3.192 113.667 3.192C114.049 3.192 114.39 3.26167 114.69 3.401C114.991 3.54033 115.248 3.73467 115.46 3.984C115.673 4.226 115.834 4.51567 115.944 4.853C116.062 5.19033 116.12 5.56067 116.12 5.964V6.382H112.039V6.646C112.039 6.888 112.076 7.11533 112.149 7.328C112.23 7.53333 112.34 7.713 112.479 7.867C112.626 8.021 112.802 8.142 113.007 8.23C113.22 8.318 113.458 8.362 113.722 8.362C114.082 8.362 114.393 8.27767 114.657 8.109C114.929 7.94033 115.138 7.69833 115.284 7.383L115.911 7.834C115.728 8.22267 115.442 8.538 115.053 8.78C114.665 9.01467 114.203 9.132 113.667 9.132ZM113.667 3.929C113.425 3.929 113.205 3.973 113.007 4.061C112.809 4.14167 112.637 4.259 112.49 4.413C112.351 4.567 112.241 4.75033 112.16 4.963C112.08 5.16833 112.039 5.39567 112.039 5.645V5.722H115.174V5.601C115.174 5.095 115.035 4.69167 114.756 4.391C114.485 4.083 114.122 3.929 113.667 3.929ZM121.248 9C120.94 9 120.705 8.91567 120.544 8.747C120.39 8.571 120.313 8.34367 120.313 8.065V4.094H119.378V3.324H119.906C120.097 3.324 120.225 3.28733 120.291 3.214C120.364 3.13333 120.401 2.99767 120.401 2.807V1.751H121.193V3.324H122.436V4.094H121.193V8.23H122.348V9H121.248ZM125.865 9.132C125.483 9.132 125.135 9.06233 124.82 8.923C124.504 8.78367 124.233 8.58567 124.006 8.329C123.786 8.065 123.613 7.75333 123.489 7.394C123.364 7.02733 123.302 6.61667 123.302 6.162C123.302 5.71467 123.364 5.30767 123.489 4.941C123.613 4.57433 123.786 4.26267 124.006 4.006C124.233 3.742 124.504 3.54033 124.82 3.401C125.135 3.26167 125.483 3.192 125.865 3.192C126.246 3.192 126.591 3.26167 126.899 3.401C127.214 3.54033 127.485 3.742 127.713 4.006C127.94 4.26267 128.116 4.57433 128.241 4.941C128.365 5.30767 128.428 5.71467 128.428 6.162C128.428 6.61667 128.365 7.02733 128.241 7.394C128.116 7.75333 127.94 8.065 127.713 8.329C127.485 8.58567 127.214 8.78367 126.899 8.923C126.591 9.06233 126.246 9.132 125.865 9.132ZM125.865 8.351C126.341 8.351 126.73 8.20433 127.031 7.911C127.331 7.61767 127.482 7.17033 127.482 6.569V5.755C127.482 5.15367 127.331 4.70633 127.031 4.413C126.73 4.11967 126.341 3.973 125.865 3.973C125.388 3.973 124.999 4.11967 124.699 4.413C124.398 4.70633 124.248 5.15367 124.248 5.755V6.569C124.248 7.17033 124.398 7.61767 124.699 7.911C124.999 8.20433 125.388 8.351 125.865 8.351ZM134.443 9.132C134.062 9.132 133.714 9.06233 133.398 8.923C133.083 8.78367 132.812 8.58567 132.584 8.329C132.364 8.065 132.192 7.75333 132.067 7.394C131.943 7.02733 131.88 6.61667 131.88 6.162C131.88 5.71467 131.943 5.30767 132.067 4.941C132.192 4.57433 132.364 4.26267 132.584 4.006C132.812 3.742 133.083 3.54033 133.398 3.401C133.714 3.26167 134.062 3.192 134.443 3.192C134.825 3.192 135.169 3.26167 135.477 3.401C135.793 3.54033 136.064 3.742 136.291 4.006C136.519 4.26267 136.695 4.57433 136.819 4.941C136.944 5.30767 137.006 5.71467 137.006 6.162C137.006 6.61667 136.944 7.02733 136.819 7.394C136.695 7.75333 136.519 8.065 136.291 8.329C136.064 8.58567 135.793 8.78367 135.477 8.923C135.169 9.06233 134.825 9.132 134.443 9.132ZM134.443 8.351C134.92 8.351 135.309 8.20433 135.609 7.911C135.91 7.61767 136.06 7.17033 136.06 6.569V5.755C136.06 5.15367 135.91 4.70633 135.609 4.413C135.309 4.11967 134.92 3.973 134.443 3.973C133.967 3.973 133.578 4.11967 133.277 4.413C132.977 4.70633 132.826 5.15367 132.826 5.755V6.569C132.826 7.17033 132.977 7.61767 133.277 7.911C133.578 8.20433 133.967 8.351 134.443 8.351ZM141.864 8.076H141.82C141.761 8.208 141.688 8.34 141.6 8.472C141.519 8.59667 141.416 8.71033 141.292 8.813C141.167 8.90833 141.017 8.98533 140.841 9.044C140.665 9.10267 140.459 9.132 140.225 9.132C139.638 9.132 139.172 8.945 138.828 8.571C138.483 8.18967 138.311 7.65433 138.311 6.965V3.324H139.191V6.811C139.191 7.83033 139.623 8.34 140.489 8.34C140.665 8.34 140.833 8.318 140.995 8.274C141.163 8.23 141.31 8.164 141.435 8.076C141.567 7.988 141.669 7.878 141.743 7.746C141.823 7.60667 141.864 7.44167 141.864 7.251V3.324H142.744V9H141.864V8.076ZM144.53 9V3.324H145.41V4.369H145.465C145.567 4.09767 145.751 3.85567 146.015 3.643C146.279 3.43033 146.642 3.324 147.104 3.324H147.445V4.204H146.928C146.451 4.204 146.077 4.29567 145.806 4.479C145.542 4.655 145.41 4.87867 145.41 5.15V9H144.53ZM153.665 2.136V9H152.741V2.136H150.299V1.322H156.107V2.136H153.665ZM158.614 9.132C158.225 9.132 157.873 9.06233 157.558 8.923C157.25 8.78367 156.982 8.58567 156.755 8.329C156.535 8.065 156.362 7.75333 156.238 7.394C156.12 7.02733 156.062 6.61667 156.062 6.162C156.062 5.71467 156.12 5.30767 156.238 4.941C156.362 4.57433 156.535 4.26267 156.755 4.006C156.982 3.742 157.25 3.54033 157.558 3.401C157.873 3.26167 158.225 3.192 158.614 3.192C158.995 3.192 159.336 3.26167 159.637 3.401C159.937 3.54033 160.194 3.73467 160.407 3.984C160.619 4.226 160.781 4.51567 160.891 4.853C161.008 5.19033 161.067 5.56067 161.067 5.964V6.382H156.986V6.646C156.986 6.888 157.022 7.11533 157.096 7.328C157.176 7.53333 157.286 7.713 157.426 7.867C157.572 8.021 157.748 8.142 157.954 8.23C158.166 8.318 158.405 8.362 158.669 8.362C159.028 8.362 159.34 8.27767 159.604 8.109C159.875 7.94033 160.084 7.69833 160.231 7.383L160.858 7.834C160.674 8.22267 160.388 8.538 160 8.78C159.611 9.01467 159.149 9.132 158.614 9.132ZM158.614 3.929C158.372 3.929 158.152 3.973 157.954 4.061C157.756 4.14167 157.583 4.259 157.437 4.413C157.297 4.567 157.187 4.75033 157.107 4.963C157.026 5.16833 156.986 5.39567 156.986 5.645V5.722H160.121V5.601C160.121 5.095 159.981 4.69167 159.703 4.391C159.431 4.083 159.068 3.929 158.614 3.929ZM162.429 9V3.324H163.309V4.369H163.364C163.466 4.09767 163.65 3.85567 163.914 3.643C164.178 3.43033 164.541 3.324 165.003 3.324H165.344V4.204H164.827C164.35 4.204 163.976 4.29567 163.705 4.479C163.441 4.655 163.309 4.87867 163.309 5.15V9H162.429ZM166.38 9V3.324H167.26V4.248H167.304C167.37 4.10133 167.443 3.96567 167.524 3.841C167.612 3.709 167.714 3.59533 167.832 3.5C167.956 3.40467 168.099 3.33133 168.261 3.28C168.422 3.22133 168.613 3.192 168.833 3.192C169.207 3.192 169.551 3.28367 169.867 3.467C170.182 3.643 170.417 3.93633 170.571 4.347H170.593C170.695 4.039 170.886 3.77133 171.165 3.544C171.451 3.30933 171.836 3.192 172.32 3.192C172.899 3.192 173.35 3.38267 173.673 3.764C174.003 4.138 174.168 4.66967 174.168 5.359V9H173.288V5.513C173.288 5.007 173.189 4.62567 172.991 4.369C172.793 4.11233 172.477 3.984 172.045 3.984C171.869 3.984 171.7 4.006 171.539 4.05C171.385 4.094 171.245 4.16 171.121 4.248C170.996 4.336 170.897 4.44967 170.824 4.589C170.75 4.721 170.714 4.87867 170.714 5.062V9H169.834V5.513C169.834 5.007 169.735 4.62567 169.537 4.369C169.339 4.11233 169.031 3.984 168.613 3.984C168.437 3.984 168.268 4.006 168.107 4.05C167.945 4.094 167.802 4.16 167.678 4.248C167.553 4.336 167.45 4.44967 167.37 4.589C167.296 4.721 167.26 4.87867 167.26 5.062V9H166.38ZM177.6 9.132C177.072 9.132 176.629 9.033 176.269 8.835C175.917 8.62967 175.613 8.35833 175.356 8.021L175.983 7.515C176.203 7.79367 176.449 8.01 176.72 8.164C176.992 8.31067 177.307 8.384 177.666 8.384C178.04 8.384 178.33 8.30333 178.535 8.142C178.748 7.98067 178.854 7.75333 178.854 7.46C178.854 7.24 178.781 7.053 178.634 6.899C178.495 6.73767 178.238 6.62767 177.864 6.569L177.413 6.503C177.149 6.46633 176.907 6.41133 176.687 6.338C176.467 6.25733 176.273 6.15467 176.104 6.03C175.943 5.898 175.815 5.73667 175.719 5.546C175.631 5.35533 175.587 5.128 175.587 4.864C175.587 4.58533 175.639 4.34333 175.741 4.138C175.844 3.92533 175.983 3.74933 176.159 3.61C176.343 3.47067 176.559 3.368 176.808 3.302C177.058 3.22867 177.325 3.192 177.611 3.192C178.073 3.192 178.458 3.27267 178.766 3.434C179.082 3.59533 179.357 3.819 179.591 4.105L179.008 4.633C178.884 4.457 178.7 4.29933 178.458 4.16C178.216 4.01333 177.912 3.94 177.545 3.94C177.179 3.94 176.9 4.02067 176.709 4.182C176.526 4.336 176.434 4.54867 176.434 4.82C176.434 5.09867 176.526 5.30033 176.709 5.425C176.9 5.54967 177.171 5.64133 177.523 5.7L177.963 5.766C178.594 5.86133 179.041 6.04467 179.305 6.316C179.569 6.58 179.701 6.92833 179.701 7.361C179.701 7.911 179.514 8.34367 179.14 8.659C178.766 8.97433 178.253 9.132 177.6 9.132ZM188.123 8.098C188.043 8.19333 187.94 8.30333 187.815 8.428C187.691 8.54533 187.537 8.65533 187.353 8.758C187.177 8.86067 186.965 8.94867 186.715 9.022C186.473 9.09533 186.198 9.132 185.89 9.132C185.509 9.132 185.172 9.077 184.878 8.967C184.585 8.857 184.339 8.70667 184.141 8.516C183.943 8.318 183.793 8.09067 183.69 7.834C183.588 7.57733 183.536 7.30233 183.536 7.009C183.536 6.723 183.58 6.47 183.668 6.25C183.756 6.03 183.874 5.83567 184.02 5.667C184.174 5.491 184.343 5.337 184.526 5.205C184.717 5.073 184.911 4.952 185.109 4.842C184.845 4.56333 184.633 4.281 184.471 3.995C184.317 3.70167 184.24 3.38267 184.24 3.038C184.24 2.78133 184.288 2.53933 184.383 2.312C184.479 2.08467 184.611 1.89033 184.779 1.729C184.955 1.56033 185.164 1.42833 185.406 1.333C185.656 1.23767 185.931 1.19 186.231 1.19C186.503 1.19 186.752 1.23033 186.979 1.311C187.207 1.39167 187.401 1.50533 187.562 1.652C187.724 1.79133 187.848 1.96367 187.936 2.169C188.032 2.37433 188.079 2.598 188.079 2.84C188.079 3.09667 188.032 3.32767 187.936 3.533C187.848 3.731 187.724 3.91433 187.562 4.083C187.401 4.25167 187.214 4.40933 187.001 4.556C186.789 4.69533 186.561 4.831 186.319 4.963L188.046 6.822C188.156 6.54333 188.241 6.24633 188.299 5.931C188.358 5.61567 188.395 5.293 188.409 4.963H189.905V5.711H189.124C189.073 6.03367 189.003 6.338 188.915 6.624C188.827 6.90267 188.721 7.163 188.596 7.405L190.092 9H188.948L188.123 8.098ZM186.187 1.927C185.872 1.927 185.612 2.026 185.406 2.224C185.208 2.422 185.109 2.66767 185.109 2.961V3.093C185.109 3.313 185.175 3.53667 185.307 3.764C185.447 3.984 185.626 4.21867 185.846 4.468C186.022 4.37267 186.191 4.27367 186.352 4.171C186.521 4.061 186.668 3.94367 186.792 3.819C186.924 3.69433 187.031 3.566 187.111 3.434C187.192 3.29467 187.232 3.148 187.232 2.994V2.862C187.232 2.56133 187.126 2.33033 186.913 2.169C186.708 2.00767 186.466 1.927 186.187 1.927ZM185.967 8.362C186.341 8.362 186.664 8.29233 186.935 8.153C187.207 8.00633 187.438 7.812 187.628 7.57L185.571 5.348C185.425 5.42867 185.282 5.513 185.142 5.601C185.01 5.689 184.893 5.79533 184.79 5.92C184.688 6.03733 184.603 6.17667 184.537 6.338C184.479 6.492 184.449 6.67533 184.449 6.888V7.053C184.449 7.45633 184.585 7.77533 184.856 8.01C185.135 8.24467 185.505 8.362 185.967 8.362ZM195.852 9.132C195.456 9.132 195.101 9.06233 194.785 8.923C194.47 8.78367 194.202 8.58567 193.982 8.329C193.77 8.07233 193.605 7.76067 193.487 7.394C193.377 7.02733 193.322 6.61667 193.322 6.162C193.322 5.70733 193.377 5.29667 193.487 4.93C193.605 4.56333 193.77 4.25167 193.982 3.995C194.202 3.73833 194.47 3.54033 194.785 3.401C195.101 3.26167 195.456 3.192 195.852 3.192C196.417 3.192 196.868 3.31667 197.205 3.566C197.55 3.808 197.807 4.127 197.975 4.523L197.238 4.897C197.136 4.60367 196.967 4.37633 196.732 4.215C196.498 4.05367 196.204 3.973 195.852 3.973C195.588 3.973 195.357 4.017 195.159 4.105C194.961 4.18567 194.796 4.303 194.664 4.457C194.532 4.60367 194.433 4.78333 194.367 4.996C194.301 5.20133 194.268 5.42867 194.268 5.678V6.646C194.268 7.14467 194.4 7.55533 194.664 7.878C194.936 8.19333 195.332 8.351 195.852 8.351C196.564 8.351 197.077 8.021 197.392 7.361L198.03 7.79C197.847 8.20067 197.572 8.527 197.205 8.769C196.846 9.011 196.395 9.132 195.852 9.132ZM201.265 9.132C200.884 9.132 200.536 9.06233 200.22 8.923C199.905 8.78367 199.634 8.58567 199.406 8.329C199.186 8.065 199.014 7.75333 198.889 7.394C198.765 7.02733 198.702 6.61667 198.702 6.162C198.702 5.71467 198.765 5.30767 198.889 4.941C199.014 4.57433 199.186 4.26267 199.406 4.006C199.634 3.742 199.905 3.54033 200.22 3.401C200.536 3.26167 200.884 3.192 201.265 3.192C201.647 3.192 201.991 3.26167 202.299 3.401C202.615 3.54033 202.886 3.742 203.113 4.006C203.341 4.26267 203.517 4.57433 203.641 4.941C203.766 5.30767 203.828 5.71467 203.828 6.162C203.828 6.61667 203.766 7.02733 203.641 7.394C203.517 7.75333 203.341 8.065 203.113 8.329C202.886 8.58567 202.615 8.78367 202.299 8.923C201.991 9.06233 201.647 9.132 201.265 9.132ZM201.265 8.351C201.742 8.351 202.131 8.20433 202.431 7.911C202.732 7.61767 202.882 7.17033 202.882 6.569V5.755C202.882 5.15367 202.732 4.70633 202.431 4.413C202.131 4.11967 201.742 3.973 201.265 3.973C200.789 3.973 200.4 4.11967 200.099 4.413C199.799 4.70633 199.648 5.15367 199.648 5.755V6.569C199.648 7.17033 199.799 7.61767 200.099 7.911C200.4 8.20433 200.789 8.351 201.265 8.351ZM205.188 9V3.324H206.068V4.248H206.112C206.251 3.92533 206.445 3.66867 206.695 3.478C206.951 3.28733 207.292 3.192 207.718 3.192C208.304 3.192 208.766 3.38267 209.104 3.764C209.448 4.138 209.621 4.66967 209.621 5.359V9H208.741V5.513C208.741 4.49367 208.312 3.984 207.454 3.984C207.278 3.984 207.105 4.006 206.937 4.05C206.775 4.094 206.629 4.16 206.497 4.248C206.365 4.336 206.258 4.44967 206.178 4.589C206.104 4.721 206.068 4.87867 206.068 5.062V9H205.188ZM214.981 8.076H214.937C214.593 8.78 214.039 9.132 213.276 9.132C212.924 9.132 212.605 9.06233 212.319 8.923C212.033 8.78367 211.788 8.58567 211.582 8.329C211.384 8.07233 211.23 7.76067 211.12 7.394C211.018 7.02733 210.966 6.61667 210.966 6.162C210.966 5.70733 211.018 5.29667 211.12 4.93C211.23 4.56333 211.384 4.25167 211.582 3.995C211.788 3.73833 212.033 3.54033 212.319 3.401C212.605 3.26167 212.924 3.192 213.276 3.192C213.672 3.192 214.01 3.28 214.288 3.456C214.574 3.62467 214.791 3.88867 214.937 4.248H214.981V0.86H215.861V9H214.981V8.076ZM213.518 8.34C213.716 8.34 213.903 8.31433 214.079 8.263C214.263 8.21167 214.42 8.13833 214.552 8.043C214.684 7.94033 214.787 7.81933 214.86 7.68C214.941 7.53333 214.981 7.36833 214.981 7.185V5.073C214.981 4.919 214.941 4.776 214.86 4.644C214.787 4.50467 214.684 4.38733 214.552 4.292C214.42 4.19667 214.263 4.12333 214.079 4.072C213.903 4.01333 213.716 3.984 213.518 3.984C213.02 3.984 212.627 4.14167 212.341 4.457C212.055 4.765 211.912 5.172 211.912 5.678V6.646C211.912 7.152 212.055 7.56267 212.341 7.878C212.627 8.186 213.02 8.34 213.518 8.34ZM218.084 1.993C217.894 1.993 217.754 1.949 217.666 1.861C217.586 1.76567 217.545 1.64467 217.545 1.498V1.355C217.545 1.20833 217.586 1.091 217.666 1.003C217.754 0.907666 217.894 0.86 218.084 0.86C218.275 0.86 218.411 0.907666 218.491 1.003C218.579 1.091 218.623 1.20833 218.623 1.355V1.498C218.623 1.64467 218.579 1.76567 218.491 1.861C218.411 1.949 218.275 1.993 218.084 1.993ZM217.644 3.324H218.524V9H217.644V3.324ZM221.56 9C221.252 9 221.018 8.91567 220.856 8.747C220.702 8.571 220.625 8.34367 220.625 8.065V4.094H219.69V3.324H220.218C220.409 3.324 220.537 3.28733 220.603 3.214C220.677 3.13333 220.713 2.99767 220.713 2.807V1.751H221.505V3.324H222.748V4.094H221.505V8.23H222.66V9H221.56ZM224.515 1.993C224.324 1.993 224.185 1.949 224.097 1.861C224.016 1.76567 223.976 1.64467 223.976 1.498V1.355C223.976 1.20833 224.016 1.091 224.097 1.003C224.185 0.907666 224.324 0.86 224.515 0.86C224.705 0.86 224.841 0.907666 224.922 1.003C225.01 1.091 225.054 1.20833 225.054 1.355V1.498C225.054 1.64467 225.01 1.76567 224.922 1.861C224.841 1.949 224.705 1.993 224.515 1.993ZM224.075 3.324H224.955V9H224.075V3.324ZM228.882 9.132C228.5 9.132 228.152 9.06233 227.837 8.923C227.521 8.78367 227.25 8.58567 227.023 8.329C226.803 8.065 226.63 7.75333 226.506 7.394C226.381 7.02733 226.319 6.61667 226.319 6.162C226.319 5.71467 226.381 5.30767 226.506 4.941C226.63 4.57433 226.803 4.26267 227.023 4.006C227.25 3.742 227.521 3.54033 227.837 3.401C228.152 3.26167 228.5 3.192 228.882 3.192C229.263 3.192 229.608 3.26167 229.916 3.401C230.231 3.54033 230.502 3.742 230.73 4.006C230.957 4.26267 231.133 4.57433 231.258 4.941C231.382 5.30767 231.445 5.71467 231.445 6.162C231.445 6.61667 231.382 7.02733 231.258 7.394C231.133 7.75333 230.957 8.065 230.73 8.329C230.502 8.58567 230.231 8.78367 229.916 8.923C229.608 9.06233 229.263 9.132 228.882 9.132ZM228.882 8.351C229.358 8.351 229.747 8.20433 230.048 7.911C230.348 7.61767 230.499 7.17033 230.499 6.569V5.755C230.499 5.15367 230.348 4.70633 230.048 4.413C229.747 4.11967 229.358 3.973 228.882 3.973C228.405 3.973 228.016 4.11967 227.716 4.413C227.415 4.70633 227.265 5.15367 227.265 5.755V6.569C227.265 7.17033 227.415 7.61767 227.716 7.911C228.016 8.20433 228.405 8.351 228.882 8.351ZM232.804 9V3.324H233.684V4.248H233.728C233.867 3.92533 234.062 3.66867 234.311 3.478C234.568 3.28733 234.909 3.192 235.334 3.192C235.921 3.192 236.383 3.38267 236.72 3.764C237.065 4.138 237.237 4.66967 237.237 5.359V9H236.357V5.513C236.357 4.49367 235.928 3.984 235.07 3.984C234.894 3.984 234.722 4.006 234.553 4.05C234.392 4.094 234.245 4.16 234.113 4.248C233.981 4.336 233.875 4.44967 233.794 4.589C233.721 4.721 233.684 4.87867 233.684 5.062V9H232.804ZM240.673 9.132C240.145 9.132 239.701 9.033 239.342 8.835C238.99 8.62967 238.686 8.35833 238.429 8.021L239.056 7.515C239.276 7.79367 239.522 8.01 239.793 8.164C240.064 8.31067 240.38 8.384 240.739 8.384C241.113 8.384 241.403 8.30333 241.608 8.142C241.821 7.98067 241.927 7.75333 241.927 7.46C241.927 7.24 241.854 7.053 241.707 6.899C241.568 6.73767 241.311 6.62767 240.937 6.569L240.486 6.503C240.222 6.46633 239.98 6.41133 239.76 6.338C239.54 6.25733 239.346 6.15467 239.177 6.03C239.016 5.898 238.887 5.73667 238.792 5.546C238.704 5.35533 238.66 5.128 238.66 4.864C238.66 4.58533 238.711 4.34333 238.814 4.138C238.917 3.92533 239.056 3.74933 239.232 3.61C239.415 3.47067 239.632 3.368 239.881 3.302C240.13 3.22867 240.398 3.192 240.684 3.192C241.146 3.192 241.531 3.27267 241.839 3.434C242.154 3.59533 242.429 3.819 242.664 4.105L242.081 4.633C241.956 4.457 241.773 4.29933 241.531 4.16C241.289 4.01333 240.985 3.94 240.618 3.94C240.251 3.94 239.973 4.02067 239.782 4.182C239.599 4.336 239.507 4.54867 239.507 4.82C239.507 5.09867 239.599 5.30033 239.782 5.425C239.973 5.54967 240.244 5.64133 240.596 5.7L241.036 5.766C241.667 5.86133 242.114 6.04467 242.378 6.316C242.642 6.58 242.774 6.92833 242.774 7.361C242.774 7.911 242.587 8.34367 242.213 8.659C241.839 8.97433 241.326 9.132 240.673 9.132ZM244.748 7.713C244.982 7.713 245.151 7.77533 245.254 7.9C245.364 8.01733 245.419 8.17133 245.419 8.362V8.516C245.419 8.81667 245.331 9.14667 245.155 9.506C244.979 9.87267 244.733 10.1917 244.418 10.463H243.681C243.901 10.2283 244.077 10.0047 244.209 9.792C244.348 9.58667 244.447 9.35567 244.506 9.099C244.359 9.06233 244.249 8.99267 244.176 8.89C244.11 8.78733 244.077 8.66267 244.077 8.516V8.362C244.077 8.17133 244.128 8.01733 244.231 7.9C244.341 7.77533 244.513 7.713 244.748 7.713ZM249.695 9V1.322H252.753C253.443 1.322 253.971 1.52 254.337 1.916C254.711 2.30467 254.898 2.84 254.898 3.522C254.898 4.204 254.711 4.743 254.337 5.139C253.971 5.52767 253.443 5.722 252.753 5.722H250.619V9H249.695ZM250.619 4.908H252.753C253.12 4.908 253.402 4.81267 253.6 4.622C253.806 4.43133 253.908 4.16 253.908 3.808V3.236C253.908 2.884 253.806 2.61267 253.6 2.422C253.402 2.23133 253.12 2.136 252.753 2.136H250.619V4.908ZM256.083 9V3.324H256.963V4.369H257.018C257.12 4.09767 257.304 3.85567 257.568 3.643C257.832 3.43033 258.195 3.324 258.657 3.324H258.998V4.204H258.481C258.004 4.204 257.63 4.29567 257.359 4.479C257.095 4.655 256.963 4.87867 256.963 5.15V9H256.083ZM260.474 1.993C260.283 1.993 260.144 1.949 260.056 1.861C259.975 1.76567 259.935 1.64467 259.935 1.498V1.355C259.935 1.20833 259.975 1.091 260.056 1.003C260.144 0.907666 260.283 0.86 260.474 0.86C260.665 0.86 260.8 0.907666 260.881 1.003C260.969 1.091 261.013 1.20833 261.013 1.355V1.498C261.013 1.64467 260.969 1.76567 260.881 1.861C260.8 1.949 260.665 1.993 260.474 1.993ZM260.034 3.324H260.914V9H260.034V3.324ZM263.95 9L261.959 3.324H262.839L263.829 6.14L264.445 8.076H264.5L265.116 6.14L266.128 3.324H266.975L264.973 9H263.95ZM272.05 9C271.72 9 271.482 8.912 271.335 8.736C271.196 8.56 271.108 8.34 271.071 8.076H271.016C270.892 8.428 270.686 8.692 270.4 8.868C270.114 9.044 269.773 9.132 269.377 9.132C268.776 9.132 268.307 8.978 267.969 8.67C267.639 8.362 267.474 7.944 267.474 7.416C267.474 6.88067 267.669 6.47 268.057 6.184C268.453 5.898 269.066 5.755 269.894 5.755H271.016V5.194C271.016 4.79067 270.906 4.48267 270.686 4.27C270.466 4.05733 270.129 3.951 269.674 3.951C269.33 3.951 269.04 4.028 268.805 4.182C268.578 4.336 268.387 4.54133 268.233 4.798L267.705 4.303C267.859 3.995 268.105 3.73467 268.442 3.522C268.78 3.302 269.205 3.192 269.718 3.192C270.408 3.192 270.943 3.36067 271.324 3.698C271.706 4.03533 271.896 4.50467 271.896 5.106V8.23H272.545V9H272.05ZM269.52 8.384C269.74 8.384 269.942 8.35833 270.125 8.307C270.309 8.25567 270.466 8.18233 270.598 8.087C270.73 7.99167 270.833 7.88167 270.906 7.757C270.98 7.63233 271.016 7.49667 271.016 7.35V6.415H269.85C269.344 6.415 268.974 6.48833 268.739 6.635C268.512 6.78167 268.398 6.99433 268.398 7.273V7.504C268.398 7.78267 268.497 7.999 268.695 8.153C268.901 8.307 269.176 8.384 269.52 8.384ZM275.825 9.132C275.429 9.132 275.074 9.06233 274.758 8.923C274.443 8.78367 274.175 8.58567 273.955 8.329C273.743 8.07233 273.578 7.76067 273.46 7.394C273.35 7.02733 273.295 6.61667 273.295 6.162C273.295 5.70733 273.35 5.29667 273.46 4.93C273.578 4.56333 273.743 4.25167 273.955 3.995C274.175 3.73833 274.443 3.54033 274.758 3.401C275.074 3.26167 275.429 3.192 275.825 3.192C276.39 3.192 276.841 3.31667 277.178 3.566C277.523 3.808 277.78 4.127 277.948 4.523L277.211 4.897C277.109 4.60367 276.94 4.37633 276.705 4.215C276.471 4.05367 276.177 3.973 275.825 3.973C275.561 3.973 275.33 4.017 275.132 4.105C274.934 4.18567 274.769 4.303 274.637 4.457C274.505 4.60367 274.406 4.78333 274.34 4.996C274.274 5.20133 274.241 5.42867 274.241 5.678V6.646C274.241 7.14467 274.373 7.55533 274.637 7.878C274.909 8.19333 275.305 8.351 275.825 8.351C276.537 8.351 277.05 8.021 277.365 7.361L278.003 7.79C277.82 8.20067 277.545 8.527 277.178 8.769C276.819 9.011 276.368 9.132 275.825 9.132ZM282.655 3.324H283.524L280.983 10.32C280.917 10.4887 280.851 10.628 280.785 10.738C280.719 10.8553 280.639 10.947 280.543 11.013C280.448 11.079 280.327 11.1267 280.18 11.156C280.041 11.1853 279.869 11.2 279.663 11.2H279.212V10.43H280.103L280.532 9.22L278.409 3.324H279.289L280.653 7.185L280.917 8.109H280.972L281.28 7.185L282.655 3.324ZM287.07 3.324H287.95V4.248H287.994C288.141 3.88867 288.354 3.62467 288.632 3.456C288.918 3.28 289.259 3.192 289.655 3.192C290.007 3.192 290.326 3.26167 290.612 3.401C290.898 3.54033 291.14 3.73833 291.338 3.995C291.544 4.25167 291.698 4.56333 291.8 4.93C291.91 5.29667 291.965 5.70733 291.965 6.162C291.965 6.61667 291.91 7.02733 291.8 7.394C291.698 7.76067 291.544 8.07233 291.338 8.329C291.14 8.58567 290.898 8.78367 290.612 8.923C290.326 9.06233 290.007 9.132 289.655 9.132C288.885 9.132 288.332 8.78 287.994 8.076H287.95V11.2H287.07V3.324ZM289.413 8.34C289.912 8.34 290.304 8.186 290.59 7.878C290.876 7.56267 291.019 7.152 291.019 6.646V5.678C291.019 5.172 290.876 4.765 290.59 4.457C290.304 4.14167 289.912 3.984 289.413 3.984C289.215 3.984 289.025 4.01333 288.841 4.072C288.665 4.12333 288.511 4.19667 288.379 4.292C288.247 4.38733 288.141 4.50467 288.06 4.644C287.987 4.776 287.95 4.919 287.95 5.073V7.185C287.95 7.36833 287.987 7.53333 288.06 7.68C288.141 7.81933 288.247 7.94033 288.379 8.043C288.511 8.13833 288.665 8.21167 288.841 8.263C289.025 8.31433 289.215 8.34 289.413 8.34ZM295.508 9.132C295.127 9.132 294.778 9.06233 294.463 8.923C294.148 8.78367 293.876 8.58567 293.649 8.329C293.429 8.065 293.257 7.75333 293.132 7.394C293.007 7.02733 292.945 6.61667 292.945 6.162C292.945 5.71467 293.007 5.30767 293.132 4.941C293.257 4.57433 293.429 4.26267 293.649 4.006C293.876 3.742 294.148 3.54033 294.463 3.401C294.778 3.26167 295.127 3.192 295.508 3.192C295.889 3.192 296.234 3.26167 296.542 3.401C296.857 3.54033 297.129 3.742 297.356 4.006C297.583 4.26267 297.759 4.57433 297.884 4.941C298.009 5.30767 298.071 5.71467 298.071 6.162C298.071 6.61667 298.009 7.02733 297.884 7.394C297.759 7.75333 297.583 8.065 297.356 8.329C297.129 8.58567 296.857 8.78367 296.542 8.923C296.234 9.06233 295.889 9.132 295.508 9.132ZM295.508 8.351C295.985 8.351 296.373 8.20433 296.674 7.911C296.975 7.61767 297.125 7.17033 297.125 6.569V5.755C297.125 5.15367 296.975 4.70633 296.674 4.413C296.373 4.11967 295.985 3.973 295.508 3.973C295.031 3.973 294.643 4.11967 294.342 4.413C294.041 4.70633 293.891 5.15367 293.891 5.755V6.569C293.891 7.17033 294.041 7.61767 294.342 7.911C294.643 8.20433 295.031 8.351 295.508 8.351ZM300.365 9C300.057 9 299.823 8.91567 299.661 8.747C299.507 8.571 299.43 8.351 299.43 8.087V0.86H300.31V8.23H301.146V9H300.365ZM302.78 1.993C302.589 1.993 302.45 1.949 302.362 1.861C302.281 1.76567 302.241 1.64467 302.241 1.498V1.355C302.241 1.20833 302.281 1.091 302.362 1.003C302.45 0.907666 302.589 0.86 302.78 0.86C302.97 0.86 303.106 0.907666 303.187 1.003C303.275 1.091 303.319 1.20833 303.319 1.355V1.498C303.319 1.64467 303.275 1.76567 303.187 1.861C303.106 1.949 302.97 1.993 302.78 1.993ZM302.34 3.324H303.22V9H302.34V3.324ZM307.114 9.132C306.718 9.132 306.362 9.06233 306.047 8.923C305.731 8.78367 305.464 8.58567 305.244 8.329C305.031 8.07233 304.866 7.76067 304.749 7.394C304.639 7.02733 304.584 6.61667 304.584 6.162C304.584 5.70733 304.639 5.29667 304.749 4.93C304.866 4.56333 305.031 4.25167 305.244 3.995C305.464 3.73833 305.731 3.54033 306.047 3.401C306.362 3.26167 306.718 3.192 307.114 3.192C307.678 3.192 308.129 3.31667 308.467 3.566C308.811 3.808 309.068 4.127 309.237 4.523L308.5 4.897C308.397 4.60367 308.228 4.37633 307.994 4.215C307.759 4.05367 307.466 3.973 307.114 3.973C306.85 3.973 306.619 4.017 306.421 4.105C306.223 4.18567 306.058 4.303 305.926 4.457C305.794 4.60367 305.695 4.78333 305.629 4.996C305.563 5.20133 305.53 5.42867 305.53 5.678V6.646C305.53 7.14467 305.662 7.55533 305.926 7.878C306.197 8.19333 306.593 8.351 307.114 8.351C307.825 8.351 308.338 8.021 308.654 7.361L309.292 7.79C309.108 8.20067 308.833 8.527 308.467 8.769C308.107 9.011 307.656 9.132 307.114 9.132ZM313.944 3.324H314.813L312.272 10.32C312.206 10.4887 312.14 10.628 312.074 10.738C312.008 10.8553 311.927 10.947 311.832 11.013C311.736 11.079 311.615 11.1267 311.469 11.156C311.329 11.1853 311.157 11.2 310.952 11.2H310.501V10.43H311.392L311.821 9.22L309.698 3.324H310.578L311.942 7.185L312.206 8.109H312.261L312.569 7.185L313.944 3.324Z" fill="black"/>
</svg>
