<svg width="358" height="21" viewBox="0 0 358 21" fill="none" xmlns="http://www.w3.org/2000/svg">
<path d="M9.888 17L5.984 5.832H4.272L0.368 17H1.728L2.848 13.704H7.36L8.48 17H9.888ZM7.024 12.52H3.168L5.056 7.08H5.136L7.024 12.52ZM14.106 17V15.88H12.89V5.16H11.61V15.672C11.61 16.44 12.09 17 12.97 17H14.106ZM18.3873 17V15.88H17.1713V5.16H15.8913V15.672C15.8913 16.44 16.3713 17 17.2513 17H18.3873ZM25.5039 17V12.232H28.6079C30.6079 12.232 31.7279 11 31.7279 9.032C31.7279 7.064 30.6079 5.832 28.6079 5.832H24.1599V17H25.5039ZM25.5039 7.016H28.6079C29.6639 7.016 30.2879 7.592 30.2879 8.616V9.448C30.2879 10.472 29.6639 11.048 28.6079 11.048H25.5039V7.016ZM36.5425 17.192C38.7505 17.192 40.2705 15.496 40.2705 12.872C40.2705 10.248 38.7505 8.552 36.5425 8.552C34.3345 8.552 32.8145 10.248 32.8145 12.872C32.8145 15.496 34.3345 17.192 36.5425 17.192ZM36.5425 16.056C35.1665 16.056 34.1905 15.208 34.1905 13.464V12.28C34.1905 10.536 35.1665 9.688 36.5425 9.688C37.9185 9.688 38.8945 10.536 38.8945 12.28V13.464C38.8945 15.208 37.9185 16.056 36.5425 16.056ZM44.8556 17.192C46.7436 17.192 47.9116 16.216 47.9116 14.616C47.9116 13.368 47.2076 12.568 45.3836 12.296L44.7436 12.2C43.7196 12.04 43.1596 11.72 43.1596 10.92C43.1596 10.136 43.7196 9.64 44.7756 9.64C45.8316 9.64 46.5356 10.136 46.9036 10.648L47.7516 9.88C47.0796 9.048 46.1996 8.552 44.8716 8.552C43.1916 8.552 41.9276 9.352 41.9276 10.984C41.9276 12.52 43.0636 13.144 44.5836 13.368L45.2396 13.464C46.3276 13.624 46.6796 14.12 46.6796 14.76C46.6796 15.608 46.0396 16.104 44.9516 16.104C43.9116 16.104 43.1436 15.64 42.5036 14.84L41.5916 15.576C42.3276 16.552 43.3356 17.192 44.8556 17.192ZM53.4871 17V15.88H51.8071V9.864H53.6151V8.744H51.8071V6.456H50.6551V7.992C50.6551 8.552 50.4791 8.744 49.9351 8.744H49.1671V9.864H50.5271V15.64C50.5271 16.44 51.0071 17 51.8871 17H53.4871ZM58.1525 17.192C60.0405 17.192 61.2085 16.216 61.2085 14.616C61.2085 13.368 60.5045 12.568 58.6805 12.296L58.0405 12.2C57.0165 12.04 56.4565 11.72 56.4565 10.92C56.4565 10.136 57.0165 9.64 58.0725 9.64C59.1285 9.64 59.8325 10.136 60.2005 10.648L61.0485 9.88C60.3765 9.048 59.4965 8.552 58.1685 8.552C56.4885 8.552 55.2245 9.352 55.2245 10.984C55.2245 12.52 56.3605 13.144 57.8805 13.368L58.5365 13.464C59.6245 13.624 59.9765 14.12 59.9765 14.76C59.9765 15.608 59.3365 16.104 58.2485 16.104C57.2085 16.104 56.4405 15.64 55.8005 14.84L54.8885 15.576C55.6245 16.552 56.6325 17.192 58.1525 17.192ZM63.4374 12.008C63.4374 15.128 64.7494 17.848 66.3334 19.192H67.5494C65.8214 17.656 64.6374 14.952 64.6374 12.712V11.336C64.6374 9.096 65.7734 6.44 67.5494 4.84H66.3334C64.7014 6.232 63.4374 8.92 63.4374 12.008ZM70.4288 10.568V11.736H71.7408C73.3088 11.736 74.1408 12.488 74.1408 13.8V13.928C74.1408 15.24 73.3088 15.992 71.7408 15.992C70.3808 15.992 69.7248 15.4 69.1488 14.52L68.1408 15.288C68.8288 16.248 69.8207 17.192 71.7568 17.192C74.0288 17.192 75.5487 15.864 75.5487 13.944C75.5487 12.264 74.3968 11.368 73.1968 11.128V11.064C74.3808 10.76 75.3408 9.896 75.3408 8.456C75.3408 6.648 73.8368 5.64 71.9488 5.64C70.1568 5.64 69.1808 6.568 68.6208 7.464L69.6128 8.232C70.0768 7.384 70.7648 6.84 71.9168 6.84C73.1008 6.84 73.9168 7.432 73.9168 8.6V8.712C73.9168 9.784 73.1488 10.568 71.6448 10.568H70.4288ZM85.5905 15.816H79.7185L82.7265 13.112C84.1505 11.832 85.1745 10.616 85.1745 8.888C85.1745 6.984 83.9265 5.64 81.7505 5.64C79.5905 5.64 78.5985 6.952 78.1665 8.264L79.3665 8.728C79.6705 7.672 80.3105 6.84 81.6865 6.84C83.0625 6.84 83.7505 7.688 83.7505 8.92V9.112C83.7505 10.184 82.9505 11.304 81.9105 12.264L78.2625 15.624V17H85.5905V15.816ZM90.6883 12.008C90.6883 8.92 89.4243 6.232 87.7923 4.84H86.5762C88.3523 6.44 89.4883 9.096 89.4883 11.336V12.712C89.4883 14.952 88.3043 17.656 86.5762 19.192H87.7923C89.3763 17.848 90.6883 15.128 90.6883 12.008Z" fill="black"/>
<path d="M122.888 17L118.984 5.832H117.272L113.368 17H114.728L115.848 13.704H120.36L121.48 17H122.888ZM120.024 12.52H116.168L118.056 7.08H118.136L120.024 12.52ZM125.89 17V11.4C125.89 10.616 126.722 10.024 128.098 10.024H128.85V8.744H128.354C127.01 8.744 126.258 9.48 125.97 10.264H125.89V8.744H124.61V17H125.89ZM133.972 17V15.88H132.292V9.864H134.1V8.744H132.292V6.456H131.14V7.992C131.14 8.552 130.964 8.744 130.42 8.744H129.652V9.864H131.012V15.64C131.012 16.44 131.492 17 132.372 17H133.972ZM136.797 6.808C137.341 6.808 137.581 6.52 137.581 6.088V5.88C137.581 5.448 137.341 5.16 136.797 5.16C136.253 5.16 136.013 5.448 136.013 5.88V6.088C136.013 6.52 136.253 6.808 136.797 6.808ZM136.157 17H137.437V8.744H136.157V17ZM143.229 17.192C144.797 17.192 145.869 16.424 146.397 15.24L145.469 14.616C145.021 15.56 144.269 16.056 143.229 16.056C141.709 16.056 140.925 15.016 140.925 13.576V12.168C140.925 10.728 141.709 9.688 143.229 9.688C144.237 9.688 144.941 10.184 145.245 11.032L146.317 10.488C145.837 9.352 144.861 8.552 143.229 8.552C140.909 8.552 139.549 10.232 139.549 12.872C139.549 15.512 140.909 17.192 143.229 17.192ZM150.7 17V15.88H149.484V5.16H148.204V15.672C148.204 16.44 148.684 17 149.564 17H150.7ZM155.667 17.192C157.219 17.192 158.403 16.424 158.931 15.304L158.019 14.648C157.587 15.56 156.787 16.072 155.747 16.072C154.211 16.072 153.299 15 153.299 13.576V13.192H159.235V12.584C159.235 10.248 157.875 8.552 155.667 8.552C153.427 8.552 151.955 10.248 151.955 12.872C151.955 15.496 153.427 17.192 155.667 17.192ZM155.667 9.624C156.979 9.624 157.859 10.6 157.859 12.056V12.232H153.299V12.12C153.299 10.68 154.275 9.624 155.667 9.624Z" fill="#8A8A8A"/>
<path d="M188.304 17V15.816H182.832V11.944H187.984V10.76H182.832V7.016H188.304V5.832H181.488V17H188.304ZM194 17L196.912 8.744H195.68L194.208 12.84L193.312 15.656H193.232L192.336 12.84L190.896 8.744H189.616L192.512 17H194ZM201.542 17.192C203.094 17.192 204.278 16.424 204.806 15.304L203.894 14.648C203.462 15.56 202.662 16.072 201.622 16.072C200.086 16.072 199.174 15 199.174 13.576V13.192H205.11V12.584C205.11 10.248 203.75 8.552 201.542 8.552C199.302 8.552 197.83 10.248 197.83 12.872C197.83 15.496 199.302 17.192 201.542 17.192ZM201.542 9.624C202.854 9.624 203.734 10.6 203.734 12.056V12.232H199.174V12.12C199.174 10.68 200.15 9.624 201.542 9.624ZM208.499 17V11.272C208.499 10.216 209.491 9.704 210.515 9.704C211.747 9.704 212.387 10.456 212.387 11.928V17H213.667V11.704C213.667 9.704 212.595 8.552 210.899 8.552C209.667 8.552 208.963 9.16 208.563 10.088H208.499V8.744H207.219V17H208.499ZM219.737 17V15.88H218.057V9.864H219.865V8.744H218.057V6.456H216.905V7.992C216.905 8.552 216.729 8.744 216.185 8.744H215.417V9.864H216.777V15.64C216.777 16.44 217.257 17 218.137 17H219.737Z" fill="#8A8A8A"/>
<path d="M247.304 17V15.816H241.832V11.944H246.984V10.76H241.832V7.016H247.304V5.832H240.488V17H247.304ZM254.812 17H256.092V5.16H254.812V10.088H254.748C254.316 9.048 253.468 8.552 252.332 8.552C250.268 8.552 248.972 10.232 248.972 12.872C248.972 15.512 250.268 17.192 252.332 17.192C253.468 17.192 254.252 16.68 254.748 15.656H254.812V17ZM252.684 16.04C251.244 16.04 250.348 15.048 250.348 13.576V12.168C250.348 10.696 251.244 9.704 252.684 9.704C253.852 9.704 254.812 10.376 254.812 11.288V14.36C254.812 15.432 253.852 16.04 252.684 16.04ZM263.901 17H265.181V8.744H263.901V14.456C263.901 15.544 262.909 16.04 261.901 16.04C260.669 16.04 260.013 15.288 260.013 13.816V8.744H258.733V14.04C258.733 16.04 259.821 17.192 261.517 17.192C262.893 17.192 263.517 16.44 263.837 15.656H263.901V17ZM270.979 17.192C272.547 17.192 273.619 16.424 274.147 15.24L273.219 14.616C272.771 15.56 272.019 16.056 270.979 16.056C269.459 16.056 268.675 15.016 268.675 13.576V12.168C268.675 10.728 269.459 9.688 270.979 9.688C271.987 9.688 272.691 10.184 272.995 11.032L274.067 10.488C273.587 9.352 272.611 8.552 270.979 8.552C268.659 8.552 267.299 10.232 267.299 12.872C267.299 15.512 268.659 17.192 270.979 17.192ZM282.674 17V15.88H281.73V11.336C281.73 9.592 280.546 8.552 278.562 8.552C277.074 8.552 276.082 9.288 275.634 10.168L276.402 10.888C276.85 10.136 277.506 9.656 278.498 9.656C279.81 9.656 280.45 10.296 280.45 11.464V12.28H278.818C276.418 12.28 275.298 13.144 275.298 14.696C275.298 16.232 276.322 17.192 278.066 17.192C279.218 17.192 280.098 16.664 280.45 15.656H280.53C280.626 16.424 281.01 17 281.954 17H282.674ZM278.274 16.104C277.282 16.104 276.642 15.64 276.642 14.824V14.488C276.642 13.688 277.298 13.24 278.754 13.24H280.45V14.6C280.45 15.448 279.538 16.104 278.274 16.104ZM287.925 17V15.88H286.245V9.864H288.053V8.744H286.245V6.456H285.093V7.992C285.093 8.552 284.917 8.744 284.373 8.744H283.605V9.864H284.965V15.64C284.965 16.44 285.445 17 286.325 17H287.925ZM290.75 6.808C291.294 6.808 291.534 6.52 291.534 6.088V5.88C291.534 5.448 291.294 5.16 290.75 5.16C290.206 5.16 289.966 5.448 289.966 5.88V6.088C289.966 6.52 290.206 6.808 290.75 6.808ZM290.11 17H291.39V8.744H290.11V17ZM297.23 17.192C299.438 17.192 300.958 15.496 300.958 12.872C300.958 10.248 299.438 8.552 297.23 8.552C295.022 8.552 293.502 10.248 293.502 12.872C293.502 15.496 295.022 17.192 297.23 17.192ZM297.23 16.056C295.854 16.056 294.878 15.208 294.878 13.464V12.28C294.878 10.536 295.854 9.688 297.23 9.688C298.606 9.688 299.582 10.536 299.582 12.28V13.464C299.582 15.208 298.606 16.056 297.23 16.056ZM304.343 17V11.272C304.343 10.216 305.335 9.704 306.359 9.704C307.591 9.704 308.231 10.456 308.231 11.928V17H309.511V11.704C309.511 9.704 308.439 8.552 306.743 8.552C305.511 8.552 304.807 9.16 304.407 10.088H304.343V8.744H303.063V17H304.343Z" fill="#8A8A8A"/>
<path d="M332.568 5.832V7.016H336.408V13.864C336.408 15.288 335.736 15.992 334.584 15.992C333.448 15.992 332.872 15.32 332.664 14.36L331.448 14.648C331.752 16.168 332.824 17.192 334.552 17.192C336.44 17.192 337.752 15.992 337.752 14.104V5.832H332.568ZM343.636 17.192C345.844 17.192 347.364 15.496 347.364 12.872C347.364 10.248 345.844 8.552 343.636 8.552C341.428 8.552 339.908 10.248 339.908 12.872C339.908 15.496 341.428 17.192 343.636 17.192ZM343.636 16.056C342.26 16.056 341.284 15.208 341.284 13.464V12.28C341.284 10.536 342.26 9.688 343.636 9.688C345.012 9.688 345.988 10.536 345.988 12.28V13.464C345.988 15.208 345.012 16.056 343.636 16.056ZM349.469 17H350.749V15.656H350.813C351.309 16.68 352.093 17.192 353.229 17.192C355.293 17.192 356.589 15.512 356.589 12.872C356.589 10.232 355.293 8.552 353.229 8.552C352.093 8.552 351.245 9.048 350.813 10.088H350.749V5.16H349.469V17ZM352.877 16.04C351.709 16.04 350.749 15.432 350.749 14.36V11.288C350.749 10.376 351.709 9.704 352.877 9.704C354.317 9.704 355.213 10.696 355.213 12.168V13.576C355.213 15.048 354.317 16.04 352.877 16.04Z" fill="#8A8A8A"/>
</svg>
