<svg width="1440" height="75" viewBox="0 0 1440 75" fill="none" xmlns="http://www.w3.org/2000/svg">
<g filter="url(#filter0_d_1_784)">
<rect width="1440" height="72" fill="white"/>
</g>
<g clip-path="url(#clip0_1_784)">
<path d="M168.795 39.498C170.716 39.498 172.274 37.9393 172.274 36.0165C172.274 34.0938 170.716 32.535 168.795 32.535C166.874 32.535 165.316 34.0938 165.316 36.0165C165.316 37.9393 166.874 39.498 168.795 39.498Z" fill="#CDDC36"/>
<path d="M156.788 35.1465L162.274 29.6565H158.561C157.541 31.3188 156.933 33.2011 156.788 35.1465Z" fill="#DAE233"/>
<path d="M167.959 24C165.945 24.1273 163.998 24.7732 162.307 25.875V29.658L167.959 24Z" fill="#DAE233"/>
<path d="M180.769 35.1465L175.283 29.6565H178.996C180.031 31.3121 180.64 33.1981 180.769 35.1465Z" fill="#DAE233"/>
<path d="M169.632 24C171.646 24.1274 173.592 24.7732 175.284 25.875V29.658L169.632 24Z" fill="#DAE233"/>
<path d="M162.307 36.786H156.821C156.95 38.7344 157.559 40.6205 158.594 42.276H162.307V36.786Z" fill="#DAE233"/>
<path d="M175.318 36.786H180.804C180.674 38.7344 180.065 40.6204 179.03 42.276H175.318V36.786Z" fill="#DAE233"/>
<path d="M167.959 29.5905L162.413 35.1405H156.788L167.959 23.994V29.5905Z" fill="#46B746"/>
<path d="M169.631 47.9655C171.656 47.8934 173.623 47.2683 175.318 46.158V36.786L169.631 42.477V47.9655Z" fill="#46B746"/>
<path d="M167.926 42.444L162.307 36.8205V46.1925C164.003 47.2733 165.95 47.8961 167.959 48V42.45L167.926 42.444Z" fill="#46B746"/>
<path d="M169.631 29.5905L175.177 35.1405H180.796L169.631 24V29.5905Z" fill="#46B746"/>
<path d="M89.6891 46.6215C89.5055 46.6381 89.3218 46.5905 89.1694 46.4869C89.0169 46.3833 88.905 46.2299 88.8527 46.053L86.3047 39.1245H76.1817L73.7072 46.053C73.6472 46.2251 73.5335 46.3732 73.3829 46.4756C73.2323 46.578 73.0528 46.6291 72.8709 46.6215C72.7246 46.6204 72.581 46.5829 72.4528 46.5125C72.3245 46.4422 72.2157 46.3411 72.1361 46.2183C72.0565 46.0955 72.0086 45.9549 71.9966 45.8091C71.9846 45.6632 72.009 45.5167 72.0675 45.3825L78.6233 27.273C78.7593 26.6742 79.0952 26.1397 79.5756 25.7577C80.056 25.3756 80.6521 25.1689 81.2657 25.1715C81.8783 25.1728 82.4731 25.3772 82.9572 25.7529C83.4413 26.1285 83.7873 26.6541 83.9411 27.2475L90.5359 45.39C90.5707 45.4868 90.5934 45.5876 90.6033 45.69C90.5982 45.9326 90.5007 46.1641 90.3308 46.3372C90.1609 46.5103 89.9313 46.612 89.6891 46.6215ZM76.8457 37.35H85.6423L82.1635 27.609C82.1236 27.3974 82.0128 27.2058 81.8492 27.0659C81.6857 26.9259 81.4793 26.8461 81.2642 26.8395C80.8645 26.8395 80.5648 27.1075 80.3649 27.6435L76.8457 37.35Z" fill="#27A365"/>
<path d="M96.5161 27.213H89.9573C89.8388 27.22 89.7202 27.2027 89.6087 27.1621C89.4972 27.1215 89.3951 27.0586 89.3088 26.9771C89.2225 26.8956 89.1537 26.7974 89.1067 26.6883C89.0596 26.5793 89.0354 26.4618 89.0354 26.343C89.0354 26.2243 89.0596 26.1068 89.1067 25.9978C89.1537 25.8887 89.2225 25.7905 89.3088 25.709C89.3951 25.6275 89.4972 25.5646 89.6087 25.524C89.7202 25.4834 89.8388 25.4661 89.9573 25.4731H104.707C104.938 25.4731 105.159 25.5647 105.322 25.7279C105.485 25.891 105.576 26.1123 105.576 26.343C105.576 26.5738 105.485 26.7951 105.322 26.9582C105.159 27.1214 104.938 27.213 104.707 27.213H98.2562V45.8236C98.2562 45.9378 98.2337 46.0509 98.19 46.1565C98.1464 46.2621 98.0823 46.3579 98.0016 46.4387C97.9209 46.5195 97.8251 46.5836 97.7196 46.6273C97.6141 46.6711 97.5011 46.6935 97.3869 46.6935C97.2727 46.6935 97.1597 46.6711 97.0542 46.6273C96.9488 46.5836 96.8529 46.5195 96.7722 46.4387C96.6915 46.3579 96.6275 46.2621 96.5838 46.1565C96.5401 46.0509 96.5176 45.9378 96.5176 45.8236L96.5161 27.213Z" fill="#27A365"/>
<path d="M123.606 39.498C123.61 40.4726 123.417 41.4379 123.037 42.3354C122.658 43.2329 122.1 44.044 121.398 44.7195C120.644 45.4663 119.744 46.0483 118.754 46.4286C117.763 46.8089 116.705 46.9794 115.646 46.929C114.535 46.9521 113.431 46.7539 112.397 46.346C111.363 45.9381 110.421 45.3286 109.625 44.553C107.998 42.9564 107.03 40.8053 106.915 38.5275C106.781 36.8903 106.781 35.2448 106.915 33.6075C107.031 31.3495 108 29.2199 109.625 27.6495C110.416 26.8653 111.357 26.2479 112.391 25.8339C113.425 25.4199 114.532 25.2176 115.646 25.239C117.251 25.195 118.832 25.6383 120.181 26.5105C121.531 27.3828 122.584 28.6432 123.204 30.126C123.256 30.2631 123.274 30.4105 123.257 30.5559C123.239 30.7013 123.188 30.8405 123.106 30.9618C123.024 31.0831 122.914 31.183 122.786 31.2532C122.657 31.3234 122.514 31.3617 122.368 31.365C122.185 31.3772 122.003 31.3278 121.852 31.2248C121.7 31.1218 121.588 30.971 121.531 30.7965C121.03 29.6566 120.205 28.6898 119.158 28.0169C118.11 27.3441 116.888 26.9951 115.644 27.0135C114.779 27.0005 113.919 27.1595 113.115 27.4813C112.311 27.8032 111.58 28.2815 110.962 28.8885C109.658 30.1135 108.869 31.7887 108.754 33.5745C108.587 35.2438 108.587 36.9257 108.754 38.595C108.871 40.3827 109.645 42.0636 110.927 43.314C111.552 43.9214 112.289 44.3997 113.098 44.7214C113.908 45.0432 114.772 45.2021 115.643 45.189C117.26 45.2597 118.846 44.725 120.091 43.689C120.659 43.2039 121.11 42.5969 121.411 41.9131C121.712 41.2293 121.855 40.4863 121.83 39.7395V37.389H116.813C116.583 37.389 116.362 37.2974 116.199 37.1342C116.035 36.9711 115.944 36.7498 115.944 36.519C115.944 36.2883 116.035 36.067 116.199 35.9038C116.362 35.7407 116.583 35.649 116.813 35.649H121.93C122.149 35.628 122.37 35.6545 122.578 35.7268C122.786 35.7992 122.976 35.9156 123.135 36.0681C123.294 36.2207 123.418 36.4057 123.499 36.6106C123.579 36.8156 123.615 37.0355 123.603 37.2555L123.606 39.498Z" fill="#27A365"/>
<path d="M129.16 45.8911C129.169 46.0268 129.15 46.1628 129.103 46.2904C129.056 46.418 128.983 46.5345 128.889 46.6322C128.794 46.73 128.68 46.8069 128.555 46.858C128.429 46.9091 128.293 46.9333 128.158 46.9291C128.023 46.9277 127.891 46.8997 127.768 46.8466C127.644 46.7936 127.533 46.7165 127.439 46.6199C127.346 46.5233 127.273 46.4092 127.224 46.2841C127.175 46.159 127.152 46.0254 127.155 45.8911V44.2516C127.055 42.9121 129.229 42.9121 129.162 44.2516L129.16 45.8911Z" fill="#27A365"/>
<path d="M130.064 26.4435C130.021 26.3095 130.01 26.1669 130.034 26.0279C130.057 25.8889 130.115 25.7578 130.2 25.6457C130.286 25.5337 130.397 25.4442 130.525 25.3848C130.653 25.3255 130.793 25.2981 130.934 25.305C131.035 25.2945 131.137 25.3045 131.235 25.3345C131.332 25.3644 131.423 25.4137 131.501 25.4793C131.579 25.545 131.643 25.6256 131.689 25.7165C131.735 25.8075 131.763 25.9068 131.77 26.0085L136.018 45.0885C136.018 45.3225 136.251 45.2565 136.317 45.0885L141.133 26.88C141.2 26.4465 141.425 26.0532 141.764 25.7761C142.104 25.499 142.534 25.3578 142.972 25.38C143.408 25.3641 143.835 25.5076 144.174 25.7835C144.512 26.0595 144.739 26.4492 144.811 26.88L149.526 45.123C149.594 45.291 149.826 45.357 149.826 45.123L154.141 26.073C154.16 25.8575 154.26 25.6574 154.422 25.5141C154.584 25.3708 154.795 25.2954 155.011 25.3035C155.153 25.2887 155.296 25.3114 155.426 25.3692C155.557 25.427 155.67 25.5179 155.755 25.633C155.839 25.7481 155.892 25.8833 155.908 26.0252C155.925 26.1672 155.903 26.3108 155.847 26.442L151.5 45.4545C151.407 45.864 151.177 46.2296 150.849 46.4914C150.521 46.7533 150.114 46.8959 149.694 46.8959C149.275 46.8959 148.867 46.7533 148.539 46.4914C148.211 46.2296 147.982 45.864 147.888 45.4545L143.072 27.2115C143.072 27.1718 143.057 27.1336 143.029 27.1055C143 27.0773 142.962 27.0615 142.923 27.0615C142.883 27.0615 142.845 27.0773 142.817 27.1055C142.789 27.1336 142.773 27.1718 142.773 27.2115L137.89 45.4545C137.796 45.864 137.567 46.2296 137.239 46.4914C136.91 46.7533 136.503 46.8959 136.084 46.8959C135.664 46.8959 135.257 46.7533 134.928 46.4914C134.6 46.2296 134.371 45.864 134.277 45.4545L130.064 26.4435Z" fill="#5C5D5D"/>
<path d="M197.893 46.7611C197.76 46.7553 197.629 46.7227 197.508 46.6652C197.387 46.6078 197.279 46.5266 197.19 46.4266L191.237 38.9626C191.065 38.6633 190.816 38.4156 190.516 38.2449C190.216 38.0743 189.876 37.987 189.531 37.9921H185.317V45.8581C185.307 46.0887 185.214 46.3079 185.053 46.4738C184.893 46.6398 184.677 46.741 184.447 46.7581C184.215 46.7463 183.997 46.6468 183.835 46.4797C183.674 46.3127 183.582 46.0904 183.578 45.8581V27.2131C183.568 26.9818 183.606 26.7509 183.69 26.5352C183.774 26.3195 183.902 26.1236 184.066 25.9599C184.229 25.7963 184.425 25.6685 184.641 25.5847C184.856 25.5009 185.087 25.4629 185.318 25.4731H191.439C193.19 25.3867 194.906 25.9872 196.222 27.1471C196.846 27.7433 197.333 28.4677 197.651 29.2704C197.968 30.0731 198.108 30.9351 198.061 31.7971C198.061 35.3116 195.987 37.2871 192.515 37.7551L198.602 45.3196C198.722 45.4838 198.782 45.6848 198.77 45.8881C198.774 46.0042 198.754 46.1199 198.711 46.2279C198.669 46.3359 198.604 46.434 198.522 46.5159C198.439 46.5979 198.341 46.6619 198.233 46.7041C198.125 46.7463 198.009 46.7657 197.893 46.7611ZM185.351 36.2176H190.97C194.549 36.2176 196.321 34.7446 196.321 31.7326C196.321 28.9546 194.615 27.2131 191.405 27.2131H185.351V36.2176Z" fill="#5C5D5D"/>
<path d="M201.673 26.2425C201.673 26.0118 201.765 25.7905 201.928 25.6274C202.091 25.4642 202.312 25.3726 202.542 25.3726C202.773 25.3726 202.994 25.4642 203.157 25.6274C203.32 25.7905 203.412 26.0118 203.412 26.2425V44.8201H213.981C214.216 44.8313 214.438 44.9298 214.605 45.0962C214.771 45.2626 214.869 45.485 214.881 45.72C214.869 45.9521 214.77 46.1711 214.603 46.3326C214.436 46.4942 214.214 46.5862 213.981 46.59H203.446C203.211 46.6 202.976 46.561 202.756 46.4753C202.536 46.3897 202.337 46.2593 202.17 46.0925C202.004 45.9257 201.873 45.726 201.788 45.5062C201.702 45.2864 201.663 45.0512 201.673 44.8155V26.2425Z" fill="#5C5D5D"/>
<path d="M220.035 46.626C219.81 46.6386 219.584 46.6028 219.373 46.521C219.162 46.4392 218.971 46.3133 218.813 46.1517C218.654 45.9902 218.532 45.7966 218.455 45.584C218.377 45.3714 218.346 45.1447 218.363 44.919V27.1455C218.346 26.9198 218.377 26.6931 218.455 26.4805C218.532 26.2679 218.654 26.0744 218.813 25.9128C218.971 25.7512 219.162 25.6253 219.373 25.5435C219.584 25.4617 219.81 25.4259 220.035 25.4385H225.257C226.484 25.357 227.713 25.5355 228.866 25.9622C230.019 26.389 231.068 27.0544 231.946 27.915C233.595 29.6755 234.515 31.9959 234.521 34.4085C234.588 35.512 234.588 36.6185 234.521 37.722C234.485 40.1277 233.553 42.4333 231.909 44.1885C231.027 45.0323 229.981 45.6848 228.836 46.1053C227.69 46.5257 226.47 46.7051 225.253 46.632H220.035V46.626ZM232.775 34.341C232.508 29.856 230.065 27.2115 225.217 27.2115H220.133V44.8185H225.217C230.067 44.8185 232.541 42.141 232.775 37.689C232.843 36.5746 232.844 35.4571 232.778 34.3425L232.775 34.341Z" fill="#5C5D5D"/>
<path d="M162.301 46.2V36.8205L167.912 42.45H167.945V48C165.94 47.8981 163.995 47.278 162.301 46.2ZM169.615 42.4845L175.292 36.7935V46.1655C173.6 47.2755 171.637 47.9006 169.615 47.973V42.4845ZM175.292 42.2835V36.786H180.771C180.641 38.734 180.033 40.6199 179.001 42.276L175.292 42.2835ZM158.593 42.2835C157.559 40.6252 156.95 38.7366 156.823 36.786H162.301V42.276L158.593 42.2835ZM165.307 36.0165C165.309 35.3294 165.513 34.658 165.895 34.0873C166.278 33.5165 166.821 33.072 167.455 32.8098C168.09 32.5477 168.788 32.4797 169.461 32.6145C170.135 32.7493 170.753 33.0808 171.238 33.5671C171.723 34.0534 172.053 34.6727 172.187 35.3467C172.32 36.0207 172.251 36.7192 171.988 37.3539C171.725 37.9886 171.28 38.5311 170.709 38.9127C170.138 39.2943 169.467 39.498 168.78 39.498C168.324 39.4976 167.872 39.4072 167.45 39.2321C167.029 39.0569 166.646 38.8003 166.323 38.477C166.001 38.1538 165.745 37.7701 165.571 37.3479C165.396 36.9257 165.307 36.4733 165.307 36.0165ZM175.161 35.1465L169.615 29.5965V24C171.627 24.1272 173.571 24.7731 175.259 25.875V29.64L175.276 29.6565H178.972C179.998 31.3023 180.605 33.1751 180.739 35.1105L180.771 35.1465H175.161ZM156.79 35.1465L156.83 35.1C156.981 33.1712 157.586 31.3057 158.597 29.6565H162.284L162.301 29.64V25.875C163.989 24.7731 165.934 24.1272 167.945 24V29.5905L162.4 35.1405L156.79 35.1465Z" fill="url(#paint0_linear_1_784)"/>
</g>
<rect x="540" y="16" width="360" height="42" rx="21" fill="#F2F2F2"/>
<g clip-path="url(#clip1_1_784)">
<path d="M568.208 38.8333H567.484L567.227 38.5858C568.126 37.5408 568.667 36.1842 568.667 34.7083C568.667 31.4175 565.999 28.75 562.708 28.75C559.418 28.75 556.75 31.4175 556.75 34.7083C556.75 37.9992 559.418 40.6667 562.708 40.6667C564.184 40.6667 565.541 40.1258 566.586 39.2275L566.833 39.4842V40.2083L571.417 44.7825L572.782 43.4167L568.208 38.8333ZM562.708 38.8333C560.426 38.8333 558.583 36.9908 558.583 34.7083C558.583 32.4258 560.426 30.5833 562.708 30.5833C564.991 30.5833 566.833 32.4258 566.833 34.7083C566.833 36.9908 564.991 38.8333 562.708 38.8333Z" fill="#7A7A7A"/>
</g>
<path d="M594.13 42.168C593.309 42.168 592.609 42.0187 592.03 41.72C591.461 41.4213 590.971 41.02 590.56 40.516L591.652 39.494C591.997 39.914 592.375 40.2313 592.786 40.446C593.206 40.6607 593.682 40.768 594.214 40.768C594.839 40.768 595.311 40.628 595.628 40.348C595.945 40.068 596.104 39.69 596.104 39.214C596.104 38.8313 595.992 38.528 595.768 38.304C595.544 38.08 595.147 37.912 594.578 37.8L593.71 37.646C592.758 37.4687 592.044 37.156 591.568 36.708C591.092 36.26 590.854 35.644 590.854 34.86C590.854 34.4307 590.933 34.0433 591.092 33.698C591.26 33.3433 591.489 33.0493 591.778 32.816C592.077 32.5733 592.436 32.3867 592.856 32.256C593.276 32.1253 593.747 32.06 594.27 32.06C595.007 32.06 595.647 32.1907 596.188 32.452C596.729 32.704 597.191 33.0727 597.574 33.558L596.468 34.538C596.216 34.2113 595.908 33.95 595.544 33.754C595.18 33.558 594.727 33.46 594.186 33.46C593.626 33.46 593.192 33.572 592.884 33.796C592.576 34.02 592.422 34.3467 592.422 34.776C592.422 35.1867 592.548 35.4947 592.8 35.7C593.052 35.896 593.444 36.0453 593.976 36.148L594.844 36.33C595.824 36.5167 596.538 36.834 596.986 37.282C597.443 37.73 597.672 38.346 597.672 39.13C597.672 39.5873 597.593 40.0027 597.434 40.376C597.275 40.7493 597.042 41.0713 596.734 41.342C596.435 41.6033 596.067 41.8087 595.628 41.958C595.189 42.098 594.69 42.168 594.13 42.168ZM602.315 42.168C601.793 42.168 601.326 42.0793 600.915 41.902C600.505 41.7247 600.155 41.4727 599.865 41.146C599.576 40.81 599.352 40.4087 599.193 39.942C599.044 39.466 598.969 38.9387 598.969 38.36C598.969 37.7813 599.044 37.2587 599.193 36.792C599.352 36.316 599.576 35.9147 599.865 35.588C600.155 35.252 600.505 34.9953 600.915 34.818C601.326 34.6407 601.793 34.552 602.315 34.552C602.847 34.552 603.314 34.6453 603.715 34.832C604.126 35.0187 604.467 35.28 604.737 35.616C605.008 35.9427 605.209 36.3253 605.339 36.764C605.479 37.2027 605.549 37.674 605.549 38.178V38.752H600.551V38.99C600.551 39.55 600.715 40.012 601.041 40.376C601.377 40.7307 601.853 40.908 602.469 40.908C602.917 40.908 603.295 40.81 603.603 40.614C603.911 40.418 604.173 40.152 604.387 39.816L605.283 40.698C605.013 41.146 604.621 41.5053 604.107 41.776C603.594 42.0373 602.997 42.168 602.315 42.168ZM602.315 35.742C602.054 35.742 601.811 35.7887 601.587 35.882C601.373 35.9753 601.186 36.106 601.027 36.274C600.878 36.442 600.761 36.6427 600.677 36.876C600.593 37.1093 600.551 37.366 600.551 37.646V37.744H603.939V37.604C603.939 37.044 603.795 36.596 603.505 36.26C603.216 35.9147 602.819 35.742 602.315 35.742ZM612.572 42C612.171 42 611.863 41.888 611.648 41.664C611.434 41.4307 611.303 41.1367 611.256 40.782H611.186C611.046 41.2393 610.79 41.5847 610.416 41.818C610.043 42.0513 609.59 42.168 609.058 42.168C608.302 42.168 607.719 41.972 607.308 41.58C606.907 41.188 606.706 40.6607 606.706 39.998C606.706 39.27 606.968 38.724 607.49 38.36C608.022 37.996 608.797 37.814 609.814 37.814H611.13V37.198C611.13 36.75 611.009 36.4047 610.766 36.162C610.524 35.9193 610.146 35.798 609.632 35.798C609.203 35.798 608.853 35.8913 608.582 36.078C608.312 36.2647 608.083 36.5027 607.896 36.792L606.986 35.966C607.229 35.5553 607.57 35.2193 608.008 34.958C608.447 34.6873 609.021 34.552 609.73 34.552C610.673 34.552 611.396 34.7713 611.9 35.21C612.404 35.6487 612.656 36.2787 612.656 37.1V40.754H613.426V42H612.572ZM609.492 41.006C609.968 41.006 610.36 40.9033 610.668 40.698C610.976 40.4833 611.13 40.1987 611.13 39.844V38.794H609.842C608.788 38.794 608.26 39.1207 608.26 39.774V40.026C608.26 40.3527 608.368 40.6 608.582 40.768C608.806 40.9267 609.11 41.006 609.492 41.006ZM614.922 42V34.72H616.448V36.12H616.518C616.621 35.7467 616.835 35.42 617.162 35.14C617.489 34.86 617.941 34.72 618.52 34.72H618.926V36.19H618.324C617.717 36.19 617.251 36.288 616.924 36.484C616.607 36.68 616.448 36.9693 616.448 37.352V42H614.922ZM623.027 42.168C622.504 42.168 622.038 42.0793 621.627 41.902C621.216 41.7247 620.871 41.4727 620.591 41.146C620.311 40.81 620.096 40.4087 619.947 39.942C619.798 39.466 619.723 38.9387 619.723 38.36C619.723 37.7813 619.798 37.2587 619.947 36.792C620.096 36.316 620.311 35.9147 620.591 35.588C620.871 35.252 621.216 34.9953 621.627 34.818C622.038 34.6407 622.504 34.552 623.027 34.552C623.755 34.552 624.352 34.7153 624.819 35.042C625.286 35.3687 625.626 35.8027 625.841 36.344L624.581 36.932C624.478 36.596 624.296 36.33 624.035 36.134C623.783 35.9287 623.447 35.826 623.027 35.826C622.467 35.826 622.042 36.0033 621.753 36.358C621.473 36.7033 621.333 37.156 621.333 37.716V39.018C621.333 39.578 621.473 40.0353 621.753 40.39C622.042 40.7353 622.467 40.908 623.027 40.908C623.475 40.908 623.83 40.8007 624.091 40.586C624.362 40.362 624.576 40.068 624.735 39.704L625.897 40.32C625.654 40.9173 625.29 41.3747 624.805 41.692C624.32 42.0093 623.727 42.168 623.027 42.168ZM627.35 31.64H628.876V35.924H628.946C629.104 35.532 629.342 35.2053 629.66 34.944C629.986 34.6827 630.43 34.552 630.99 34.552C631.736 34.552 632.315 34.7993 632.726 35.294C633.146 35.7793 633.356 36.4747 633.356 37.38V42H631.83V37.562C631.83 36.4327 631.372 35.868 630.458 35.868C630.262 35.868 630.066 35.896 629.87 35.952C629.683 35.9987 629.515 36.0733 629.366 36.176C629.216 36.2787 629.095 36.4093 629.002 36.568C628.918 36.7267 628.876 36.9087 628.876 37.114V42H627.35V31.64ZM639.158 35.966H638.052V34.72H639.158V33.516C639.158 32.928 639.312 32.4707 639.62 32.144C639.928 31.808 640.39 31.64 641.006 31.64H642.21V32.886H640.684V34.72H642.21V35.966H640.684V42H639.158V35.966ZM646.339 42.168C645.835 42.168 645.373 42.0793 644.953 41.902C644.542 41.7247 644.192 41.4727 643.903 41.146C643.613 40.81 643.389 40.4087 643.231 39.942C643.072 39.466 642.993 38.9387 642.993 38.36C642.993 37.7813 643.072 37.2587 643.231 36.792C643.389 36.316 643.613 35.9147 643.903 35.588C644.192 35.252 644.542 34.9953 644.953 34.818C645.373 34.6407 645.835 34.552 646.339 34.552C646.843 34.552 647.3 34.6407 647.711 34.818C648.131 34.9953 648.485 35.252 648.775 35.588C649.064 35.9147 649.288 36.316 649.447 36.792C649.605 37.2587 649.685 37.7813 649.685 38.36C649.685 38.9387 649.605 39.466 649.447 39.942C649.288 40.4087 649.064 40.81 648.775 41.146C648.485 41.4727 648.131 41.7247 647.711 41.902C647.3 42.0793 646.843 42.168 646.339 42.168ZM646.339 40.908C646.861 40.908 647.281 40.7493 647.599 40.432C647.916 40.1053 648.075 39.62 648.075 38.976V37.744C648.075 37.1 647.916 36.6193 647.599 36.302C647.281 35.9753 646.861 35.812 646.339 35.812C645.816 35.812 645.396 35.9753 645.079 36.302C644.761 36.6193 644.603 37.1 644.603 37.744V38.976C644.603 39.62 644.761 40.1053 645.079 40.432C645.396 40.7493 645.816 40.908 646.339 40.908ZM651.385 42V34.72H652.911V36.12H652.981C653.084 35.7467 653.298 35.42 653.625 35.14C653.952 34.86 654.404 34.72 654.983 34.72H655.389V36.19H654.787C654.18 36.19 653.714 36.288 653.387 36.484C653.07 36.68 652.911 36.9693 652.911 37.352V42H651.385ZM664.519 34.72H665.989L662.923 43.442C662.839 43.6847 662.741 43.89 662.629 44.058C662.526 44.2353 662.4 44.3753 662.251 44.478C662.111 44.59 661.938 44.6693 661.733 44.716C661.528 44.772 661.285 44.8 661.005 44.8H660.123V43.554H661.355L661.775 42.322L659.129 34.72H660.655L662.111 39.004L662.531 40.586H662.601L663.063 39.004L664.519 34.72ZM670.018 42.168C669.514 42.168 669.052 42.0793 668.632 41.902C668.222 41.7247 667.872 41.4727 667.582 41.146C667.293 40.81 667.069 40.4087 666.91 39.942C666.752 39.466 666.672 38.9387 666.672 38.36C666.672 37.7813 666.752 37.2587 666.91 36.792C667.069 36.316 667.293 35.9147 667.582 35.588C667.872 35.252 668.222 34.9953 668.632 34.818C669.052 34.6407 669.514 34.552 670.018 34.552C670.522 34.552 670.98 34.6407 671.39 34.818C671.81 34.9953 672.165 35.252 672.454 35.588C672.744 35.9147 672.968 36.316 673.126 36.792C673.285 37.2587 673.364 37.7813 673.364 38.36C673.364 38.9387 673.285 39.466 673.126 39.942C672.968 40.4087 672.744 40.81 672.454 41.146C672.165 41.4727 671.81 41.7247 671.39 41.902C670.98 42.0793 670.522 42.168 670.018 42.168ZM670.018 40.908C670.541 40.908 670.961 40.7493 671.278 40.432C671.596 40.1053 671.754 39.62 671.754 38.976V37.744C671.754 37.1 671.596 36.6193 671.278 36.302C670.961 35.9753 670.541 35.812 670.018 35.812C669.496 35.812 669.076 35.9753 668.758 36.302C668.441 36.6193 668.282 37.1 668.282 37.744V38.976C668.282 39.62 668.441 40.1053 668.758 40.432C669.076 40.7493 669.496 40.908 670.018 40.908ZM679.475 40.796H679.419C679.353 40.9733 679.265 41.146 679.153 41.314C679.05 41.482 678.915 41.6313 678.747 41.762C678.588 41.8833 678.392 41.9813 678.159 42.056C677.935 42.1307 677.673 42.168 677.375 42.168C676.619 42.168 676.031 41.9253 675.611 41.44C675.2 40.9547 674.995 40.2593 674.995 39.354V34.72H676.521V39.158C676.521 40.2873 676.987 40.852 677.921 40.852C678.117 40.852 678.308 40.8287 678.495 40.782C678.681 40.726 678.845 40.6467 678.985 40.544C679.134 40.4413 679.251 40.3107 679.335 40.152C679.428 39.9933 679.475 39.8067 679.475 39.592V34.72H681.001V42H679.475V40.796ZM683.186 42V34.72H684.712V36.12H684.782C684.884 35.7467 685.099 35.42 685.426 35.14C685.752 34.86 686.205 34.72 686.784 34.72H687.19V36.19H686.588C685.981 36.19 685.514 36.288 685.188 36.484C684.87 36.68 684.712 36.9693 684.712 37.352V42H683.186ZM692.232 35.966H691.126V34.72H692.232V33.516C692.232 32.928 692.386 32.4707 692.694 32.144C693.002 31.808 693.464 31.64 694.08 31.64H695.284V32.886H693.758V34.72H695.284V35.966H693.758V42H692.232V35.966ZM701.946 42C701.544 42 701.236 41.888 701.022 41.664C700.807 41.4307 700.676 41.1367 700.63 40.782H700.56C700.42 41.2393 700.163 41.5847 699.79 41.818C699.416 42.0513 698.964 42.168 698.432 42.168C697.676 42.168 697.092 41.972 696.682 41.58C696.28 41.188 696.08 40.6607 696.08 39.998C696.08 39.27 696.341 38.724 696.864 38.36C697.396 37.996 698.17 37.814 699.188 37.814H700.504V37.198C700.504 36.75 700.382 36.4047 700.14 36.162C699.897 35.9193 699.519 35.798 699.006 35.798C698.576 35.798 698.226 35.8913 697.956 36.078C697.685 36.2647 697.456 36.5027 697.27 36.792L696.36 35.966C696.602 35.5553 696.943 35.2193 697.382 34.958C697.82 34.6873 698.394 34.552 699.104 34.552C700.046 34.552 700.77 34.7713 701.274 35.21C701.778 35.6487 702.03 36.2787 702.03 37.1V40.754H702.8V42H701.946ZM698.866 41.006C699.342 41.006 699.734 40.9033 700.042 40.698C700.35 40.4833 700.504 40.1987 700.504 39.844V38.794H699.216C698.161 38.794 697.634 39.1207 697.634 39.774V40.026C697.634 40.3527 697.741 40.6 697.956 40.768C698.18 40.9267 698.483 41.006 698.866 41.006ZM705.754 42L703.276 34.72H704.788L705.894 38.038L706.636 40.586H706.72L707.462 38.038L708.596 34.72H710.052L707.546 42H705.754ZM714.083 42.168C713.579 42.168 713.117 42.0793 712.697 41.902C712.286 41.7247 711.936 41.4727 711.647 41.146C711.357 40.81 711.133 40.4087 710.975 39.942C710.816 39.466 710.737 38.9387 710.737 38.36C710.737 37.7813 710.816 37.2587 710.975 36.792C711.133 36.316 711.357 35.9147 711.647 35.588C711.936 35.252 712.286 34.9953 712.697 34.818C713.117 34.6407 713.579 34.552 714.083 34.552C714.587 34.552 715.044 34.6407 715.455 34.818C715.875 34.9953 716.229 35.252 716.519 35.588C716.808 35.9147 717.032 36.316 717.191 36.792C717.349 37.2587 717.429 37.7813 717.429 38.36C717.429 38.9387 717.349 39.466 717.191 39.942C717.032 40.4087 716.808 40.81 716.519 41.146C716.229 41.4727 715.875 41.7247 715.455 41.902C715.044 42.0793 714.587 42.168 714.083 42.168ZM714.083 40.908C714.605 40.908 715.025 40.7493 715.343 40.432C715.66 40.1053 715.819 39.62 715.819 38.976V37.744C715.819 37.1 715.66 36.6193 715.343 36.302C715.025 35.9753 714.605 35.812 714.083 35.812C713.56 35.812 713.14 35.9753 712.823 36.302C712.505 36.6193 712.347 37.1 712.347 37.744V38.976C712.347 39.62 712.505 40.1053 712.823 40.432C713.14 40.7493 713.56 40.908 714.083 40.908ZM719.129 42V34.72H720.655V36.12H720.725C720.828 35.7467 721.042 35.42 721.369 35.14C721.696 34.86 722.148 34.72 722.727 34.72H723.133V36.19H722.531C721.924 36.19 721.458 36.288 721.131 36.484C720.814 36.68 720.655 36.9693 720.655 37.352V42H719.129ZM725.258 33.418C724.941 33.418 724.708 33.3433 724.558 33.194C724.418 33.0447 724.348 32.8533 724.348 32.62V32.382C724.348 32.1487 724.418 31.9573 724.558 31.808C724.708 31.6587 724.941 31.584 725.258 31.584C725.576 31.584 725.804 31.6587 725.944 31.808C726.084 31.9573 726.154 32.1487 726.154 32.382V32.62C726.154 32.8533 726.084 33.0447 725.944 33.194C725.804 33.3433 725.576 33.418 725.258 33.418ZM724.488 34.72H726.014V42H724.488V34.72ZM730.21 42C729.678 42 729.276 41.8647 729.006 41.594C728.735 41.314 728.6 40.922 728.6 40.418V35.966H727.466V34.72H728.082C728.334 34.72 728.506 34.664 728.6 34.552C728.702 34.44 728.754 34.258 728.754 34.006V32.732H730.126V34.72H731.652V35.966H730.126V40.754H731.54V42H730.21ZM736.108 42.168C735.585 42.168 735.119 42.0793 734.708 41.902C734.297 41.7247 733.947 41.4727 733.658 41.146C733.369 40.81 733.145 40.4087 732.986 39.942C732.837 39.466 732.762 38.9387 732.762 38.36C732.762 37.7813 732.837 37.2587 732.986 36.792C733.145 36.316 733.369 35.9147 733.658 35.588C733.947 35.252 734.297 34.9953 734.708 34.818C735.119 34.6407 735.585 34.552 736.108 34.552C736.64 34.552 737.107 34.6453 737.508 34.832C737.919 35.0187 738.259 35.28 738.53 35.616C738.801 35.9427 739.001 36.3253 739.132 36.764C739.272 37.2027 739.342 37.674 739.342 38.178V38.752H734.344V38.99C734.344 39.55 734.507 40.012 734.834 40.376C735.17 40.7307 735.646 40.908 736.262 40.908C736.71 40.908 737.088 40.81 737.396 40.614C737.704 40.418 737.965 40.152 738.18 39.816L739.076 40.698C738.805 41.146 738.413 41.5053 737.9 41.776C737.387 42.0373 736.789 42.168 736.108 42.168ZM736.108 35.742C735.847 35.742 735.604 35.7887 735.38 35.882C735.165 35.9753 734.979 36.106 734.82 36.274C734.671 36.442 734.554 36.6427 734.47 36.876C734.386 37.1093 734.344 37.366 734.344 37.646V37.744H737.732V37.604C737.732 37.044 737.587 36.596 737.298 36.26C737.009 35.9147 736.612 35.742 736.108 35.742ZM750.724 42.686C750.724 43.442 750.435 44.0113 749.856 44.394C749.277 44.7767 748.335 44.968 747.028 44.968C746.431 44.968 745.922 44.926 745.502 44.842C745.091 44.7673 744.751 44.6553 744.48 44.506C744.219 44.3567 744.027 44.1747 743.906 43.96C743.785 43.7453 743.724 43.498 743.724 43.218C743.724 42.8167 743.831 42.504 744.046 42.28C744.27 42.056 744.578 41.902 744.97 41.818V41.664C744.419 41.4867 744.144 41.1133 744.144 40.544C744.144 40.1707 744.27 39.886 744.522 39.69C744.774 39.4847 745.077 39.34 745.432 39.256V39.2C745.003 38.9947 744.671 38.71 744.438 38.346C744.214 37.9727 744.102 37.5387 744.102 37.044C744.102 36.2973 744.349 35.6953 744.844 35.238C745.348 34.7807 746.067 34.552 747 34.552C747.513 34.552 747.952 34.6267 748.316 34.776V34.58C748.316 34.2533 748.391 34.0013 748.54 33.824C748.699 33.6373 748.941 33.544 749.268 33.544H750.388V34.776H748.904V35.07C749.231 35.2847 749.483 35.5647 749.66 35.91C749.837 36.246 749.926 36.624 749.926 37.044C749.926 37.7813 749.674 38.3787 749.17 38.836C748.666 39.284 747.947 39.508 747.014 39.508C746.659 39.508 746.342 39.4707 746.062 39.396C745.875 39.4613 745.712 39.5547 745.572 39.676C745.432 39.788 745.362 39.9373 745.362 40.124C745.362 40.32 745.451 40.46 745.628 40.544C745.805 40.628 746.057 40.67 746.384 40.67H748.176C749.072 40.67 749.721 40.852 750.122 41.216C750.523 41.5707 750.724 42.0607 750.724 42.686ZM749.296 42.854C749.296 42.602 749.198 42.4013 749.002 42.252C748.815 42.1027 748.47 42.028 747.966 42.028H745.502C745.166 42.224 744.998 42.504 744.998 42.868C744.998 43.1667 745.115 43.4047 745.348 43.582C745.591 43.7687 745.997 43.862 746.566 43.862H747.518C748.703 43.862 749.296 43.526 749.296 42.854ZM747.014 38.402C747.462 38.402 747.807 38.304 748.05 38.108C748.302 37.9027 748.428 37.59 748.428 37.17V36.89C748.428 36.47 748.302 36.162 748.05 35.966C747.807 35.7607 747.462 35.658 747.014 35.658C746.566 35.658 746.216 35.7607 745.964 35.966C745.721 36.162 745.6 36.47 745.6 36.89V37.17C745.6 37.59 745.721 37.9027 745.964 38.108C746.216 38.304 746.566 38.402 747.014 38.402ZM751.86 42V34.72H753.386V36.12H753.456C753.558 35.7467 753.773 35.42 754.1 35.14C754.426 34.86 754.879 34.72 755.458 34.72H755.864V36.19H755.262C754.655 36.19 754.188 36.288 753.862 36.484C753.544 36.68 753.386 36.9693 753.386 37.352V42H751.86ZM760.007 42.168C759.503 42.168 759.041 42.0793 758.621 41.902C758.21 41.7247 757.86 41.4727 757.571 41.146C757.281 40.81 757.057 40.4087 756.899 39.942C756.74 39.466 756.661 38.9387 756.661 38.36C756.661 37.7813 756.74 37.2587 756.899 36.792C757.057 36.316 757.281 35.9147 757.571 35.588C757.86 35.252 758.21 34.9953 758.621 34.818C759.041 34.6407 759.503 34.552 760.007 34.552C760.511 34.552 760.968 34.6407 761.379 34.818C761.799 34.9953 762.153 35.252 762.443 35.588C762.732 35.9147 762.956 36.316 763.115 36.792C763.273 37.2587 763.353 37.7813 763.353 38.36C763.353 38.9387 763.273 39.466 763.115 39.942C762.956 40.4087 762.732 40.81 762.443 41.146C762.153 41.4727 761.799 41.7247 761.379 41.902C760.968 42.0793 760.511 42.168 760.007 42.168ZM760.007 40.908C760.529 40.908 760.949 40.7493 761.267 40.432C761.584 40.1053 761.743 39.62 761.743 38.976V37.744C761.743 37.1 761.584 36.6193 761.267 36.302C760.949 35.9753 760.529 35.812 760.007 35.812C759.484 35.812 759.064 35.9753 758.747 36.302C758.429 36.6193 758.271 37.1 758.271 37.744V38.976C758.271 39.62 758.429 40.1053 758.747 40.432C759.064 40.7493 759.484 40.908 760.007 40.908ZM769.463 40.796H769.407C769.342 40.9733 769.253 41.146 769.141 41.314C769.038 41.482 768.903 41.6313 768.735 41.762C768.576 41.8833 768.38 41.9813 768.147 42.056C767.923 42.1307 767.662 42.168 767.363 42.168C766.607 42.168 766.019 41.9253 765.599 41.44C765.188 40.9547 764.983 40.2593 764.983 39.354V34.72H766.509V39.158C766.509 40.2873 766.976 40.852 767.909 40.852C768.105 40.852 768.296 40.8287 768.483 40.782C768.67 40.726 768.833 40.6467 768.973 40.544C769.122 40.4413 769.239 40.3107 769.323 40.152C769.416 39.9933 769.463 39.8067 769.463 39.592V34.72H770.989V42H769.463V40.796ZM773.174 34.72H774.7V35.924H774.77C774.929 35.4853 775.185 35.1493 775.54 34.916C775.904 34.6733 776.329 34.552 776.814 34.552C777.738 34.552 778.452 34.888 778.956 35.56C779.46 36.2227 779.712 37.156 779.712 38.36C779.712 39.564 779.46 40.502 778.956 41.174C778.452 41.8367 777.738 42.168 776.814 42.168C776.329 42.168 775.904 42.0467 775.54 41.804C775.185 41.5613 774.929 41.2253 774.77 40.796H774.7V44.8H773.174V34.72ZM776.352 40.852C776.884 40.852 777.309 40.684 777.626 40.348C777.943 40.0027 778.102 39.55 778.102 38.99V37.73C778.102 37.17 777.943 36.722 777.626 36.386C777.309 36.0407 776.884 35.868 776.352 35.868C775.885 35.868 775.493 35.9847 775.176 36.218C774.859 36.442 774.7 36.7407 774.7 37.114V39.606C774.7 39.9793 774.859 40.2827 775.176 40.516C775.493 40.74 775.885 40.852 776.352 40.852ZM783.769 42.168C783.079 42.168 782.5 42.0467 782.033 41.804C781.567 41.5613 781.161 41.2253 780.815 40.796L781.795 39.9C782.066 40.2267 782.365 40.4833 782.691 40.67C783.027 40.8473 783.415 40.936 783.853 40.936C784.301 40.936 784.633 40.852 784.847 40.684C785.071 40.5067 785.183 40.264 785.183 39.956C785.183 39.7227 785.104 39.5267 784.945 39.368C784.796 39.2 784.53 39.0927 784.147 39.046L783.475 38.962C782.729 38.8687 782.141 38.654 781.711 38.318C781.291 37.9727 781.081 37.464 781.081 36.792C781.081 36.4373 781.147 36.1247 781.277 35.854C781.408 35.574 781.59 35.3407 781.823 35.154C782.066 34.958 782.351 34.8087 782.677 34.706C783.013 34.6033 783.382 34.552 783.783 34.552C784.437 34.552 784.969 34.6547 785.379 34.86C785.799 35.0653 786.173 35.35 786.499 35.714L785.561 36.61C785.375 36.386 785.127 36.1947 784.819 36.036C784.521 35.868 784.175 35.784 783.783 35.784C783.363 35.784 783.051 35.868 782.845 36.036C782.649 36.204 782.551 36.4233 782.551 36.694C782.551 36.974 782.64 37.184 782.817 37.324C782.995 37.464 783.279 37.5667 783.671 37.632L784.343 37.716C785.146 37.8373 785.729 38.0753 786.093 38.43C786.467 38.7753 786.653 39.242 786.653 39.83C786.653 40.1847 786.583 40.5067 786.443 40.796C786.313 41.076 786.121 41.3187 785.869 41.524C785.617 41.7293 785.314 41.888 784.959 42C784.605 42.112 784.208 42.168 783.769 42.168ZM792.456 33.418C792.138 33.418 791.905 33.3433 791.756 33.194C791.616 33.0447 791.546 32.8533 791.546 32.62V32.382C791.546 32.1487 791.616 31.9573 791.756 31.808C791.905 31.6587 792.138 31.584 792.456 31.584C792.773 31.584 793.002 31.6587 793.142 31.808C793.282 31.9573 793.352 32.1487 793.352 32.382V32.62C793.352 32.8533 793.282 33.0447 793.142 33.194C793.002 33.3433 792.773 33.418 792.456 33.418ZM791.686 34.72H793.212V42H791.686V34.72ZM795.391 42V34.72H796.917V35.924H796.987C797.145 35.532 797.383 35.2053 797.701 34.944C798.027 34.6827 798.471 34.552 799.031 34.552C799.777 34.552 800.356 34.7993 800.767 35.294C801.187 35.7793 801.397 36.4747 801.397 37.38V42H799.871V37.576C799.871 36.4373 799.413 35.868 798.499 35.868C798.303 35.868 798.107 35.896 797.911 35.952C797.724 35.9987 797.556 36.0733 797.407 36.176C797.257 36.2787 797.136 36.4093 797.043 36.568C796.959 36.7267 796.917 36.9133 796.917 37.128V42H795.391ZM813.037 42L812.155 39.354H808.501L807.647 42H806.037L809.369 32.228H811.357L814.689 42H813.037ZM810.363 33.684H810.293L808.879 37.996H811.763L810.363 33.684ZM818.912 33.628V42H817.33V33.628H814.418V32.228H821.824V33.628H818.912ZM829.338 40.516H829.282C829.179 40.992 828.899 41.3887 828.442 41.706C827.994 42.014 827.396 42.168 826.65 42.168C826.071 42.168 825.534 42.0607 825.04 41.846C824.545 41.622 824.116 41.3 823.752 40.88C823.397 40.4507 823.117 39.9233 822.912 39.298C822.716 38.6633 822.618 37.9353 822.618 37.114C822.618 36.302 822.72 35.5833 822.926 34.958C823.131 34.3233 823.42 33.7913 823.794 33.362C824.167 32.9327 824.615 32.6107 825.138 32.396C825.66 32.172 826.244 32.06 826.888 32.06C827.765 32.06 828.507 32.256 829.114 32.648C829.72 33.0307 830.192 33.5673 830.528 34.258L829.24 35.014C829.053 34.5567 828.764 34.188 828.372 33.908C827.98 33.6187 827.485 33.474 826.888 33.474C826.113 33.474 825.488 33.7213 825.012 34.216C824.545 34.7107 824.312 35.4107 824.312 36.316V37.912C824.312 38.8173 824.545 39.5173 825.012 40.012C825.488 40.5067 826.113 40.754 826.888 40.754C827.196 40.754 827.49 40.7167 827.77 40.642C828.05 40.558 828.292 40.4413 828.498 40.292C828.712 40.1333 828.88 39.942 829.002 39.718C829.132 39.4847 829.198 39.214 829.198 38.906V38.15H827.182V36.792H830.724V42H829.338V40.516Z" fill="#5C5C5C"/>
<path d="M1166.65 44.192C1168.58 44.192 1169.93 43.216 1170.68 41.6L1169.22 40.72C1168.82 41.808 1167.97 42.576 1166.65 42.576C1164.93 42.576 1163.88 41.328 1163.88 39.264V37.568C1163.88 35.504 1164.93 34.256 1166.65 34.256C1167.94 34.256 1168.73 34.944 1169.11 36L1170.63 35.168C1169.88 33.504 1168.58 32.64 1166.65 32.64C1163.73 32.64 1161.96 34.672 1161.96 38.416C1161.96 42.16 1163.73 44.192 1166.65 44.192ZM1174.21 44V38.688C1174.21 37.824 1174.98 37.36 1176.35 37.36H1177.04V35.68H1176.58C1175.25 35.68 1174.53 36.432 1174.29 37.28H1174.21V35.68H1172.47V44H1174.21ZM1181.78 44.192C1183.33 44.192 1184.55 43.52 1185.17 42.512L1184.15 41.504C1183.67 42.272 1182.98 42.752 1181.95 42.752C1180.55 42.752 1179.76 41.84 1179.76 40.56V40.288H1185.47V39.632C1185.47 37.328 1184.23 35.488 1181.78 35.488C1179.41 35.488 1177.95 37.184 1177.95 39.84C1177.95 42.496 1179.41 44.192 1181.78 44.192ZM1181.78 36.848C1182.93 36.848 1183.63 37.696 1183.63 38.976V39.136H1179.76V39.024C1179.76 37.744 1180.58 36.848 1181.78 36.848ZM1194.48 44V42.576H1193.6V38.4C1193.6 36.544 1192.4 35.488 1190.25 35.488C1188.64 35.488 1187.66 36.176 1187.12 37.104L1188.16 38.048C1188.57 37.392 1189.16 36.912 1190.14 36.912C1191.31 36.912 1191.85 37.504 1191.85 38.512V39.216H1190.35C1188.03 39.216 1186.8 40.064 1186.8 41.712C1186.8 43.216 1187.77 44.192 1189.48 44.192C1190.7 44.192 1191.6 43.648 1191.92 42.608H1192C1192.11 43.424 1192.59 44 1193.5 44H1194.48ZM1189.98 42.864C1189.12 42.864 1188.57 42.48 1188.57 41.744V41.456C1188.57 40.736 1189.16 40.336 1190.38 40.336H1191.85V41.536C1191.85 42.352 1191.05 42.864 1189.98 42.864ZM1199.96 44V42.576H1198.35V37.104H1200.09V35.68H1198.35V33.408H1196.78V34.864C1196.78 35.44 1196.59 35.68 1196.01 35.68H1195.31V37.104H1196.6V42.192C1196.6 43.328 1197.24 44 1198.44 44H1199.96ZM1205.18 44.192C1206.74 44.192 1207.95 43.52 1208.58 42.512L1207.55 41.504C1207.07 42.272 1206.38 42.752 1205.36 42.752C1203.95 42.752 1203.17 41.84 1203.17 40.56V40.288H1208.88V39.632C1208.88 37.328 1207.63 35.488 1205.18 35.488C1202.82 35.488 1201.36 37.184 1201.36 39.84C1201.36 42.496 1202.82 44.192 1205.18 44.192ZM1205.18 36.848C1206.34 36.848 1207.04 37.696 1207.04 38.976V39.136H1203.17V39.024C1203.17 37.744 1203.98 36.848 1205.18 36.848ZM1221.66 44V42.576H1220.78V38.4C1220.78 36.544 1219.58 35.488 1217.44 35.488C1215.82 35.488 1214.85 36.176 1214.3 37.104L1215.34 38.048C1215.76 37.392 1216.35 36.912 1217.33 36.912C1218.5 36.912 1219.04 37.504 1219.04 38.512V39.216H1217.54C1215.22 39.216 1213.98 40.064 1213.98 41.712C1213.98 43.216 1214.96 44.192 1216.67 44.192C1217.89 44.192 1218.78 43.648 1219.1 42.608H1219.18C1219.3 43.424 1219.78 44 1220.69 44H1221.66ZM1217.17 42.864C1216.3 42.864 1215.76 42.48 1215.76 41.744V41.456C1215.76 40.736 1216.35 40.336 1217.57 40.336H1219.04V41.536C1219.04 42.352 1218.24 42.864 1217.17 42.864ZM1226.59 44.192C1228.19 44.192 1229.33 43.44 1229.87 42.08L1228.54 41.376C1228.19 42.208 1227.6 42.752 1226.59 42.752C1225.31 42.752 1224.65 41.872 1224.65 40.592V39.104C1224.65 37.824 1225.31 36.944 1226.59 36.944C1227.53 36.944 1228.13 37.44 1228.37 38.208L1229.81 37.536C1229.31 36.304 1228.25 35.488 1226.59 35.488C1224.19 35.488 1222.81 37.184 1222.81 39.84C1222.81 42.496 1224.19 44.192 1226.59 44.192ZM1234.65 44.192C1236.25 44.192 1237.39 43.44 1237.93 42.08L1236.6 41.376C1236.25 42.208 1235.66 42.752 1234.65 42.752C1233.37 42.752 1232.72 41.872 1232.72 40.592V39.104C1232.72 37.824 1233.37 36.944 1234.65 36.944C1235.6 36.944 1236.19 37.44 1236.43 38.208L1237.87 37.536C1237.37 36.304 1236.32 35.488 1234.65 35.488C1232.25 35.488 1230.88 37.184 1230.88 39.84C1230.88 42.496 1232.25 44.192 1234.65 44.192ZM1242.76 44.192C1245.08 44.192 1246.59 42.496 1246.59 39.84C1246.59 37.184 1245.08 35.488 1242.76 35.488C1240.44 35.488 1238.94 37.184 1238.94 39.84C1238.94 42.496 1240.44 44.192 1242.76 44.192ZM1242.76 42.752C1241.58 42.752 1240.78 42.016 1240.78 40.544V39.136C1240.78 37.664 1241.58 36.928 1242.76 36.928C1243.95 36.928 1244.75 37.664 1244.75 39.136V40.544C1244.75 42.016 1243.95 42.752 1242.76 42.752ZM1253.57 44H1255.31V35.68H1253.57V41.248C1253.57 42.224 1252.69 42.688 1251.79 42.688C1250.72 42.688 1250.19 42.016 1250.19 40.752V35.68H1248.45V40.976C1248.45 43.024 1249.46 44.192 1251.17 44.192C1252.55 44.192 1253.2 43.44 1253.51 42.624H1253.57V44ZM1259.55 44V38.432C1259.55 37.456 1260.45 36.992 1261.36 36.992C1262.43 36.992 1262.93 37.648 1262.93 38.944V44H1264.67V38.72C1264.67 36.672 1263.67 35.488 1261.97 35.488C1260.69 35.488 1259.99 36.16 1259.63 37.056H1259.55V35.68H1257.81V44H1259.55ZM1270.92 44V42.576H1269.3V37.104H1271.04V35.68H1269.3V33.408H1267.73V34.864C1267.73 35.44 1267.54 35.68 1266.96 35.68H1266.26V37.104H1267.56V42.192C1267.56 43.328 1268.2 44 1269.4 44H1270.92ZM1274.01 44.192C1274.79 44.192 1275.18 43.728 1275.18 43.104V42.864C1275.18 42.24 1274.79 41.776 1274.01 41.776C1273.22 41.776 1272.84 42.24 1272.84 42.864V43.104C1272.84 43.728 1273.22 44.192 1274.01 44.192Z" fill="#2E2E2E"/>
<path d="M1280.91 44V42.064H1282.35V34.768H1280.91V32.832H1286.22V34.768H1284.78V42.064H1286.22V44H1280.91ZM1291.06 44C1290.24 44 1289.62 43.792 1289.19 43.376C1288.78 42.96 1288.57 42.352 1288.57 41.552V37.44H1287.38V35.6H1287.98C1288.3 35.6 1288.51 35.5253 1288.63 35.376C1288.75 35.216 1288.81 34.992 1288.81 34.704V33.328H1290.94V35.6H1292.6V37.44H1290.94V42.16H1292.47V44H1291.06ZM1295.65 32C1296.13 32 1296.48 32.112 1296.69 32.336C1296.91 32.5493 1297.03 32.8213 1297.03 33.152V33.488C1297.03 33.7973 1296.98 34.112 1296.88 34.432C1296.8 34.7413 1296.67 35.04 1296.51 35.328C1296.37 35.616 1296.18 35.888 1295.97 36.144C1295.76 36.3893 1295.53 36.608 1295.28 36.8H1293.79C1294.15 36.48 1294.45 36.1547 1294.69 35.824C1294.95 35.4933 1295.14 35.1253 1295.27 34.72C1294.93 34.656 1294.67 34.5173 1294.51 34.304C1294.35 34.08 1294.27 33.8293 1294.27 33.552V33.152C1294.27 32.8213 1294.38 32.5493 1294.59 32.336C1294.82 32.112 1295.17 32 1295.65 32ZM1300.84 44.192C1300.03 44.192 1299.35 44.064 1298.79 43.808C1298.24 43.5413 1297.74 43.168 1297.31 42.688L1298.7 41.28C1299 41.6107 1299.33 41.872 1299.69 42.064C1300.05 42.256 1300.46 42.352 1300.92 42.352C1301.39 42.352 1301.72 42.2827 1301.9 42.144C1302.08 41.9947 1302.17 41.7973 1302.17 41.552C1302.17 41.1573 1301.89 40.9227 1301.32 40.848L1300.41 40.736C1298.52 40.5013 1297.58 39.6373 1297.58 38.144C1297.58 37.7387 1297.65 37.3707 1297.8 37.04C1297.96 36.6987 1298.18 36.4107 1298.46 36.176C1298.75 35.9307 1299.09 35.744 1299.48 35.616C1299.89 35.4773 1300.34 35.408 1300.84 35.408C1301.28 35.408 1301.66 35.44 1301.99 35.504C1302.34 35.5573 1302.63 35.6427 1302.89 35.76C1303.16 35.8667 1303.4 36.0053 1303.61 36.176C1303.83 36.336 1304.05 36.5173 1304.27 36.72L1302.91 38.112C1302.64 37.8453 1302.34 37.6373 1301.99 37.488C1301.66 37.328 1301.32 37.248 1300.97 37.248C1300.57 37.248 1300.28 37.312 1300.11 37.44C1299.94 37.568 1299.85 37.7387 1299.85 37.952C1299.85 38.176 1299.91 38.352 1300.03 38.48C1300.15 38.5973 1300.39 38.6827 1300.73 38.736L1301.67 38.864C1303.52 39.1093 1304.44 39.952 1304.44 41.392C1304.44 41.7973 1304.36 42.1707 1304.19 42.512C1304.02 42.8533 1303.77 43.152 1303.45 43.408C1303.14 43.6533 1302.76 43.8453 1302.31 43.984C1301.88 44.1227 1301.39 44.192 1300.84 44.192ZM1310.25 37.44H1309.07V35.6H1310.25V34.608C1310.25 33.7973 1310.47 33.1893 1310.89 32.784C1311.32 32.368 1311.95 32.16 1312.77 32.16H1314.3V34H1312.62V35.6H1314.3V37.44H1312.62V44H1310.25V37.44ZM1315.62 44V35.6H1317.99V37.424H1318.07C1318.11 37.1893 1318.18 36.9653 1318.29 36.752C1318.4 36.528 1318.54 36.3307 1318.71 36.16C1318.89 35.9893 1319.1 35.856 1319.35 35.76C1319.59 35.6533 1319.88 35.6 1320.21 35.6H1320.63V37.808H1320.04C1319.34 37.808 1318.82 37.8987 1318.48 38.08C1318.15 38.2613 1317.99 38.5973 1317.99 39.088V44H1315.62ZM1325.51 44.192C1324.87 44.192 1324.3 44.0907 1323.8 43.888C1323.3 43.6747 1322.87 43.3813 1322.52 43.008C1322.18 42.624 1321.92 42.16 1321.74 41.616C1321.57 41.072 1321.48 40.464 1321.48 39.792C1321.48 39.1307 1321.57 38.5333 1321.74 38C1321.91 37.456 1322.16 36.992 1322.49 36.608C1322.83 36.224 1323.25 35.9307 1323.74 35.728C1324.23 35.5147 1324.79 35.408 1325.42 35.408C1326.11 35.408 1326.7 35.5253 1327.19 35.76C1327.7 35.9947 1328.1 36.3093 1328.41 36.704C1328.73 37.0987 1328.96 37.5573 1329.1 38.08C1329.25 38.592 1329.32 39.1307 1329.32 39.696V40.4H1323.93V40.528C1323.93 41.0827 1324.08 41.5253 1324.38 41.856C1324.68 42.176 1325.15 42.336 1325.79 42.336C1326.28 42.336 1326.68 42.24 1326.99 42.048C1327.3 41.8453 1327.58 41.6053 1327.85 41.328L1329.03 42.8C1328.66 43.2373 1328.17 43.5787 1327.56 43.824C1326.96 44.0693 1326.28 44.192 1325.51 44.192ZM1325.47 37.152C1324.99 37.152 1324.61 37.312 1324.33 37.632C1324.06 37.9413 1323.93 38.3573 1323.93 38.88V39.008H1326.87V38.864C1326.87 38.352 1326.76 37.9413 1326.52 37.632C1326.3 37.312 1325.95 37.152 1325.47 37.152ZM1334.5 44.192C1333.86 44.192 1333.29 44.0907 1332.79 43.888C1332.29 43.6747 1331.86 43.3813 1331.51 43.008C1331.17 42.624 1330.9 42.16 1330.72 41.616C1330.55 41.072 1330.47 40.464 1330.47 39.792C1330.47 39.1307 1330.55 38.5333 1330.72 38C1330.89 37.456 1331.14 36.992 1331.47 36.608C1331.82 36.224 1332.23 35.9307 1332.72 35.728C1333.21 35.5147 1333.77 35.408 1334.4 35.408C1335.1 35.408 1335.69 35.5253 1336.18 35.76C1336.68 35.9947 1337.09 36.3093 1337.39 36.704C1337.71 37.0987 1337.94 37.5573 1338.08 38.08C1338.23 38.592 1338.31 39.1307 1338.31 39.696V40.4H1332.91V40.528C1332.91 41.0827 1333.06 41.5253 1333.36 41.856C1333.66 42.176 1334.13 42.336 1334.77 42.336C1335.26 42.336 1335.66 42.24 1335.97 42.048C1336.28 41.8453 1336.57 41.6053 1336.83 41.328L1338.02 42.8C1337.65 43.2373 1337.15 43.5787 1336.55 43.824C1335.95 44.0693 1335.27 44.192 1334.5 44.192ZM1334.45 37.152C1333.97 37.152 1333.59 37.312 1333.31 37.632C1333.05 37.9413 1332.91 38.3573 1332.91 38.88V39.008H1335.86V38.864C1335.86 38.352 1335.74 37.9413 1335.51 37.632C1335.28 37.312 1334.93 37.152 1334.45 37.152ZM1340.96 40.48L1340.2 35.936V32.832H1342.7V35.936L1341.96 40.48H1340.96ZM1341.44 44.192C1340.92 44.192 1340.56 44.0747 1340.33 43.84C1340.12 43.6053 1340.01 43.3173 1340.01 42.976V42.592C1340.01 42.2507 1340.12 41.9627 1340.33 41.728C1340.56 41.4933 1340.92 41.376 1341.44 41.376C1341.95 41.376 1342.31 41.4933 1342.52 41.728C1342.75 41.9627 1342.86 42.2507 1342.86 42.592V42.976C1342.86 43.3173 1342.75 43.6053 1342.52 43.84C1342.31 44.0747 1341.95 44.192 1341.44 44.192Z" fill="#2F6CE5"/>
<g clip-path="url(#clip2_1_784)">
<path d="M1351 36L1356 41L1361 36H1351Z" fill="#2E2E2E"/>
</g>
<defs>
<filter id="filter0_d_1_784" x="-2" y="-1" width="1444" height="76" filterUnits="userSpaceOnUse" color-interpolation-filters="sRGB">
<feFlood flood-opacity="0" result="BackgroundImageFix"/>
<feColorMatrix in="SourceAlpha" type="matrix" values="0 0 0 0 0 0 0 0 0 0 0 0 0 0 0 0 0 0 127 0" result="hardAlpha"/>
<feOffset dy="1"/>
<feGaussianBlur stdDeviation="1"/>
<feColorMatrix type="matrix" values="0 0 0 0 0 0 0 0 0 0 0 0 0 0 0 0 0 0 0.12 0"/>
<feBlend mode="normal" in2="BackgroundImageFix" result="effect1_dropShadow_1_784"/>
<feBlend mode="normal" in="SourceGraphic" in2="effect1_dropShadow_1_784" result="shape"/>
</filter>
<linearGradient id="paint0_linear_1_784" x1="156.79" y1="34.464" x2="168.791" y2="47.9906" gradientUnits="userSpaceOnUse">
<stop stop-color="#00A854"/>
<stop offset="1" stop-color="#004D25"/>
</linearGradient>
<clipPath id="clip0_1_784">
<rect width="162.566" height="24" fill="white" transform="translate(72 24)"/>
</clipPath>
<clipPath id="clip1_1_784">
<rect width="22" height="22" fill="white" transform="translate(554 26)"/>
</clipPath>
<clipPath id="clip2_1_784">
<rect width="24" height="24" fill="white" transform="translate(1344 26)"/>
</clipPath>
</defs>
</svg>
