<svg width="243" height="32" viewBox="0 0 243 32" fill="none" xmlns="http://www.w3.org/2000/svg">
<path opacity="0.5" d="M27.044 13V9.652L29.96 4.624H28.808L26.576 8.656H26.54L24.308 4.624H23.156L26.036 9.688V13H27.044ZM32.8756 13.144C34.5316 13.144 35.6716 11.872 35.6716 9.904C35.6716 7.936 34.5316 6.664 32.8756 6.664C31.2196 6.664 30.0796 7.936 30.0796 9.904C30.0796 11.872 31.2196 13.144 32.8756 13.144ZM32.8756 12.292C31.8436 12.292 31.1116 11.656 31.1116 10.348V9.46C31.1116 8.152 31.8436 7.516 32.8756 7.516C33.9076 7.516 34.6396 8.152 34.6396 9.46V10.348C34.6396 11.656 33.9076 12.292 32.8756 12.292ZM41.0665 13H42.0265V6.808H41.0665V11.092C41.0665 11.908 40.3225 12.28 39.5665 12.28C38.6425 12.28 38.1505 11.716 38.1505 10.612V6.808H37.1905V10.78C37.1905 12.28 38.0065 13.144 39.2785 13.144C40.3105 13.144 40.7785 12.58 41.0185 11.992H41.0665V13ZM45.0308 13V8.8C45.0308 8.212 45.6548 7.768 46.6868 7.768H47.2508V6.808H46.8788C45.8708 6.808 45.3068 7.36 45.0908 7.948H45.0308V6.808H44.0708V13H45.0308ZM53.185 13V12.16H52.273V4.12H51.313V12.004C51.313 12.58 51.673 13 52.333 13H53.185ZM56.9225 13.144C58.5785 13.144 59.7185 11.872 59.7185 9.904C59.7185 7.936 58.5785 6.664 56.9225 6.664C55.2665 6.664 54.1265 7.936 54.1265 9.904C54.1265 11.872 55.2665 13.144 56.9225 13.144ZM56.9225 12.292C55.8905 12.292 55.1585 11.656 55.1585 10.348V9.46C55.1585 8.152 55.8905 7.516 56.9225 7.516C57.9545 7.516 58.6865 8.152 58.6865 9.46V10.348C58.6865 11.656 57.9545 12.292 56.9225 12.292ZM63.6013 13.144C64.7773 13.144 65.5813 12.568 65.9773 11.68L65.2813 11.212C64.9453 11.92 64.3813 12.292 63.6013 12.292C62.4613 12.292 61.8733 11.512 61.8733 10.432V9.376C61.8733 8.296 62.4613 7.516 63.6013 7.516C64.3573 7.516 64.8853 7.888 65.1133 8.524L65.9173 8.116C65.5573 7.264 64.8253 6.664 63.6013 6.664C61.8613 6.664 60.8413 7.924 60.8413 9.904C60.8413 11.884 61.8613 13.144 63.6013 13.144ZM72.3725 13V12.16H71.6645V8.752C71.6645 7.444 70.7765 6.664 69.2885 6.664C68.1725 6.664 67.4285 7.216 67.0925 7.876L67.6685 8.416C68.0045 7.852 68.4965 7.492 69.2405 7.492C70.2245 7.492 70.7045 7.972 70.7045 8.848V9.46H69.4805C67.6805 9.46 66.8405 10.108 66.8405 11.272C66.8405 12.424 67.6085 13.144 68.9165 13.144C69.7805 13.144 70.4405 12.748 70.7045 11.992H70.7645C70.8365 12.568 71.1245 13 71.8325 13H72.3725ZM69.0725 12.328C68.3285 12.328 67.8485 11.98 67.8485 11.368V11.116C67.8485 10.516 68.3405 10.18 69.4325 10.18H70.7045V11.2C70.7045 11.836 70.0205 12.328 69.0725 12.328ZM76.3107 13V12.16H75.0507V7.648H76.4067V6.808H75.0507V5.092H74.1867V6.244C74.1867 6.664 74.0547 6.808 73.6467 6.808H73.0707V7.648H74.0907V11.98C74.0907 12.58 74.4507 13 75.1107 13H76.3107ZM78.4297 5.356C78.8377 5.356 79.0177 5.14 79.0177 4.816V4.66C79.0177 4.336 78.8377 4.12 78.4297 4.12C78.0217 4.12 77.8417 4.336 77.8417 4.66V4.816C77.8417 5.14 78.0217 5.356 78.4297 5.356ZM77.9497 13H78.9097V6.808H77.9497V13ZM83.2897 13.144C84.9457 13.144 86.0857 11.872 86.0857 9.904C86.0857 7.936 84.9457 6.664 83.2897 6.664C81.6337 6.664 80.4937 7.936 80.4937 9.904C80.4937 11.872 81.6337 13.144 83.2897 13.144ZM83.2897 12.292C82.2577 12.292 81.5257 11.656 81.5257 10.348V9.46C81.5257 8.152 82.2577 7.516 83.2897 7.516C84.3217 7.516 85.0537 8.152 85.0537 9.46V10.348C85.0537 11.656 84.3217 12.292 83.2897 12.292ZM88.6245 13V8.704C88.6245 7.912 89.3685 7.528 90.1365 7.528C91.0605 7.528 91.5405 8.092 91.5405 9.196V13H92.5005V9.028C92.5005 7.528 91.6965 6.664 90.4245 6.664C89.5005 6.664 88.9725 7.12 88.6725 7.816H88.6245V6.808H87.6645V13H88.6245ZM98.3288 13H99.4928L100.357 10.024L100.885 8.14H100.909L101.449 10.024L102.313 13H103.501L105.145 6.808H104.245L103.573 9.484L102.937 12.196H102.913L102.145 9.484L101.341 6.808H100.489L99.7088 9.484L98.9528 12.196H98.9288L98.2688 9.484L97.6088 6.808H96.6728L98.3288 13ZM107.012 5.356C107.42 5.356 107.6 5.14 107.6 4.816V4.66C107.6 4.336 107.42 4.12 107.012 4.12C106.604 4.12 106.424 4.336 106.424 4.66V4.816C106.424 5.14 106.604 5.356 107.012 5.356ZM106.532 13H107.492V6.808H106.532V13ZM111.404 13V12.16H110.492V4.12H109.532V12.004C109.532 12.58 109.892 13 110.552 13H111.404ZM114.615 13V12.16H113.703V4.12H112.743V12.004C112.743 12.58 113.103 13 113.763 13H114.615ZM118.848 13H119.808V8.704C119.808 7.912 120.552 7.528 121.32 7.528C122.244 7.528 122.724 8.092 122.724 9.196V13H123.684V9.028C123.684 7.528 122.88 6.664 121.608 6.664C120.684 6.664 120.156 7.12 119.856 7.816H119.808V4.12H118.848V13ZM127.996 13.144C129.16 13.144 130.048 12.568 130.444 11.728L129.76 11.236C129.436 11.92 128.836 12.304 128.056 12.304C126.904 12.304 126.22 11.5 126.22 10.432V10.144H130.672V9.688C130.672 7.936 129.652 6.664 127.996 6.664C126.316 6.664 125.212 7.936 125.212 9.904C125.212 11.872 126.316 13.144 127.996 13.144ZM127.996 7.468C128.98 7.468 129.64 8.2 129.64 9.292V9.424H126.22V9.34C126.22 8.26 126.952 7.468 127.996 7.468ZM134.126 13V12.16H133.214V4.12H132.254V12.004C132.254 12.58 132.614 13 133.274 13H134.126ZM135.524 15.4H136.484V11.992H136.532C136.904 12.76 137.492 13.144 138.344 13.144C139.892 13.144 140.864 11.884 140.864 9.904C140.864 7.924 139.892 6.664 138.344 6.664C137.492 6.664 136.856 7.036 136.532 7.816H136.484V6.808H135.524V15.4ZM138.08 12.28C137.204 12.28 136.484 11.824 136.484 11.02V8.716C136.484 8.032 137.204 7.528 138.08 7.528C139.16 7.528 139.832 8.272 139.832 9.376V10.432C139.832 11.536 139.16 12.28 138.08 12.28ZM149.137 13H150.097V6.808H149.137V11.092C149.137 11.908 148.393 12.28 147.637 12.28C146.713 12.28 146.221 11.716 146.221 10.612V6.808H145.261V10.78C145.261 12.28 146.077 13.144 147.349 13.144C148.381 13.144 148.849 12.58 149.089 11.992H149.137V13ZM154.001 13.144C155.417 13.144 156.293 12.412 156.293 11.212C156.293 10.276 155.765 9.676 154.397 9.472L153.917 9.4C153.149 9.28 152.729 9.04 152.729 8.44C152.729 7.852 153.149 7.48 153.941 7.48C154.733 7.48 155.261 7.852 155.537 8.236L156.173 7.66C155.669 7.036 155.009 6.664 154.013 6.664C152.753 6.664 151.805 7.264 151.805 8.488C151.805 9.64 152.657 10.108 153.797 10.276L154.289 10.348C155.105 10.468 155.369 10.84 155.369 11.32C155.369 11.956 154.889 12.328 154.073 12.328C153.293 12.328 152.717 11.98 152.237 11.38L151.553 11.932C152.105 12.664 152.861 13.144 154.001 13.144ZM162.685 13.144C164.101 13.144 164.977 12.412 164.977 11.212C164.977 10.276 164.449 9.676 163.081 9.472L162.601 9.4C161.833 9.28 161.413 9.04 161.413 8.44C161.413 7.852 161.833 7.48 162.625 7.48C163.417 7.48 163.945 7.852 164.221 8.236L164.857 7.66C164.353 7.036 163.693 6.664 162.697 6.664C161.437 6.664 160.489 7.264 160.489 8.488C160.489 9.64 161.341 10.108 162.481 10.276L162.973 10.348C163.789 10.468 164.053 10.84 164.053 11.32C164.053 11.956 163.573 12.328 162.757 12.328C161.977 12.328 161.401 11.98 160.921 11.38L160.237 11.932C160.789 12.664 161.545 13.144 162.685 13.144ZM169 13.144C170.164 13.144 171.052 12.568 171.448 11.728L170.764 11.236C170.44 11.92 169.84 12.304 169.06 12.304C167.908 12.304 167.224 11.5 167.224 10.432V10.144H171.676V9.688C171.676 7.936 170.656 6.664 169 6.664C167.32 6.664 166.216 7.936 166.216 9.904C166.216 11.872 167.32 13.144 169 13.144ZM169 7.468C169.984 7.468 170.644 8.2 170.644 9.292V9.424H167.224V9.34C167.224 8.26 167.956 7.468 169 7.468ZM174.218 13V8.8C174.218 8.212 174.842 7.768 175.874 7.768H176.438V6.808H176.066C175.058 6.808 174.494 7.36 174.278 7.948H174.218V6.808H173.258V13H174.218ZM180.266 13L182.45 6.808H181.526L180.422 9.88L179.75 11.992H179.69L179.018 9.88L177.938 6.808H176.978L179.15 13H180.266ZM185.922 13.144C187.086 13.144 187.974 12.568 188.37 11.728L187.686 11.236C187.362 11.92 186.762 12.304 185.982 12.304C184.83 12.304 184.146 11.5 184.146 10.432V10.144H188.598V9.688C188.598 7.936 187.578 6.664 185.922 6.664C184.242 6.664 183.138 7.936 183.138 9.904C183.138 11.872 184.242 13.144 185.922 13.144ZM185.922 7.468C186.906 7.468 187.566 8.2 187.566 9.292V9.424H184.146V9.34C184.146 8.26 184.878 7.468 185.922 7.468ZM193.016 13H193.976V11.992H194.024C194.396 12.76 194.984 13.144 195.836 13.144C197.384 13.144 198.356 11.884 198.356 9.904C198.356 7.924 197.384 6.664 195.836 6.664C194.984 6.664 194.348 7.036 194.024 7.816H193.976V4.12H193.016V13ZM195.572 12.28C194.696 12.28 193.976 11.824 193.976 11.02V8.716C193.976 8.032 194.696 7.528 195.572 7.528C196.652 7.528 197.324 8.272 197.324 9.376V10.432C197.324 11.536 196.652 12.28 195.572 12.28ZM202.305 13.144C203.469 13.144 204.357 12.568 204.753 11.728L204.069 11.236C203.745 11.92 203.145 12.304 202.365 12.304C201.213 12.304 200.529 11.5 200.529 10.432V10.144H204.981V9.688C204.981 7.936 203.961 6.664 202.305 6.664C200.625 6.664 199.521 7.936 199.521 9.904C199.521 11.872 200.625 13.144 202.305 13.144ZM202.305 7.468C203.289 7.468 203.949 8.2 203.949 9.292V9.424H200.529V9.34C200.529 8.26 201.261 7.468 202.305 7.468ZM209.131 13V12.16H207.871V7.648H209.227V6.808H207.871V5.092H207.007V6.244C207.007 6.664 206.875 6.808 206.467 6.808H205.891V7.648H206.911V11.98C206.911 12.58 207.271 13 207.931 13H209.131ZM213.233 13V12.16H211.973V7.648H213.329V6.808H211.973V5.092H211.109V6.244C211.109 6.664 210.977 6.808 210.569 6.808H209.993V7.648H211.013V11.98C211.013 12.58 211.373 13 212.033 13H213.233ZM217.153 13.144C218.317 13.144 219.205 12.568 219.601 11.728L218.917 11.236C218.593 11.92 217.993 12.304 217.213 12.304C216.061 12.304 215.377 11.5 215.377 10.432V10.144H219.829V9.688C219.829 7.936 218.809 6.664 217.153 6.664C215.473 6.664 214.369 7.936 214.369 9.904C214.369 11.872 215.473 13.144 217.153 13.144ZM217.153 7.468C218.137 7.468 218.797 8.2 218.797 9.292V9.424H215.377V9.34C215.377 8.26 216.109 7.468 217.153 7.468ZM222.371 13V8.8C222.371 8.212 222.995 7.768 224.027 7.768H224.591V6.808H224.219C223.211 6.808 222.647 7.36 222.431 7.948H222.371V6.808H221.411V13H222.371ZM29.06 29V28.16H28.352V24.752C28.352 23.444 27.464 22.664 25.976 22.664C24.86 22.664 24.116 23.216 23.78 23.876L24.356 24.416C24.692 23.852 25.184 23.492 25.928 23.492C26.912 23.492 27.392 23.972 27.392 24.848V25.46H26.168C24.368 25.46 23.528 26.108 23.528 27.272C23.528 28.424 24.296 29.144 25.604 29.144C26.468 29.144 27.128 28.748 27.392 27.992H27.452C27.524 28.568 27.812 29 28.52 29H29.06ZM25.76 28.328C25.016 28.328 24.536 27.98 24.536 27.368V27.116C24.536 26.516 25.028 26.18 26.12 26.18H27.392V27.2C27.392 27.836 26.708 28.328 25.76 28.328ZM31.3902 29V24.704C31.3902 23.912 32.1342 23.528 32.9022 23.528C33.8262 23.528 34.3062 24.092 34.3062 25.196V29H35.2662V25.028C35.2662 23.528 34.4622 22.664 33.1902 22.664C32.2662 22.664 31.7382 23.12 31.4382 23.816H31.3902V22.808H30.4302V29H31.3902ZM41.2105 29H42.1705V20.12H41.2105V23.816H41.1625C40.8385 23.036 40.2025 22.664 39.3505 22.664C37.8025 22.664 36.8305 23.924 36.8305 25.904C36.8305 27.884 37.8025 29.144 39.3505 29.144C40.2025 29.144 40.7905 28.76 41.1625 27.992H41.2105V29ZM39.6145 28.28C38.5345 28.28 37.8625 27.536 37.8625 26.432V25.376C37.8625 24.272 38.5345 23.528 39.6145 23.528C40.4905 23.528 41.2105 24.032 41.2105 24.716V27.02C41.2105 27.824 40.4905 28.28 39.6145 28.28ZM49.3753 29.144C50.5393 29.144 51.4273 28.568 51.8233 27.728L51.1393 27.236C50.8153 27.92 50.2153 28.304 49.4353 28.304C48.2833 28.304 47.5993 27.5 47.5993 26.432V26.144H52.0513V25.688C52.0513 23.936 51.0313 22.664 49.3753 22.664C47.6953 22.664 46.5913 23.936 46.5913 25.904C46.5913 27.872 47.6953 29.144 49.3753 29.144ZM49.3753 23.468C50.3593 23.468 51.0193 24.2 51.0193 25.292V25.424H47.5993V25.34C47.5993 24.26 48.3313 23.468 49.3753 23.468ZM52.7247 29H53.7927L55.5327 26.576H55.5687L57.1767 29H58.3047L56.0727 25.808L58.2567 22.808H57.1887L55.5567 25.112H55.5207L53.9487 22.808H52.8207L55.0167 25.88L52.7247 29ZM62.1427 29V28.16H60.8827V23.648H62.2387V22.808H60.8827V21.092H60.0187V22.244C60.0187 22.664 59.8867 22.808 59.4787 22.808H58.9027V23.648H59.9227V27.98C59.9227 28.58 60.2827 29 60.9427 29H62.1427ZM66.0628 29.144C67.2268 29.144 68.1148 28.568 68.5108 27.728L67.8268 27.236C67.5028 27.92 66.9028 28.304 66.1228 28.304C64.9708 28.304 64.2868 27.5 64.2868 26.432V26.144H68.7388V25.688C68.7388 23.936 67.7188 22.664 66.0628 22.664C64.3828 22.664 63.2788 23.936 63.2788 25.904C63.2788 27.872 64.3828 29.144 66.0628 29.144ZM66.0628 23.468C67.0468 23.468 67.7068 24.2 67.7068 25.292V25.424H64.2868V25.34C64.2868 24.26 65.0188 23.468 66.0628 23.468ZM71.2808 29V24.704C71.2808 23.912 72.0248 23.528 72.7928 23.528C73.7168 23.528 74.1968 24.092 74.1968 25.196V29H75.1568V25.028C75.1568 23.528 74.3528 22.664 73.0808 22.664C72.1568 22.664 71.6288 23.12 71.3288 23.816H71.2808V22.808H70.3208V29H71.2808ZM81.1011 29H82.0611V20.12H81.1011V23.816H81.0531C80.7291 23.036 80.0931 22.664 79.2411 22.664C77.6931 22.664 76.7211 23.924 76.7211 25.904C76.7211 27.884 77.6931 29.144 79.2411 29.144C80.0931 29.144 80.6811 28.76 81.0531 27.992H81.1011V29ZM79.5051 28.28C78.4251 28.28 77.7531 27.536 77.7531 26.432V25.376C77.7531 24.272 78.4251 23.528 79.5051 23.528C80.3811 23.528 81.1011 24.032 81.1011 24.716V27.02C81.1011 27.824 80.3811 28.28 79.5051 28.28ZM91.978 29V28.16H91.27V24.752C91.27 23.444 90.382 22.664 88.894 22.664C87.778 22.664 87.034 23.216 86.698 23.876L87.274 24.416C87.61 23.852 88.102 23.492 88.846 23.492C89.83 23.492 90.31 23.972 90.31 24.848V25.46H89.086C87.286 25.46 86.446 26.108 86.446 27.272C86.446 28.424 87.214 29.144 88.522 29.144C89.386 29.144 90.046 28.748 90.31 27.992H90.37C90.442 28.568 90.73 29 91.438 29H91.978ZM88.678 28.328C87.934 28.328 87.454 27.98 87.454 27.368V27.116C87.454 26.516 87.946 26.18 89.038 26.18H90.31V27.2C90.31 27.836 89.626 28.328 88.678 28.328ZM96.1841 31.4H97.1441V27.992H97.1921C97.5641 28.76 98.1521 29.144 99.0041 29.144C100.552 29.144 101.524 27.884 101.524 25.904C101.524 23.924 100.552 22.664 99.0041 22.664C98.1521 22.664 97.5161 23.036 97.1921 23.816H97.1441V22.808H96.1841V31.4ZM98.7401 28.28C97.8641 28.28 97.1441 27.824 97.1441 27.02V24.716C97.1441 24.032 97.8641 23.528 98.7401 23.528C99.8201 23.528 100.492 24.272 100.492 25.376V26.432C100.492 27.536 99.8201 28.28 98.7401 28.28ZM105.473 29.144C106.637 29.144 107.525 28.568 107.921 27.728L107.237 27.236C106.913 27.92 106.313 28.304 105.533 28.304C104.381 28.304 103.697 27.5 103.697 26.432V26.144H108.149V25.688C108.149 23.936 107.129 22.664 105.473 22.664C103.793 22.664 102.689 23.936 102.689 25.904C102.689 27.872 103.793 29.144 105.473 29.144ZM105.473 23.468C106.457 23.468 107.117 24.2 107.117 25.292V25.424H103.697V25.34C103.697 24.26 104.429 23.468 105.473 23.468ZM110.691 29V24.8C110.691 24.212 111.315 23.768 112.347 23.768H112.911V22.808H112.539C111.531 22.808 110.967 23.36 110.751 23.948H110.691V22.808H109.731V29H110.691ZM115.997 29.144C117.413 29.144 118.289 28.412 118.289 27.212C118.289 26.276 117.761 25.676 116.393 25.472L115.913 25.4C115.145 25.28 114.725 25.04 114.725 24.44C114.725 23.852 115.145 23.48 115.937 23.48C116.729 23.48 117.257 23.852 117.533 24.236L118.169 23.66C117.665 23.036 117.005 22.664 116.009 22.664C114.749 22.664 113.801 23.264 113.801 24.488C113.801 25.64 114.653 26.108 115.793 26.276L116.285 26.348C117.101 26.468 117.365 26.84 117.365 27.32C117.365 27.956 116.885 28.328 116.069 28.328C115.289 28.328 114.713 27.98 114.233 27.38L113.549 27.932C114.101 28.664 114.857 29.144 115.997 29.144ZM122.325 29.144C123.981 29.144 125.121 27.872 125.121 25.904C125.121 23.936 123.981 22.664 122.325 22.664C120.669 22.664 119.529 23.936 119.529 25.904C119.529 27.872 120.669 29.144 122.325 29.144ZM122.325 28.292C121.293 28.292 120.561 27.656 120.561 26.348V25.46C120.561 24.152 121.293 23.516 122.325 23.516C123.357 23.516 124.089 24.152 124.089 25.46V26.348C124.089 27.656 123.357 28.292 122.325 28.292ZM127.66 29V24.704C127.66 23.912 128.404 23.528 129.172 23.528C130.096 23.528 130.576 24.092 130.576 25.196V29H131.536V25.028C131.536 23.528 130.732 22.664 129.46 22.664C128.536 22.664 128.008 23.12 127.708 23.816H127.66V22.808H126.7V29H127.66ZM138.56 29V28.16H137.852V24.752C137.852 23.444 136.964 22.664 135.476 22.664C134.36 22.664 133.616 23.216 133.28 23.876L133.856 24.416C134.192 23.852 134.684 23.492 135.428 23.492C136.412 23.492 136.892 23.972 136.892 24.848V25.46H135.668C133.868 25.46 133.028 26.108 133.028 27.272C133.028 28.424 133.796 29.144 135.104 29.144C135.968 29.144 136.628 28.748 136.892 27.992H136.952C137.024 28.568 137.312 29 138.02 29H138.56ZM135.26 28.328C134.516 28.328 134.036 27.98 134.036 27.368V27.116C134.036 26.516 134.528 26.18 135.62 26.18H136.892V27.2C136.892 27.836 136.208 28.328 135.26 28.328ZM141.802 29V28.16H140.89V20.12H139.93V28.004C139.93 28.58 140.29 29 140.95 29H141.802ZM143.68 21.356C144.088 21.356 144.268 21.14 144.268 20.816V20.66C144.268 20.336 144.088 20.12 143.68 20.12C143.272 20.12 143.092 20.336 143.092 20.66V20.816C143.092 21.14 143.272 21.356 143.68 21.356ZM143.2 29H144.16V22.808H143.2V29ZM148.06 29.144C149.476 29.144 150.352 28.412 150.352 27.212C150.352 26.276 149.824 25.676 148.456 25.472L147.976 25.4C147.208 25.28 146.788 25.04 146.788 24.44C146.788 23.852 147.208 23.48 148 23.48C148.792 23.48 149.32 23.852 149.596 24.236L150.232 23.66C149.728 23.036 149.068 22.664 148.072 22.664C146.812 22.664 145.864 23.264 145.864 24.488C145.864 25.64 146.716 26.108 147.856 26.276L148.348 26.348C149.164 26.468 149.428 26.84 149.428 27.32C149.428 27.956 148.948 28.328 148.132 28.328C147.352 28.328 146.776 27.98 146.296 27.38L145.612 27.932C146.164 28.664 146.92 29.144 148.06 29.144ZM154.375 29.144C155.539 29.144 156.427 28.568 156.823 27.728L156.139 27.236C155.815 27.92 155.215 28.304 154.435 28.304C153.283 28.304 152.599 27.5 152.599 26.432V26.144H157.051V25.688C157.051 23.936 156.031 22.664 154.375 22.664C152.695 22.664 151.591 23.936 151.591 25.904C151.591 27.872 152.695 29.144 154.375 29.144ZM154.375 23.468C155.359 23.468 156.019 24.2 156.019 25.292V25.424H152.599V25.34C152.599 24.26 153.331 23.468 154.375 23.468ZM162.593 29H163.553V20.12H162.593V23.816H162.545C162.221 23.036 161.585 22.664 160.733 22.664C159.185 22.664 158.213 23.924 158.213 25.904C158.213 27.884 159.185 29.144 160.733 29.144C161.585 29.144 162.173 28.76 162.545 27.992H162.593V29ZM160.997 28.28C159.917 28.28 159.245 27.536 159.245 26.432V25.376C159.245 24.272 159.917 23.528 160.997 23.528C161.873 23.528 162.593 24.032 162.593 24.716V27.02C162.593 27.824 161.873 28.28 160.997 28.28ZM170.758 29.144C171.922 29.144 172.81 28.568 173.206 27.728L172.522 27.236C172.198 27.92 171.598 28.304 170.818 28.304C169.666 28.304 168.982 27.5 168.982 26.432V26.144H173.434V25.688C173.434 23.936 172.414 22.664 170.758 22.664C169.078 22.664 167.974 23.936 167.974 25.904C167.974 27.872 169.078 29.144 170.758 29.144ZM170.758 23.468C171.742 23.468 172.402 24.2 172.402 25.292V25.424H168.982V25.34C168.982 24.26 169.714 23.468 170.758 23.468ZM174.107 29H175.175L176.915 26.576H176.951L178.559 29H179.687L177.455 25.808L179.639 22.808H178.571L176.939 25.112H176.903L175.331 22.808H174.203L176.399 25.88L174.107 29ZM180.958 31.4H181.918V27.992H181.966C182.338 28.76 182.926 29.144 183.778 29.144C185.326 29.144 186.298 27.884 186.298 25.904C186.298 23.924 185.326 22.664 183.778 22.664C182.926 22.664 182.29 23.036 181.966 23.816H181.918V22.808H180.958V31.4ZM183.514 28.28C182.638 28.28 181.918 27.824 181.918 27.02V24.716C181.918 24.032 182.638 23.528 183.514 23.528C184.594 23.528 185.266 24.272 185.266 25.376V26.432C185.266 27.536 184.594 28.28 183.514 28.28ZM190.246 29.144C191.41 29.144 192.298 28.568 192.694 27.728L192.01 27.236C191.686 27.92 191.086 28.304 190.306 28.304C189.154 28.304 188.47 27.5 188.47 26.432V26.144H192.922V25.688C192.922 23.936 191.902 22.664 190.246 22.664C188.566 22.664 187.462 23.936 187.462 25.904C187.462 27.872 188.566 29.144 190.246 29.144ZM190.246 23.468C191.23 23.468 191.89 24.2 191.89 25.292V25.424H188.47V25.34C188.47 24.26 189.202 23.468 190.246 23.468ZM195.464 29V24.8C195.464 24.212 196.088 23.768 197.12 23.768H197.684V22.808H197.312C196.304 22.808 195.74 23.36 195.524 23.948H195.464V22.808H194.504V29H195.464ZM199.391 21.356C199.799 21.356 199.979 21.14 199.979 20.816V20.66C199.979 20.336 199.799 20.12 199.391 20.12C198.983 20.12 198.803 20.336 198.803 20.66V20.816C198.803 21.14 198.983 21.356 199.391 21.356ZM198.911 29H199.871V22.808H198.911V29ZM204.239 29.144C205.403 29.144 206.291 28.568 206.687 27.728L206.003 27.236C205.679 27.92 205.079 28.304 204.299 28.304C203.147 28.304 202.463 27.5 202.463 26.432V26.144H206.915V25.688C206.915 23.936 205.895 22.664 204.239 22.664C202.559 22.664 201.455 23.936 201.455 25.904C201.455 27.872 202.559 29.144 204.239 29.144ZM204.239 23.468C205.223 23.468 205.883 24.2 205.883 25.292V25.424H202.463V25.34C202.463 24.26 203.195 23.468 204.239 23.468ZM209.457 29V24.704C209.457 23.912 210.201 23.528 210.969 23.528C211.893 23.528 212.373 24.092 212.373 25.196V29H213.333V25.028C213.333 23.528 212.529 22.664 211.257 22.664C210.333 22.664 209.805 23.12 209.505 23.816H209.457V22.808H208.497V29H209.457ZM217.621 29.144C218.797 29.144 219.601 28.568 219.997 27.68L219.301 27.212C218.965 27.92 218.401 28.292 217.621 28.292C216.481 28.292 215.893 27.512 215.893 26.432V25.376C215.893 24.296 216.481 23.516 217.621 23.516C218.377 23.516 218.905 23.888 219.133 24.524L219.937 24.116C219.577 23.264 218.845 22.664 217.621 22.664C215.881 22.664 214.861 23.924 214.861 25.904C214.861 27.884 215.881 29.144 217.621 29.144ZM223.61 29.144C224.774 29.144 225.662 28.568 226.058 27.728L225.374 27.236C225.05 27.92 224.45 28.304 223.67 28.304C222.518 28.304 221.834 27.5 221.834 26.432V26.144H226.286V25.688C226.286 23.936 225.266 22.664 223.61 22.664C221.93 22.664 220.826 23.936 220.826 25.904C220.826 27.872 221.93 29.144 223.61 29.144ZM223.61 23.468C224.594 23.468 225.254 24.2 225.254 25.292V25.424H221.834V25.34C221.834 24.26 222.566 23.468 223.61 23.468ZM228.245 29.144C228.749 29.144 228.977 28.856 228.977 28.448V28.292C228.977 27.884 228.749 27.596 228.245 27.596C227.741 27.596 227.513 27.884 227.513 28.292V28.448C227.513 28.856 227.741 29.144 228.245 29.144Z" fill="black"/>
<g opacity="0.5" clip-path="url(#clip0_1_851)">
<path d="M7.33337 11H8.66671V12.3334H7.33337V11ZM7.33337 5.66671H8.66671V9.66671H7.33337V5.66671ZM7.99337 2.33337C4.31337 2.33337 1.33337 5.32004 1.33337 9.00004C1.33337 12.68 4.31337 15.6667 7.99337 15.6667C11.68 15.6667 14.6667 12.68 14.6667 9.00004C14.6667 5.32004 11.68 2.33337 7.99337 2.33337ZM8.00004 14.3334C5.05337 14.3334 2.66671 11.9467 2.66671 9.00004C2.66671 6.05337 5.05337 3.66671 8.00004 3.66671C10.9467 3.66671 13.3334 6.05337 13.3334 9.00004C13.3334 11.9467 10.9467 14.3334 8.00004 14.3334Z" fill="black"/>
</g>
<defs>
<clipPath id="clip0_1_851">
<rect width="16" height="16" fill="white" transform="translate(0 1)"/>
</clipPath>
</defs>
</svg>
