<svg width="125" height="36" viewBox="0 0 125 36" fill="none" xmlns="http://www.w3.org/2000/svg">
<rect width="125" height="36" rx="4" fill="#2F6CE5"/>
<path d="M39.62 13.53V14.94H43.04V20.97C43.04 22.11 42.455 22.665 41.555 22.665C40.64 22.665 40.145 22.095 39.965 21.21L38.405 21.555C38.69 23.115 39.74 24.18 41.555 24.18C43.49 24.18 44.735 22.98 44.735 21.15V13.53H39.62ZM50.1988 24.18C52.3738 24.18 53.7838 22.59 53.7838 20.1C53.7838 17.61 52.3738 16.02 50.1988 16.02C48.0238 16.02 46.6138 17.61 46.6138 20.1C46.6138 22.59 48.0238 24.18 50.1988 24.18ZM50.1988 22.83C49.0888 22.83 48.3388 22.14 48.3388 20.76V19.44C48.3388 18.06 49.0888 17.37 50.1988 17.37C51.3088 17.37 52.0588 18.06 52.0588 19.44V20.76C52.0588 22.14 51.3088 22.83 50.1988 22.83ZM56.4305 14.805C57.1055 14.805 57.3905 14.445 57.3905 13.95V13.695C57.3905 13.2 57.1055 12.84 56.4305 12.84C55.7555 12.84 55.4555 13.2 55.4555 13.695V13.95C55.4555 14.445 55.7555 14.805 56.4305 14.805ZM55.6055 24H57.2405V16.2H55.6055V24ZM61.2103 24V18.78C61.2103 17.865 62.0503 17.43 62.9053 17.43C63.9103 17.43 64.3753 18.045 64.3753 19.26V24H66.0103V19.05C66.0103 17.13 65.0653 16.02 63.4753 16.02C62.2753 16.02 61.6153 16.65 61.2853 17.49H61.2103V16.2H59.5753V24H61.2103ZM78.6764 24H80.1614V18.42H76.3664V19.875H78.5264V20.685C78.5264 21.99 77.3714 22.665 76.0514 22.665C74.4014 22.665 73.2914 21.54 73.2914 19.62V17.91C73.2914 15.99 74.4014 14.865 76.0514 14.865C77.3264 14.865 78.1664 15.54 78.5714 16.515L79.9514 15.705C79.2314 14.235 77.9264 13.35 76.0514 13.35C73.3064 13.35 71.4764 15.27 71.4764 18.765C71.4764 22.275 73.3064 24.18 75.7964 24.18C77.3864 24.18 78.4064 23.415 78.6164 22.41H78.6764V24ZM84.0325 24V19.02C84.0325 18.21 84.7525 17.775 86.0425 17.775H86.6875V16.2H86.2525C85.0075 16.2 84.3325 16.905 84.1075 17.7H84.0325V16.2H82.3975V24H84.0325ZM91.1265 24.18C93.3015 24.18 94.7115 22.59 94.7115 20.1C94.7115 17.61 93.3015 16.02 91.1265 16.02C88.9515 16.02 87.5415 17.61 87.5415 20.1C87.5415 22.59 88.9515 24.18 91.1265 24.18ZM91.1265 22.83C90.0165 22.83 89.2665 22.14 89.2665 20.76V19.44C89.2665 18.06 90.0165 17.37 91.1265 17.37C92.2365 17.37 92.9865 18.06 92.9865 19.44V20.76C92.9865 22.14 92.2365 22.83 91.1265 22.83ZM101.258 24H102.893V16.2H101.258V21.42C101.258 22.335 100.433 22.77 99.5933 22.77C98.5883 22.77 98.0933 22.14 98.0933 20.955V16.2H96.4583V21.165C96.4583 23.085 97.4033 24.18 99.0083 24.18C100.298 24.18 100.913 23.475 101.198 22.71H101.258V24ZM105.234 27H106.869V22.71H106.944C107.274 23.625 108.099 24.18 109.134 24.18C111.099 24.18 112.239 22.665 112.239 20.1C112.239 17.535 111.099 16.02 109.134 16.02C108.099 16.02 107.274 16.56 106.944 17.49H106.869V16.2H105.234V27ZM108.639 22.77C107.649 22.77 106.869 22.23 106.869 21.435V18.765C106.869 17.97 107.649 17.43 108.639 17.43C109.764 17.43 110.514 18.225 110.514 19.425V20.775C110.514 21.975 109.764 22.77 108.639 22.77Z" fill="white"/>
<g clip-path="url(#clip0_1_856)">
<path d="M17.3333 16.1667H14.5833V13.4167H12.75V16.1667H10V18H12.75V20.75H14.5833V18H17.3333V16.1667ZM26.5 17.0834C28.0217 17.0834 29.2408 15.855 29.2408 14.3334C29.2408 12.8117 28.0217 11.5834 26.5 11.5834C26.2067 11.5834 25.9225 11.6292 25.6658 11.7117C26.1883 12.4542 26.4908 13.3525 26.4908 14.3334C26.4908 15.3142 26.1792 16.2034 25.6658 16.955C25.9225 17.0375 26.2067 17.0834 26.5 17.0834ZM21.9167 17.0834C23.4383 17.0834 24.6575 15.855 24.6575 14.3334C24.6575 12.8117 23.4383 11.5834 21.9167 11.5834C20.395 11.5834 19.1667 12.8117 19.1667 14.3334C19.1667 15.855 20.395 17.0834 21.9167 17.0834ZM27.985 19.0634C28.7458 19.7325 29.25 20.585 29.25 21.6667V23.5H32V21.6667C32 20.255 29.8275 19.3842 27.985 19.0634ZM21.9167 18.9167C20.0833 18.9167 16.4167 19.8334 16.4167 21.6667V23.5H27.4167V21.6667C27.4167 19.8334 23.75 18.9167 21.9167 18.9167Z" fill="white"/>
</g>
<defs>
<clipPath id="clip0_1_856">
<rect width="22" height="22" fill="white" transform="translate(10 7)"/>
</clipPath>
</defs>
</svg>
