<svg width="182" height="13" viewBox="0 0 182 13" fill="none" xmlns="http://www.w3.org/2000/svg">
<path d="M5.64613 12.192C7.58213 12.192 8.92613 11.216 9.67813 9.6L8.22213 8.72C7.82213 9.808 6.97413 10.576 5.64613 10.576C3.93413 10.576 2.87813 9.328 2.87813 7.264V5.568C2.87813 3.504 3.93413 2.256 5.64613 2.256C6.94213 2.256 7.72613 2.944 8.11013 4L9.63013 3.168C8.87813 1.504 7.58213 0.639999 5.64613 0.639999C2.73413 0.639999 0.958125 2.672 0.958125 6.416C0.958125 10.16 2.73413 12.192 5.64613 12.192ZM13.2108 12V6.688C13.2108 5.824 13.9788 5.36 15.3548 5.36H16.0428V3.68H15.5788C14.2508 3.68 13.5308 4.432 13.2908 5.28H13.2108V3.68H11.4668V12H13.2108ZM20.7776 12.192C22.3296 12.192 23.5456 11.52 24.1696 10.512L23.1456 9.504C22.6656 10.272 21.9776 10.752 20.9536 10.752C19.5456 10.752 18.7616 9.84 18.7616 8.56V8.288H24.4736V7.632C24.4736 5.328 23.2256 3.488 20.7776 3.488C18.4096 3.488 16.9536 5.184 16.9536 7.84C16.9536 10.496 18.4096 12.192 20.7776 12.192ZM20.7776 4.848C21.9296 4.848 22.6336 5.696 22.6336 6.976V7.136H18.7616V7.024C18.7616 5.744 19.5776 4.848 20.7776 4.848ZM33.4763 12V10.576H32.5963V6.4C32.5963 4.544 31.3963 3.488 29.2523 3.488C27.6363 3.488 26.6603 4.176 26.1163 5.104L27.1562 6.048C27.5723 5.392 28.1643 4.912 29.1403 4.912C30.3083 4.912 30.8523 5.504 30.8523 6.512V7.216H29.3483C27.0283 7.216 25.7963 8.064 25.7963 9.712C25.7963 11.216 26.7723 12.192 28.4843 12.192C29.7003 12.192 30.5963 11.648 30.9163 10.608H30.9963C31.1083 11.424 31.5883 12 32.5003 12H33.4763ZM28.9803 10.864C28.1163 10.864 27.5723 10.48 27.5723 9.744V9.456C27.5723 8.736 28.1643 8.336 29.3802 8.336H30.8523V9.536C30.8523 10.352 30.0523 10.864 28.9803 10.864ZM38.9626 12V10.576H37.3466V5.104H39.0906V3.68H37.3466V1.408H35.7786V2.864C35.7786 3.44 35.5866 3.68 35.0106 3.68H34.3066V5.104H35.6026V10.192C35.6026 11.328 36.2426 12 37.4426 12H38.9626ZM44.1839 12.192C45.7359 12.192 46.9519 11.52 47.5759 10.512L46.5519 9.504C46.0719 10.272 45.3839 10.752 44.3599 10.752C42.9519 10.752 42.1679 9.84 42.1679 8.56V8.288H47.8799V7.632C47.8799 5.328 46.6319 3.488 44.1839 3.488C41.8159 3.488 40.3599 5.184 40.3599 7.84C40.3599 10.496 41.8159 12.192 44.1839 12.192ZM44.1839 4.848C45.3359 4.848 46.0399 5.696 46.0399 6.976V7.136H42.1679V7.024C42.1679 5.744 42.9839 4.848 44.1839 4.848ZM60.6638 12V10.576H59.7838V6.4C59.7838 4.544 58.5838 3.488 56.4398 3.488C54.8238 3.488 53.8478 4.176 53.3038 5.104L54.3438 6.048C54.7598 5.392 55.3518 4.912 56.3278 4.912C57.4958 4.912 58.0398 5.504 58.0398 6.512V7.216H56.5358C54.2158 7.216 52.9838 8.064 52.9838 9.712C52.9838 11.216 53.9598 12.192 55.6718 12.192C56.8878 12.192 57.7838 11.648 58.1038 10.608H58.1838C58.2958 11.424 58.7758 12 59.6878 12H60.6638ZM56.1678 10.864C55.3038 10.864 54.7598 10.48 54.7598 9.744V9.456C54.7598 8.736 55.3518 8.336 56.5677 8.336H58.0398V9.536C58.0398 10.352 57.2398 10.864 56.1678 10.864ZM65.589 12.192C67.189 12.192 68.325 11.44 68.869 10.08L67.541 9.376C67.189 10.208 66.597 10.752 65.589 10.752C64.309 10.752 63.653 9.872 63.653 8.592V7.104C63.653 5.824 64.309 4.944 65.589 4.944C66.533 4.944 67.125 5.44 67.365 6.208L68.805 5.536C68.309 4.304 67.253 3.488 65.589 3.488C63.189 3.488 61.813 5.184 61.813 7.84C61.813 10.496 63.189 12.192 65.589 12.192ZM73.6515 12.192C75.2515 12.192 76.3875 11.44 76.9315 10.08L75.6035 9.376C75.2515 10.208 74.6595 10.752 73.6515 10.752C72.3715 10.752 71.7155 9.872 71.7155 8.592V7.104C71.7155 5.824 72.3715 4.944 73.6515 4.944C74.5955 4.944 75.1875 5.44 75.4275 6.208L76.8675 5.536C76.3715 4.304 75.3155 3.488 73.6515 3.488C71.2515 3.488 69.8755 5.184 69.8755 7.84C69.8755 10.496 71.2515 12.192 73.6515 12.192ZM81.762 12.192C84.082 12.192 85.586 10.496 85.586 7.84C85.586 5.184 84.082 3.488 81.762 3.488C79.442 3.488 77.938 5.184 77.938 7.84C77.938 10.496 79.442 12.192 81.762 12.192ZM81.762 10.752C80.578 10.752 79.778 10.016 79.778 8.544V7.136C79.778 5.664 80.578 4.928 81.762 4.928C82.946 4.928 83.746 5.664 83.746 7.136V8.544C83.746 10.016 82.946 10.752 81.762 10.752ZM92.5693 12H94.3133V3.68H92.5693V9.248C92.5693 10.224 91.6893 10.688 90.7933 10.688C89.7213 10.688 89.1933 10.016 89.1933 8.752V3.68H87.4493V8.976C87.4493 11.024 88.4573 12.192 90.1693 12.192C91.5453 12.192 92.2013 11.44 92.5053 10.624H92.5693V12ZM98.5545 12V6.432C98.5545 5.456 99.4505 4.992 100.363 4.992C101.435 4.992 101.931 5.648 101.931 6.944V12H103.675V6.72C103.675 4.672 102.667 3.488 100.971 3.488C99.6905 3.488 98.9865 4.16 98.6345 5.056H98.5545V3.68H96.8105V12H98.5545ZM109.916 12V10.576H108.3V5.104H110.044V3.68H108.3V1.408H106.732V2.864C106.732 3.44 106.54 3.68 105.964 3.68H105.26V5.104H106.556V10.192C106.556 11.328 107.196 12 108.396 12H109.916ZM113.008 12.192C113.792 12.192 114.176 11.728 114.176 11.104V10.864C114.176 10.24 113.792 9.776 113.008 9.776C112.224 9.776 111.84 10.24 111.84 10.864V11.104C111.84 11.728 112.224 12.192 113.008 12.192Z" fill="#2E2E2E"/>
<path d="M119.909 12V10.064H121.349V2.768H119.909V0.832H125.221V2.768H123.781V10.064H125.221V12H119.909ZM130.064 12C129.242 12 128.618 11.792 128.192 11.376C127.776 10.96 127.568 10.352 127.568 9.552V5.44H126.384V3.6H126.976C127.296 3.6 127.514 3.52533 127.632 3.376C127.749 3.216 127.808 2.992 127.808 2.704V1.328H129.936V3.6H131.6V5.44H129.936V10.16H131.472V12H130.064ZM134.651 -9.53674e-07C135.131 -9.53674e-07 135.477 0.111999 135.691 0.335999C135.915 0.549333 136.027 0.821333 136.027 1.152V1.488C136.027 1.79733 135.979 2.112 135.883 2.432C135.797 2.74133 135.675 3.04 135.515 3.328C135.365 3.616 135.184 3.888 134.971 4.144C134.757 4.38933 134.528 4.608 134.283 4.8H132.795C133.147 4.48 133.445 4.15467 133.691 3.824C133.947 3.49333 134.139 3.12533 134.267 2.72C133.925 2.656 133.675 2.51733 133.515 2.304C133.355 2.08 133.275 1.82933 133.275 1.552V1.152C133.275 0.821333 133.381 0.549333 133.595 0.335999C133.819 0.111999 134.171 -9.53674e-07 134.651 -9.53674e-07ZM139.843 12.192C139.032 12.192 138.349 12.064 137.795 11.808C137.24 11.5413 136.744 11.168 136.307 10.688L137.699 9.28C137.997 9.61067 138.328 9.872 138.691 10.064C139.053 10.256 139.464 10.352 139.923 10.352C140.392 10.352 140.717 10.2827 140.899 10.144C141.08 9.99467 141.171 9.79733 141.171 9.552C141.171 9.15733 140.888 8.92267 140.323 8.848L139.411 8.736C137.523 8.50133 136.579 7.63733 136.579 6.144C136.579 5.73867 136.653 5.37067 136.803 5.04C136.963 4.69867 137.181 4.41067 137.459 4.176C137.747 3.93067 138.088 3.744 138.483 3.616C138.888 3.47733 139.341 3.408 139.843 3.408C140.28 3.408 140.664 3.44 140.995 3.504C141.336 3.55733 141.635 3.64267 141.891 3.76C142.157 3.86667 142.397 4.00533 142.611 4.176C142.835 4.336 143.053 4.51733 143.267 4.72L141.907 6.112C141.64 5.84533 141.336 5.63733 140.995 5.488C140.664 5.328 140.323 5.248 139.971 5.248C139.565 5.248 139.277 5.312 139.107 5.44C138.936 5.568 138.851 5.73867 138.851 5.952C138.851 6.176 138.909 6.352 139.027 6.48C139.155 6.59733 139.389 6.68267 139.731 6.736L140.675 6.864C142.52 7.10933 143.443 7.952 143.443 9.392C143.443 9.79733 143.357 10.1707 143.187 10.512C143.016 10.8533 142.771 11.152 142.451 11.408C142.141 11.6533 141.763 11.8453 141.315 11.984C140.877 12.1227 140.387 12.192 139.843 12.192ZM149.254 5.44H148.07V3.6H149.254V2.608C149.254 1.79733 149.468 1.18933 149.894 0.783999C150.321 0.368 150.945 0.16 151.766 0.16H153.302V2H151.622V3.6H153.302V5.44H151.622V12H149.254V5.44ZM154.62 12V3.6H156.988V5.424H157.068C157.11 5.18933 157.185 4.96533 157.292 4.752C157.398 4.528 157.537 4.33067 157.708 4.16C157.889 3.98933 158.102 3.856 158.348 3.76C158.593 3.65333 158.881 3.6 159.212 3.6H159.628V5.808H159.036C158.342 5.808 157.825 5.89867 157.484 6.08C157.153 6.26133 156.988 6.59733 156.988 7.088V12H154.62ZM164.514 12.192C163.874 12.192 163.304 12.0907 162.802 11.888C162.301 11.6747 161.874 11.3813 161.522 11.008C161.181 10.624 160.92 10.16 160.738 9.616C160.568 9.072 160.482 8.464 160.482 7.792C160.482 7.13067 160.568 6.53333 160.738 6C160.909 5.456 161.16 4.992 161.49 4.608C161.832 4.224 162.248 3.93067 162.738 3.728C163.229 3.51467 163.789 3.408 164.418 3.408C165.112 3.408 165.704 3.52533 166.194 3.76C166.696 3.99467 167.101 4.30933 167.41 4.704C167.73 5.09867 167.96 5.55733 168.098 6.08C168.248 6.592 168.322 7.13067 168.322 7.696V8.4H162.93V8.528C162.93 9.08267 163.08 9.52533 163.378 9.856C163.677 10.176 164.146 10.336 164.786 10.336C165.277 10.336 165.677 10.24 165.986 10.048C166.296 9.84533 166.584 9.60533 166.85 9.328L168.034 10.8C167.661 11.2373 167.17 11.5787 166.562 11.824C165.965 12.0693 165.282 12.192 164.514 12.192ZM164.466 5.152C163.986 5.152 163.608 5.312 163.33 5.632C163.064 5.94133 162.93 6.35733 162.93 6.88V7.008H165.874V6.864C165.874 6.352 165.757 5.94133 165.522 5.632C165.298 5.312 164.946 5.152 164.466 5.152ZM173.499 12.192C172.859 12.192 172.288 12.0907 171.787 11.888C171.285 11.6747 170.859 11.3813 170.507 11.008C170.165 10.624 169.904 10.16 169.723 9.616C169.552 9.072 169.467 8.464 169.467 7.792C169.467 7.13067 169.552 6.53333 169.723 6C169.893 5.456 170.144 4.992 170.475 4.608C170.816 4.224 171.232 3.93067 171.723 3.728C172.213 3.51467 172.773 3.408 173.403 3.408C174.096 3.408 174.688 3.52533 175.179 3.76C175.68 3.99467 176.085 4.30933 176.395 4.704C176.715 5.09867 176.944 5.55733 177.083 6.08C177.232 6.592 177.307 7.13067 177.307 7.696V8.4H171.915V8.528C171.915 9.08267 172.064 9.52533 172.363 9.856C172.661 10.176 173.131 10.336 173.771 10.336C174.261 10.336 174.661 10.24 174.971 10.048C175.28 9.84533 175.568 9.60533 175.835 9.328L177.019 10.8C176.645 11.2373 176.155 11.5787 175.547 11.824C174.949 12.0693 174.267 12.192 173.499 12.192ZM173.451 5.152C172.971 5.152 172.592 5.312 172.315 5.632C172.048 5.94133 171.915 6.35733 171.915 6.88V7.008H174.859V6.864C174.859 6.352 174.741 5.94133 174.507 5.632C174.283 5.312 173.931 5.152 173.451 5.152ZM179.955 8.48L179.203 3.936V0.832H181.699V3.936L180.963 8.48H179.955ZM180.435 12.192C179.923 12.192 179.555 12.0747 179.331 11.84C179.118 11.6053 179.011 11.3173 179.011 10.976V10.592C179.011 10.2507 179.118 9.96267 179.331 9.728C179.555 9.49333 179.923 9.376 180.435 9.376C180.947 9.376 181.31 9.49333 181.523 9.728C181.747 9.96267 181.859 10.2507 181.859 10.592V10.976C181.859 11.3173 181.747 11.6053 181.523 11.84C181.31 12.0747 180.947 12.192 180.435 12.192Z" fill="#2F6CE5"/>
</svg>
