<svg width="320" height="181" viewBox="0 0 320 181" fill="none" xmlns="http://www.w3.org/2000/svg">
<rect x="0.5" y="45.5" width="319" height="45" fill="#F7F8FA" stroke="#D9D9DB"/>
<path d="M19.995 74V72.5H14.985V69.44H19.53V67.94H14.985V65.03H19.995V63.53H13.29V74H19.995ZM23.6966 74V68.765C23.6966 67.865 24.4916 67.43 25.3016 67.43C26.2616 67.43 26.7266 68.03 26.7266 69.245V74H28.3616V68.765C28.3616 67.865 29.1266 67.43 29.9516 67.43C30.9416 67.43 31.3916 68.045 31.3916 69.245V74H33.0266V69.05C33.0266 67.13 32.1116 66.02 30.5666 66.02C29.3066 66.02 28.4966 66.74 28.2116 67.61H28.1666C27.7916 66.53 26.9066 66.02 25.8566 66.02C24.6716 66.02 24.0866 66.68 23.7716 67.49H23.6966V66.2H22.0616V74H23.6966ZM41.9191 74V72.665H41.0941V68.75C41.0941 67.01 39.9691 66.02 37.9591 66.02C36.4441 66.02 35.5291 66.665 35.0191 67.535L35.9941 68.42C36.3841 67.805 36.9391 67.355 37.8541 67.355C38.9491 67.355 39.4591 67.91 39.4591 68.855V69.515H38.0491C35.8741 69.515 34.7191 70.31 34.7191 71.855C34.7191 73.265 35.6341 74.18 37.2391 74.18C38.3791 74.18 39.2191 73.67 39.5191 72.695H39.5941C39.6991 73.46 40.1491 74 41.0041 74H41.9191ZM37.7041 72.935C36.8941 72.935 36.3841 72.575 36.3841 71.885V71.615C36.3841 70.94 36.9391 70.565 38.0791 70.565H39.4591V71.69C39.4591 72.455 38.7091 72.935 37.7041 72.935ZM44.3466 64.805C45.0216 64.805 45.3066 64.445 45.3066 63.95V63.695C45.3066 63.2 45.0216 62.84 44.3466 62.84C43.6716 62.84 43.3716 63.2 43.3716 63.695V63.95C43.3716 64.445 43.6716 64.805 44.3466 64.805ZM43.5216 74H45.1566V66.2H43.5216V74ZM50.2063 74V72.665H49.1263V62.9H47.4913V72.38C47.4913 73.385 48.0463 74 49.1563 74H50.2063Z" fill="#8A8A8A"/>
<path d="M0.5 135.5H319.5V179C319.5 179.828 318.828 180.5 318 180.5H2.00001C1.17158 180.5 0.5 179.828 0.5 179V135.5Z" fill="#F7F8FA" stroke="#D9D9DB"/>
<path d="M17.22 164.18C15.85 164.18 14.775 163.72 13.995 162.8C13.215 161.87 12.825 160.525 12.825 158.765C12.825 157.885 12.925 157.11 13.125 156.44C13.325 155.77 13.615 155.205 13.995 154.745C14.375 154.285 14.835 153.94 15.375 153.71C15.925 153.47 16.54 153.35 17.22 153.35C18.13 153.35 18.89 153.55 19.5 153.95C20.12 154.35 20.605 154.94 20.955 155.72L19.53 156.5C19.35 156 19.07 155.605 18.69 155.315C18.32 155.015 17.83 154.865 17.22 154.865C16.41 154.865 15.775 155.14 15.315 155.69C14.855 156.24 14.625 157 14.625 157.97V159.56C14.625 160.53 14.855 161.29 15.315 161.84C15.775 162.39 16.41 162.665 17.22 162.665C17.85 162.665 18.36 162.505 18.75 162.185C19.15 161.855 19.445 161.435 19.635 160.925L21 161.75C20.65 162.51 20.16 163.105 19.53 163.535C18.9 163.965 18.13 164.18 17.22 164.18ZM25.7368 164.18C25.1968 164.18 24.7018 164.085 24.2518 163.895C23.8118 163.705 23.4368 163.435 23.1268 163.085C22.8168 162.725 22.5768 162.295 22.4068 161.795C22.2368 161.285 22.1518 160.72 22.1518 160.1C22.1518 159.48 22.2368 158.92 22.4068 158.42C22.5768 157.91 22.8168 157.48 23.1268 157.13C23.4368 156.77 23.8118 156.495 24.2518 156.305C24.7018 156.115 25.1968 156.02 25.7368 156.02C26.2768 156.02 26.7668 156.115 27.2068 156.305C27.6568 156.495 28.0368 156.77 28.3468 157.13C28.6568 157.48 28.8968 157.91 29.0668 158.42C29.2368 158.92 29.3218 159.48 29.3218 160.1C29.3218 160.72 29.2368 161.285 29.0668 161.795C28.8968 162.295 28.6568 162.725 28.3468 163.085C28.0368 163.435 27.6568 163.705 27.2068 163.895C26.7668 164.085 26.2768 164.18 25.7368 164.18ZM25.7368 162.83C26.2968 162.83 26.7468 162.66 27.0868 162.32C27.4268 161.97 27.5968 161.45 27.5968 160.76V159.44C27.5968 158.75 27.4268 158.235 27.0868 157.895C26.7468 157.545 26.2968 157.37 25.7368 157.37C25.1768 157.37 24.7268 157.545 24.3868 157.895C24.0468 158.235 23.8768 158.75 23.8768 159.44V160.76C23.8768 161.45 24.0468 161.97 24.3868 162.32C24.7268 162.66 25.1768 162.83 25.7368 162.83ZM31.1436 164V156.2H32.7786V157.49H32.8536C33.0236 157.07 33.2786 156.72 33.6186 156.44C33.9686 156.16 34.4436 156.02 35.0436 156.02C35.8436 156.02 36.4636 156.285 36.9036 156.815C37.3536 157.335 37.5786 158.08 37.5786 159.05V164H35.9436V159.26C35.9436 158.04 35.4536 157.43 34.4736 157.43C34.2636 157.43 34.0536 157.46 33.8436 157.52C33.6436 157.57 33.4636 157.65 33.3036 157.76C33.1436 157.87 33.0136 158.01 32.9136 158.18C32.8236 158.35 32.7786 158.55 32.7786 158.78V164H31.1436ZM40.2498 157.535H39.0648V156.2H40.2498V154.91C40.2498 154.28 40.4148 153.79 40.7448 153.44C41.0748 153.08 41.5698 152.9 42.2298 152.9H43.5198V154.235H41.8848V156.2H46.5198V164H44.8848V157.535H41.8848V164H40.2498V157.535ZM45.7098 154.805C45.3698 154.805 45.1198 154.725 44.9598 154.565C44.8098 154.405 44.7348 154.2 44.7348 153.95V153.695C44.7348 153.445 44.8098 153.24 44.9598 153.08C45.1198 152.92 45.3698 152.84 45.7098 152.84C46.0498 152.84 46.2948 152.92 46.4448 153.08C46.5948 153.24 46.6698 153.445 46.6698 153.695V153.95C46.6698 154.2 46.5948 154.405 46.4448 154.565C46.2948 154.725 46.0498 154.805 45.7098 154.805ZM48.8536 164V156.2H50.4886V157.7H50.5636C50.6736 157.3 50.9036 156.95 51.2536 156.65C51.6036 156.35 52.0886 156.2 52.7086 156.2H53.1436V157.775H52.4986C51.8486 157.775 51.3486 157.88 50.9986 158.09C50.6586 158.3 50.4886 158.61 50.4886 159.02V164H48.8536ZM54.5958 164V156.2H56.2308V157.49H56.3058C56.3858 157.29 56.4808 157.1 56.5908 156.92C56.7108 156.74 56.8508 156.585 57.0108 156.455C57.1808 156.315 57.3758 156.21 57.5958 156.14C57.8258 156.06 58.0908 156.02 58.3908 156.02C58.9208 156.02 59.3908 156.15 59.8008 156.41C60.2108 156.67 60.5108 157.07 60.7008 157.61H60.7458C60.8858 157.17 61.1558 156.795 61.5558 156.485C61.9558 156.175 62.4708 156.02 63.1008 156.02C63.8808 156.02 64.4858 156.285 64.9158 156.815C65.3458 157.335 65.5608 158.08 65.5608 159.05V164H63.9258V159.245C63.9258 158.645 63.8108 158.195 63.5808 157.895C63.3508 157.585 62.9858 157.43 62.4858 157.43C62.2758 157.43 62.0758 157.46 61.8858 157.52C61.6958 157.57 61.5258 157.65 61.3758 157.76C61.2358 157.87 61.1208 158.01 61.0308 158.18C60.9408 158.35 60.8958 158.545 60.8958 158.765V164H59.2608V159.245C59.2608 158.035 58.7858 157.43 57.8358 157.43C57.6358 157.43 57.4358 157.46 57.2358 157.52C57.0458 157.57 56.8758 157.65 56.7258 157.76C56.5758 157.87 56.4558 158.01 56.3658 158.18C56.2758 158.35 56.2308 158.545 56.2308 158.765V164H54.5958ZM71.4882 164V153.53H75.9882C76.9582 153.53 77.7082 153.815 78.2382 154.385C78.7682 154.955 79.0332 155.72 79.0332 156.68C79.0332 157.64 78.7682 158.405 78.2382 158.975C77.7082 159.545 76.9582 159.83 75.9882 159.83H73.1832V164H71.4882ZM73.1832 158.345H75.8832C76.3132 158.345 76.6482 158.235 76.8882 158.015C77.1282 157.785 77.2482 157.46 77.2482 157.04V156.32C77.2482 155.9 77.1282 155.58 76.8882 155.36C76.6482 155.13 76.3132 155.015 75.8832 155.015H73.1832V158.345ZM86.3118 164C85.8818 164 85.5518 163.88 85.3218 163.64C85.0918 163.39 84.9518 163.075 84.9018 162.695H84.8268C84.6768 163.185 84.4018 163.555 84.0018 163.805C83.6018 164.055 83.1168 164.18 82.5468 164.18C81.7368 164.18 81.1118 163.97 80.6718 163.55C80.2418 163.13 80.0268 162.565 80.0268 161.855C80.0268 161.075 80.3068 160.49 80.8668 160.1C81.4368 159.71 82.2668 159.515 83.3568 159.515H84.7668V158.855C84.7668 158.375 84.6368 158.005 84.3768 157.745C84.1168 157.485 83.7118 157.355 83.1618 157.355C82.7018 157.355 82.3268 157.455 82.0368 157.655C81.7468 157.855 81.5018 158.11 81.3018 158.42L80.3268 157.535C80.5868 157.095 80.9518 156.735 81.4218 156.455C81.8918 156.165 82.5068 156.02 83.2668 156.02C84.2768 156.02 85.0518 156.255 85.5918 156.725C86.1318 157.195 86.4018 157.87 86.4018 158.75V162.665H87.2268V164H86.3118ZM83.0118 162.935C83.5218 162.935 83.9418 162.825 84.2718 162.605C84.6018 162.375 84.7668 162.07 84.7668 161.69V160.565H83.3868C82.2568 160.565 81.6918 160.915 81.6918 161.615V161.885C81.6918 162.235 81.8068 162.5 82.0368 162.68C82.2768 162.85 82.6018 162.935 83.0118 162.935ZM91.3042 164.18C90.5642 164.18 89.9442 164.05 89.4442 163.79C88.9442 163.53 88.5092 163.17 88.1392 162.71L89.1892 161.75C89.4792 162.1 89.7992 162.375 90.1492 162.575C90.5092 162.765 90.9242 162.86 91.3942 162.86C91.8742 162.86 92.2292 162.77 92.4592 162.59C92.6992 162.4 92.8192 162.14 92.8192 161.81C92.8192 161.56 92.7342 161.35 92.5642 161.18C92.4042 161 92.1192 160.885 91.7092 160.835L90.9892 160.745C90.1892 160.645 89.5592 160.415 89.0992 160.055C88.6492 159.685 88.4242 159.14 88.4242 158.42C88.4242 158.04 88.4942 157.705 88.6342 157.415C88.7742 157.115 88.9692 156.865 89.2192 156.665C89.4792 156.455 89.7842 156.295 90.1342 156.185C90.4942 156.075 90.8892 156.02 91.3192 156.02C92.0192 156.02 92.5892 156.13 93.0292 156.35C93.4792 156.57 93.8792 156.875 94.2292 157.265L93.2242 158.225C93.0242 157.985 92.7592 157.78 92.4292 157.61C92.1092 157.43 91.7392 157.34 91.3192 157.34C90.8692 157.34 90.5342 157.43 90.3142 157.61C90.1042 157.79 89.9992 158.025 89.9992 158.315C89.9992 158.615 90.0942 158.84 90.2842 158.99C90.4742 159.14 90.7792 159.25 91.1992 159.32L91.9192 159.41C92.7792 159.54 93.4042 159.795 93.7942 160.175C94.1942 160.545 94.3942 161.045 94.3942 161.675C94.3942 162.055 94.3192 162.4 94.1692 162.71C94.0292 163.01 93.8242 163.27 93.5542 163.49C93.2842 163.71 92.9592 163.88 92.5792 164C92.1992 164.12 91.7742 164.18 91.3042 164.18ZM98.6284 164.18C97.8884 164.18 97.2684 164.05 96.7684 163.79C96.2684 163.53 95.8334 163.17 95.4634 162.71L96.5134 161.75C96.8034 162.1 97.1234 162.375 97.4734 162.575C97.8334 162.765 98.2484 162.86 98.7184 162.86C99.1984 162.86 99.5534 162.77 99.7834 162.59C100.023 162.4 100.143 162.14 100.143 161.81C100.143 161.56 100.058 161.35 99.8884 161.18C99.7284 161 99.4434 160.885 99.0334 160.835L98.3134 160.745C97.5134 160.645 96.8834 160.415 96.4234 160.055C95.9734 159.685 95.7484 159.14 95.7484 158.42C95.7484 158.04 95.8184 157.705 95.9584 157.415C96.0984 157.115 96.2934 156.865 96.5434 156.665C96.8034 156.455 97.1084 156.295 97.4584 156.185C97.8184 156.075 98.2134 156.02 98.6434 156.02C99.3434 156.02 99.9134 156.13 100.353 156.35C100.803 156.57 101.203 156.875 101.553 157.265L100.548 158.225C100.348 157.985 100.083 157.78 99.7534 157.61C99.4334 157.43 99.0634 157.34 98.6434 157.34C98.1934 157.34 97.8584 157.43 97.6384 157.61C97.4284 157.79 97.3234 158.025 97.3234 158.315C97.3234 158.615 97.4184 158.84 97.6084 158.99C97.7984 159.14 98.1034 159.25 98.5234 159.32L99.2434 159.41C100.103 159.54 100.728 159.795 101.118 160.175C101.518 160.545 101.718 161.045 101.718 161.675C101.718 162.055 101.643 162.4 101.493 162.71C101.353 163.01 101.148 163.27 100.878 163.49C100.608 163.71 100.283 163.88 99.9034 164C99.5234 164.12 99.0984 164.18 98.6284 164.18ZM102.654 156.2H104.244L105.039 159.47L105.744 162.425H105.789L106.599 159.47L107.544 156.2H109.014L109.974 159.47L110.799 162.425H110.844L111.534 159.47L112.344 156.2H113.859L111.759 164H109.914L108.894 160.445L108.264 158.255H108.234L107.619 160.445L106.584 164H104.784L102.654 156.2ZM118.374 164.18C117.834 164.18 117.339 164.085 116.889 163.895C116.449 163.705 116.074 163.435 115.764 163.085C115.454 162.725 115.214 162.295 115.044 161.795C114.874 161.285 114.789 160.72 114.789 160.1C114.789 159.48 114.874 158.92 115.044 158.42C115.214 157.91 115.454 157.48 115.764 157.13C116.074 156.77 116.449 156.495 116.889 156.305C117.339 156.115 117.834 156.02 118.374 156.02C118.914 156.02 119.404 156.115 119.844 156.305C120.294 156.495 120.674 156.77 120.984 157.13C121.294 157.48 121.534 157.91 121.704 158.42C121.874 158.92 121.959 159.48 121.959 160.1C121.959 160.72 121.874 161.285 121.704 161.795C121.534 162.295 121.294 162.725 120.984 163.085C120.674 163.435 120.294 163.705 119.844 163.895C119.404 164.085 118.914 164.18 118.374 164.18ZM118.374 162.83C118.934 162.83 119.384 162.66 119.724 162.32C120.064 161.97 120.234 161.45 120.234 160.76V159.44C120.234 158.75 120.064 158.235 119.724 157.895C119.384 157.545 118.934 157.37 118.374 157.37C117.814 157.37 117.364 157.545 117.024 157.895C116.684 158.235 116.514 158.75 116.514 159.44V160.76C116.514 161.45 116.684 161.97 117.024 162.32C117.364 162.66 117.814 162.83 118.374 162.83ZM123.78 164V156.2H125.415V157.7H125.49C125.6 157.3 125.83 156.95 126.18 156.65C126.53 156.35 127.015 156.2 127.635 156.2H128.07V157.775H127.425C126.775 157.775 126.275 157.88 125.925 158.09C125.585 158.3 125.415 158.61 125.415 159.02V164H123.78ZM134.354 162.71H134.279C134.109 163.17 133.829 163.53 133.439 163.79C133.059 164.05 132.609 164.18 132.089 164.18C131.099 164.18 130.334 163.825 129.794 163.115C129.254 162.395 128.984 161.39 128.984 160.1C128.984 158.81 129.254 157.81 129.794 157.1C130.334 156.38 131.099 156.02 132.089 156.02C132.609 156.02 133.059 156.15 133.439 156.41C133.829 156.66 134.109 157.02 134.279 157.49H134.354V152.9H135.989V164H134.354V162.71ZM132.584 162.77C133.084 162.77 133.504 162.65 133.844 162.41C134.184 162.16 134.354 161.835 134.354 161.435V158.765C134.354 158.365 134.184 158.045 133.844 157.805C133.504 157.555 133.084 157.43 132.584 157.43C132.014 157.43 131.559 157.615 131.219 157.985C130.879 158.345 130.709 158.825 130.709 159.425V160.775C130.709 161.375 130.879 161.86 131.219 162.23C131.559 162.59 132.014 162.77 132.584 162.77Z" fill="#8A8A8A"/>
<path d="M0.5 2C0.5 1.17157 1.17157 0.5 2 0.5H318C318.828 0.5 319.5 1.17158 319.5 2V45.5H0.5V2Z" fill="#F7F8FA" stroke="#D9D9DB"/>
<path d="M13.29 29V18.53H19.83V20.03H14.985V22.94H19.29V24.44H14.985V29H13.29ZM22.5497 19.805C22.2097 19.805 21.9597 19.725 21.7997 19.565C21.6497 19.405 21.5747 19.2 21.5747 18.95V18.695C21.5747 18.445 21.6497 18.24 21.7997 18.08C21.9597 17.92 22.2097 17.84 22.5497 17.84C22.8897 17.84 23.1347 17.92 23.2847 18.08C23.4347 18.24 23.5097 18.445 23.5097 18.695V18.95C23.5097 19.2 23.4347 19.405 23.2847 19.565C23.1347 19.725 22.8897 19.805 22.5497 19.805ZM21.7247 21.2H23.3597V29H21.7247V21.2ZM25.6944 29V21.2H27.3294V22.7H27.4044C27.5144 22.3 27.7444 21.95 28.0944 21.65C28.4444 21.35 28.9294 21.2 29.5494 21.2H29.9844V22.775H29.3394C28.6894 22.775 28.1894 22.88 27.8394 23.09C27.4994 23.3 27.3294 23.61 27.3294 24.02V29H25.6944ZM33.9116 29.18C33.1716 29.18 32.5516 29.05 32.0516 28.79C31.5516 28.53 31.1166 28.17 30.7466 27.71L31.7966 26.75C32.0866 27.1 32.4066 27.375 32.7566 27.575C33.1166 27.765 33.5316 27.86 34.0016 27.86C34.4816 27.86 34.8366 27.77 35.0666 27.59C35.3066 27.4 35.4266 27.14 35.4266 26.81C35.4266 26.56 35.3416 26.35 35.1716 26.18C35.0116 26 34.7266 25.885 34.3166 25.835L33.5966 25.745C32.7966 25.645 32.1666 25.415 31.7066 25.055C31.2566 24.685 31.0316 24.14 31.0316 23.42C31.0316 23.04 31.1016 22.705 31.2416 22.415C31.3816 22.115 31.5766 21.865 31.8266 21.665C32.0866 21.455 32.3916 21.295 32.7416 21.185C33.1016 21.075 33.4966 21.02 33.9266 21.02C34.6266 21.02 35.1966 21.13 35.6366 21.35C36.0866 21.57 36.4866 21.875 36.8366 22.265L35.8316 23.225C35.6316 22.985 35.3666 22.78 35.0366 22.61C34.7166 22.43 34.3466 22.34 33.9266 22.34C33.4766 22.34 33.1416 22.43 32.9216 22.61C32.7116 22.79 32.6066 23.025 32.6066 23.315C32.6066 23.615 32.7016 23.84 32.8916 23.99C33.0816 24.14 33.3866 24.25 33.8066 24.32L34.5266 24.41C35.3866 24.54 36.0116 24.795 36.4016 25.175C36.8016 25.545 37.0016 26.045 37.0016 26.675C37.0016 27.055 36.9266 27.4 36.7766 27.71C36.6366 28.01 36.4316 28.27 36.1616 28.49C35.8916 28.71 35.5666 28.88 35.1866 29C34.8066 29.12 34.3816 29.18 33.9116 29.18ZM40.9062 29C40.3362 29 39.9062 28.855 39.6162 28.565C39.3262 28.265 39.1812 27.845 39.1812 27.305V22.535H37.9662V21.2H38.6262C38.8962 21.2 39.0812 21.14 39.1812 21.02C39.2912 20.9 39.3462 20.705 39.3462 20.435V19.07H40.8162V21.2H42.4512V22.535H40.8162V27.665H42.3312V29H40.9062ZM50.7096 23.21L49.5546 20.99H49.5096V29H47.8896V18.53H49.7796L53.1996 24.32L54.3546 26.54H54.3996V18.53H56.0196V29H54.1296L50.7096 23.21ZM64.1926 29C63.7626 29 63.4326 28.88 63.2026 28.64C62.9726 28.39 62.8326 28.075 62.7826 27.695H62.7076C62.5576 28.185 62.2826 28.555 61.8826 28.805C61.4826 29.055 60.9976 29.18 60.4276 29.18C59.6176 29.18 58.9926 28.97 58.5526 28.55C58.1226 28.13 57.9076 27.565 57.9076 26.855C57.9076 26.075 58.1876 25.49 58.7476 25.1C59.3176 24.71 60.1476 24.515 61.2376 24.515H62.6476V23.855C62.6476 23.375 62.5176 23.005 62.2576 22.745C61.9976 22.485 61.5926 22.355 61.0426 22.355C60.5826 22.355 60.2076 22.455 59.9176 22.655C59.6276 22.855 59.3826 23.11 59.1826 23.42L58.2076 22.535C58.4676 22.095 58.8326 21.735 59.3026 21.455C59.7726 21.165 60.3876 21.02 61.1476 21.02C62.1576 21.02 62.9326 21.255 63.4726 21.725C64.0126 22.195 64.2826 22.87 64.2826 23.75V27.665H65.1076V29H64.1926ZM60.8926 27.935C61.4026 27.935 61.8226 27.825 62.1526 27.605C62.4826 27.375 62.6476 27.07 62.6476 26.69V25.565H61.2676C60.1376 25.565 59.5726 25.915 59.5726 26.615V26.885C59.5726 27.235 59.6876 27.5 59.9176 27.68C60.1576 27.85 60.4826 27.935 60.8926 27.935ZM66.71 29V21.2H68.345V22.49H68.42C68.5 22.29 68.595 22.1 68.705 21.92C68.825 21.74 68.965 21.585 69.125 21.455C69.295 21.315 69.49 21.21 69.71 21.14C69.94 21.06 70.205 21.02 70.505 21.02C71.035 21.02 71.505 21.15 71.915 21.41C72.325 21.67 72.625 22.07 72.815 22.61H72.86C73 22.17 73.27 21.795 73.67 21.485C74.07 21.175 74.585 21.02 75.215 21.02C75.995 21.02 76.6 21.285 77.03 21.815C77.46 22.335 77.675 23.08 77.675 24.05V29H76.04V24.245C76.04 23.645 75.925 23.195 75.695 22.895C75.465 22.585 75.1 22.43 74.6 22.43C74.39 22.43 74.19 22.46 74 22.52C73.81 22.57 73.64 22.65 73.49 22.76C73.35 22.87 73.235 23.01 73.145 23.18C73.055 23.35 73.01 23.545 73.01 23.765V29H71.375V24.245C71.375 23.035 70.9 22.43 69.95 22.43C69.75 22.43 69.55 22.46 69.35 22.52C69.16 22.57 68.99 22.65 68.84 22.76C68.69 22.87 68.57 23.01 68.48 23.18C68.39 23.35 68.345 23.545 68.345 23.765V29H66.71ZM82.9976 29.18C82.4376 29.18 81.9376 29.085 81.4976 28.895C81.0576 28.705 80.6826 28.435 80.3726 28.085C80.0626 27.725 79.8226 27.295 79.6526 26.795C79.4926 26.285 79.4126 25.72 79.4126 25.1C79.4126 24.48 79.4926 23.92 79.6526 23.42C79.8226 22.91 80.0626 22.48 80.3726 22.13C80.6826 21.77 81.0576 21.495 81.4976 21.305C81.9376 21.115 82.4376 21.02 82.9976 21.02C83.5676 21.02 84.0676 21.12 84.4976 21.32C84.9376 21.52 85.3026 21.8 85.5926 22.16C85.8826 22.51 86.0976 22.92 86.2376 23.39C86.3876 23.86 86.4626 24.365 86.4626 24.905V25.52H81.1076V25.775C81.1076 26.375 81.2826 26.87 81.6326 27.26C81.9926 27.64 82.5026 27.83 83.1626 27.83C83.6426 27.83 84.0476 27.725 84.3776 27.515C84.7076 27.305 84.9876 27.02 85.2176 26.66L86.1776 27.605C85.8876 28.085 85.4676 28.47 84.9176 28.76C84.3676 29.04 83.7276 29.18 82.9976 29.18ZM82.9976 22.295C82.7176 22.295 82.4576 22.345 82.2176 22.445C81.9876 22.545 81.7876 22.685 81.6176 22.865C81.4576 23.045 81.3326 23.26 81.2426 23.51C81.1526 23.76 81.1076 24.035 81.1076 24.335V24.44H84.7376V24.29C84.7376 23.69 84.5826 23.21 84.2726 22.85C83.9626 22.48 83.5376 22.295 82.9976 22.295Z" fill="#8A8A8A"/>
<path d="M173.29 29V18.53H174.985V27.5H179.245V29H173.29ZM186.59 29C186.16 29 185.83 28.88 185.6 28.64C185.37 28.39 185.23 28.075 185.18 27.695H185.105C184.955 28.185 184.68 28.555 184.28 28.805C183.88 29.055 183.395 29.18 182.825 29.18C182.015 29.18 181.39 28.97 180.95 28.55C180.52 28.13 180.305 27.565 180.305 26.855C180.305 26.075 180.585 25.49 181.145 25.1C181.715 24.71 182.545 24.515 183.635 24.515H185.045V23.855C185.045 23.375 184.915 23.005 184.655 22.745C184.395 22.485 183.99 22.355 183.44 22.355C182.98 22.355 182.605 22.455 182.315 22.655C182.025 22.855 181.78 23.11 181.58 23.42L180.605 22.535C180.865 22.095 181.23 21.735 181.7 21.455C182.17 21.165 182.785 21.02 183.545 21.02C184.555 21.02 185.33 21.255 185.87 21.725C186.41 22.195 186.68 22.87 186.68 23.75V27.665H187.505V29H186.59ZM183.29 27.935C183.8 27.935 184.22 27.825 184.55 27.605C184.88 27.375 185.045 27.07 185.045 26.69V25.565H183.665C182.535 25.565 181.97 25.915 181.97 26.615V26.885C181.97 27.235 182.085 27.5 182.315 27.68C182.555 27.85 182.88 27.935 183.29 27.935ZM191.583 29.18C190.843 29.18 190.223 29.05 189.723 28.79C189.223 28.53 188.788 28.17 188.418 27.71L189.468 26.75C189.758 27.1 190.078 27.375 190.428 27.575C190.788 27.765 191.203 27.86 191.673 27.86C192.153 27.86 192.508 27.77 192.738 27.59C192.978 27.4 193.098 27.14 193.098 26.81C193.098 26.56 193.013 26.35 192.843 26.18C192.683 26 192.398 25.885 191.988 25.835L191.268 25.745C190.468 25.645 189.838 25.415 189.378 25.055C188.928 24.685 188.703 24.14 188.703 23.42C188.703 23.04 188.773 22.705 188.913 22.415C189.053 22.115 189.248 21.865 189.498 21.665C189.758 21.455 190.063 21.295 190.413 21.185C190.773 21.075 191.168 21.02 191.598 21.02C192.298 21.02 192.868 21.13 193.308 21.35C193.758 21.57 194.158 21.875 194.508 22.265L193.503 23.225C193.303 22.985 193.038 22.78 192.708 22.61C192.388 22.43 192.018 22.34 191.598 22.34C191.148 22.34 190.813 22.43 190.593 22.61C190.383 22.79 190.278 23.025 190.278 23.315C190.278 23.615 190.373 23.84 190.563 23.99C190.753 24.14 191.058 24.25 191.478 24.32L192.198 24.41C193.058 24.54 193.683 24.795 194.073 25.175C194.473 25.545 194.673 26.045 194.673 26.675C194.673 27.055 194.598 27.4 194.448 27.71C194.308 28.01 194.103 28.27 193.833 28.49C193.563 28.71 193.238 28.88 192.858 29C192.478 29.12 192.053 29.18 191.583 29.18ZM198.577 29C198.007 29 197.577 28.855 197.287 28.565C196.997 28.265 196.852 27.845 196.852 27.305V22.535H195.637V21.2H196.297C196.567 21.2 196.752 21.14 196.852 21.02C196.962 20.9 197.017 20.705 197.017 20.435V19.07H198.487V21.2H200.122V22.535H198.487V27.665H200.002V29H198.577ZM208.381 23.21L207.226 20.99H207.181V29H205.561V18.53H207.451L210.871 24.32L212.026 26.54H212.071V18.53H213.691V29H211.801L208.381 23.21ZM221.864 29C221.434 29 221.104 28.88 220.874 28.64C220.644 28.39 220.504 28.075 220.454 27.695H220.379C220.229 28.185 219.954 28.555 219.554 28.805C219.154 29.055 218.669 29.18 218.099 29.18C217.289 29.18 216.664 28.97 216.224 28.55C215.794 28.13 215.579 27.565 215.579 26.855C215.579 26.075 215.859 25.49 216.419 25.1C216.989 24.71 217.819 24.515 218.909 24.515H220.319V23.855C220.319 23.375 220.189 23.005 219.929 22.745C219.669 22.485 219.264 22.355 218.714 22.355C218.254 22.355 217.879 22.455 217.589 22.655C217.299 22.855 217.054 23.11 216.854 23.42L215.879 22.535C216.139 22.095 216.504 21.735 216.974 21.455C217.444 21.165 218.059 21.02 218.819 21.02C219.829 21.02 220.604 21.255 221.144 21.725C221.684 22.195 221.954 22.87 221.954 23.75V27.665H222.779V29H221.864ZM218.564 27.935C219.074 27.935 219.494 27.825 219.824 27.605C220.154 27.375 220.319 27.07 220.319 26.69V25.565H218.939C217.809 25.565 217.244 25.915 217.244 26.615V26.885C217.244 27.235 217.359 27.5 217.589 27.68C217.829 27.85 218.154 27.935 218.564 27.935ZM224.381 29V21.2H226.016V22.49H226.091C226.171 22.29 226.266 22.1 226.376 21.92C226.496 21.74 226.636 21.585 226.796 21.455C226.966 21.315 227.161 21.21 227.381 21.14C227.611 21.06 227.876 21.02 228.176 21.02C228.706 21.02 229.176 21.15 229.586 21.41C229.996 21.67 230.296 22.07 230.486 22.61H230.531C230.671 22.17 230.941 21.795 231.341 21.485C231.741 21.175 232.256 21.02 232.886 21.02C233.666 21.02 234.271 21.285 234.701 21.815C235.131 22.335 235.346 23.08 235.346 24.05V29H233.711V24.245C233.711 23.645 233.596 23.195 233.366 22.895C233.136 22.585 232.771 22.43 232.271 22.43C232.061 22.43 231.861 22.46 231.671 22.52C231.481 22.57 231.311 22.65 231.161 22.76C231.021 22.87 230.906 23.01 230.816 23.18C230.726 23.35 230.681 23.545 230.681 23.765V29H229.046V24.245C229.046 23.035 228.571 22.43 227.621 22.43C227.421 22.43 227.221 22.46 227.021 22.52C226.831 22.57 226.661 22.65 226.511 22.76C226.361 22.87 226.241 23.01 226.151 23.18C226.061 23.35 226.016 23.545 226.016 23.765V29H224.381ZM240.668 29.18C240.108 29.18 239.608 29.085 239.168 28.895C238.728 28.705 238.353 28.435 238.043 28.085C237.733 27.725 237.493 27.295 237.323 26.795C237.163 26.285 237.083 25.72 237.083 25.1C237.083 24.48 237.163 23.92 237.323 23.42C237.493 22.91 237.733 22.48 238.043 22.13C238.353 21.77 238.728 21.495 239.168 21.305C239.608 21.115 240.108 21.02 240.668 21.02C241.238 21.02 241.738 21.12 242.168 21.32C242.608 21.52 242.973 21.8 243.263 22.16C243.553 22.51 243.768 22.92 243.908 23.39C244.058 23.86 244.133 24.365 244.133 24.905V25.52H238.778V25.775C238.778 26.375 238.953 26.87 239.303 27.26C239.663 27.64 240.173 27.83 240.833 27.83C241.313 27.83 241.718 27.725 242.048 27.515C242.378 27.305 242.658 27.02 242.888 26.66L243.848 27.605C243.558 28.085 243.138 28.47 242.588 28.76C242.038 29.04 241.398 29.18 240.668 29.18ZM240.668 22.295C240.388 22.295 240.128 22.345 239.888 22.445C239.658 22.545 239.458 22.685 239.288 22.865C239.128 23.045 239.003 23.26 238.913 23.51C238.823 23.76 238.778 24.035 238.778 24.335V24.44H242.408V24.29C242.408 23.69 242.253 23.21 241.943 22.85C241.633 22.48 241.208 22.295 240.668 22.295Z" fill="#8A8A8A"/>
<line x1="160.5" y1="2.18557e-08" x2="160.5" y2="45" stroke="#D9D9DB"/>
<rect x="0.5" y="90.5" width="319" height="45" fill="#F7F8FA" stroke="#D9D9DB"/>
<path d="M13.29 119V108.53H17.79C18.76 108.53 19.51 108.815 20.04 109.385C20.57 109.955 20.835 110.72 20.835 111.68C20.835 112.64 20.57 113.405 20.04 113.975C19.51 114.545 18.76 114.83 17.79 114.83H14.985V119H13.29ZM14.985 113.345H17.685C18.115 113.345 18.45 113.235 18.69 113.015C18.93 112.785 19.05 112.46 19.05 112.04V111.32C19.05 110.9 18.93 110.58 18.69 110.36C18.45 110.13 18.115 110.015 17.685 110.015H14.985V113.345ZM28.1135 119C27.6835 119 27.3535 118.88 27.1235 118.64C26.8935 118.39 26.7535 118.075 26.7035 117.695H26.6285C26.4785 118.185 26.2035 118.555 25.8035 118.805C25.4035 119.055 24.9185 119.18 24.3485 119.18C23.5385 119.18 22.9135 118.97 22.4735 118.55C22.0435 118.13 21.8285 117.565 21.8285 116.855C21.8285 116.075 22.1085 115.49 22.6685 115.1C23.2385 114.71 24.0685 114.515 25.1585 114.515H26.5685V113.855C26.5685 113.375 26.4385 113.005 26.1785 112.745C25.9185 112.485 25.5135 112.355 24.9635 112.355C24.5035 112.355 24.1285 112.455 23.8385 112.655C23.5485 112.855 23.3035 113.11 23.1035 113.42L22.1285 112.535C22.3885 112.095 22.7535 111.735 23.2235 111.455C23.6935 111.165 24.3085 111.02 25.0685 111.02C26.0785 111.02 26.8535 111.255 27.3935 111.725C27.9335 112.195 28.2035 112.87 28.2035 113.75V117.665H29.0285V119H28.1135ZM24.8135 117.935C25.3235 117.935 25.7435 117.825 26.0735 117.605C26.4035 117.375 26.5685 117.07 26.5685 116.69V115.565H25.1885C24.0585 115.565 23.4935 115.915 23.4935 116.615V116.885C23.4935 117.235 23.6085 117.5 23.8385 117.68C24.0785 117.85 24.4035 117.935 24.8135 117.935ZM33.1059 119.18C32.3659 119.18 31.7459 119.05 31.2459 118.79C30.7459 118.53 30.3109 118.17 29.9409 117.71L30.9909 116.75C31.2809 117.1 31.6009 117.375 31.9509 117.575C32.3109 117.765 32.7259 117.86 33.1959 117.86C33.6759 117.86 34.0309 117.77 34.2609 117.59C34.5009 117.4 34.6209 117.14 34.6209 116.81C34.6209 116.56 34.5359 116.35 34.3659 116.18C34.2059 116 33.9209 115.885 33.5109 115.835L32.7909 115.745C31.9909 115.645 31.3609 115.415 30.9009 115.055C30.4509 114.685 30.2259 114.14 30.2259 113.42C30.2259 113.04 30.2959 112.705 30.4359 112.415C30.5759 112.115 30.7709 111.865 31.0209 111.665C31.2809 111.455 31.5859 111.295 31.9359 111.185C32.2959 111.075 32.6909 111.02 33.1209 111.02C33.8209 111.02 34.3909 111.13 34.8309 111.35C35.2809 111.57 35.6809 111.875 36.0309 112.265L35.0259 113.225C34.8259 112.985 34.5609 112.78 34.2309 112.61C33.9109 112.43 33.5409 112.34 33.1209 112.34C32.6709 112.34 32.3359 112.43 32.1159 112.61C31.9059 112.79 31.8009 113.025 31.8009 113.315C31.8009 113.615 31.8959 113.84 32.0859 113.99C32.2759 114.14 32.5809 114.25 33.0009 114.32L33.7209 114.41C34.5809 114.54 35.2059 114.795 35.5959 115.175C35.9959 115.545 36.1959 116.045 36.1959 116.675C36.1959 117.055 36.1209 117.4 35.9709 117.71C35.8309 118.01 35.6259 118.27 35.3559 118.49C35.0859 118.71 34.7609 118.88 34.3809 119C34.0009 119.12 33.5759 119.18 33.1059 119.18ZM40.4302 119.18C39.6902 119.18 39.0702 119.05 38.5702 118.79C38.0702 118.53 37.6352 118.17 37.2652 117.71L38.3152 116.75C38.6052 117.1 38.9252 117.375 39.2752 117.575C39.6352 117.765 40.0502 117.86 40.5202 117.86C41.0002 117.86 41.3552 117.77 41.5852 117.59C41.8252 117.4 41.9452 117.14 41.9452 116.81C41.9452 116.56 41.8602 116.35 41.6902 116.18C41.5302 116 41.2452 115.885 40.8352 115.835L40.1152 115.745C39.3152 115.645 38.6852 115.415 38.2252 115.055C37.7752 114.685 37.5502 114.14 37.5502 113.42C37.5502 113.04 37.6202 112.705 37.7602 112.415C37.9002 112.115 38.0952 111.865 38.3452 111.665C38.6052 111.455 38.9102 111.295 39.2602 111.185C39.6202 111.075 40.0152 111.02 40.4452 111.02C41.1452 111.02 41.7152 111.13 42.1552 111.35C42.6052 111.57 43.0052 111.875 43.3552 112.265L42.3502 113.225C42.1502 112.985 41.8852 112.78 41.5552 112.61C41.2352 112.43 40.8652 112.34 40.4452 112.34C39.9952 112.34 39.6602 112.43 39.4402 112.61C39.2302 112.79 39.1252 113.025 39.1252 113.315C39.1252 113.615 39.2202 113.84 39.4102 113.99C39.6002 114.14 39.9052 114.25 40.3252 114.32L41.0452 114.41C41.9052 114.54 42.5302 114.795 42.9202 115.175C43.3202 115.545 43.5202 116.045 43.5202 116.675C43.5202 117.055 43.4452 117.4 43.2952 117.71C43.1552 118.01 42.9502 118.27 42.6802 118.49C42.4102 118.71 42.0852 118.88 41.7052 119C41.3252 119.12 40.9002 119.18 40.4302 119.18ZM44.4554 111.2H46.0454L46.8404 114.47L47.5454 117.425H47.5904L48.4004 114.47L49.3454 111.2H50.8154L51.7754 114.47L52.6004 117.425H52.6454L53.3354 114.47L54.1454 111.2H55.6604L53.5604 119H51.7154L50.6954 115.445L50.0654 113.255H50.0354L49.4204 115.445L48.3854 119H46.5854L44.4554 111.2ZM60.1753 119.18C59.6353 119.18 59.1403 119.085 58.6903 118.895C58.2503 118.705 57.8753 118.435 57.5653 118.085C57.2553 117.725 57.0153 117.295 56.8453 116.795C56.6753 116.285 56.5903 115.72 56.5903 115.1C56.5903 114.48 56.6753 113.92 56.8453 113.42C57.0153 112.91 57.2553 112.48 57.5653 112.13C57.8753 111.77 58.2503 111.495 58.6903 111.305C59.1403 111.115 59.6353 111.02 60.1753 111.02C60.7153 111.02 61.2053 111.115 61.6453 111.305C62.0953 111.495 62.4753 111.77 62.7853 112.13C63.0953 112.48 63.3353 112.91 63.5053 113.42C63.6753 113.92 63.7603 114.48 63.7603 115.1C63.7603 115.72 63.6753 116.285 63.5053 116.795C63.3353 117.295 63.0953 117.725 62.7853 118.085C62.4753 118.435 62.0953 118.705 61.6453 118.895C61.2053 119.085 60.7153 119.18 60.1753 119.18ZM60.1753 117.83C60.7353 117.83 61.1853 117.66 61.5253 117.32C61.8653 116.97 62.0353 116.45 62.0353 115.76V114.44C62.0353 113.75 61.8653 113.235 61.5253 112.895C61.1853 112.545 60.7353 112.37 60.1753 112.37C59.6153 112.37 59.1653 112.545 58.8253 112.895C58.4853 113.235 58.3153 113.75 58.3153 114.44V115.76C58.3153 116.45 58.4853 116.97 58.8253 117.32C59.1653 117.66 59.6153 117.83 60.1753 117.83ZM65.5821 119V111.2H67.2171V112.7H67.2921C67.4021 112.3 67.6321 111.95 67.9821 111.65C68.3321 111.35 68.8171 111.2 69.4371 111.2H69.8721V112.775H69.2271C68.5771 112.775 68.0771 112.88 67.7271 113.09C67.3871 113.3 67.2171 113.61 67.2171 114.02V119H65.5821ZM76.1561 117.71H76.0811C75.9111 118.17 75.6311 118.53 75.2411 118.79C74.8611 119.05 74.4111 119.18 73.8911 119.18C72.9011 119.18 72.1361 118.825 71.5961 118.115C71.0561 117.395 70.7861 116.39 70.7861 115.1C70.7861 113.81 71.0561 112.81 71.5961 112.1C72.1361 111.38 72.9011 111.02 73.8911 111.02C74.4111 111.02 74.8611 111.15 75.2411 111.41C75.6311 111.66 75.9111 112.02 76.0811 112.49H76.1561V107.9H77.7911V119H76.1561V117.71ZM74.3861 117.77C74.8861 117.77 75.3061 117.65 75.6461 117.41C75.9861 117.16 76.1561 116.835 76.1561 116.435V113.765C76.1561 113.365 75.9861 113.045 75.6461 112.805C75.3061 112.555 74.8861 112.43 74.3861 112.43C73.8161 112.43 73.3611 112.615 73.0211 112.985C72.6811 113.345 72.5111 113.825 72.5111 114.425V115.775C72.5111 116.375 72.6811 116.86 73.0211 117.23C73.3611 117.59 73.8161 117.77 74.3861 117.77Z" fill="#8A8A8A"/>
<path fill-rule="evenodd" clip-rule="evenodd" d="M284.75 113C286.047 109.707 289.25 107.375 293 107.375C296.75 107.375 299.952 109.707 301.25 113C299.952 116.292 296.75 118.625 293 118.625C289.25 118.625 286.047 116.292 284.75 113ZM299.615 113C298.378 110.473 295.843 108.875 293 108.875C290.158 108.875 287.623 110.473 286.385 113C287.623 115.528 290.158 117.125 293 117.125C295.843 117.125 298.378 115.528 299.615 113ZM293 111.125C294.035 111.125 294.875 111.965 294.875 113C294.875 114.035 294.035 114.875 293 114.875C291.965 114.875 291.125 114.035 291.125 113C291.125 111.965 291.965 111.125 293 111.125ZM289.625 113C289.625 111.14 291.14 109.625 293 109.625C294.86 109.625 296.375 111.14 296.375 113C296.375 114.86 294.86 116.375 293 116.375C291.14 116.375 289.625 114.86 289.625 113Z" fill="#8A8A8A"/>
</svg>
