<svg width="320" height="38" viewBox="0 0 320 38" fill="none" xmlns="http://www.w3.org/2000/svg">
<rect x="0.3" y="0.3" width="319.4" height="37.4" rx="1.7" fill="white" stroke="#D9D9DB" stroke-width="0.6"/>
<g clip-path="url(#clip0_1_2214)">
<path d="M88.5459 20.669L87.989 22.7482L85.9534 22.7912C85.3451 21.6629 85 20.3719 85 19C85 17.6735 85.3226 16.4225 85.8945 15.3209H85.8949L87.7072 15.6532L88.5011 17.4545C88.3349 17.939 88.2443 18.459 88.2443 19C88.2444 19.5873 88.3508 20.15 88.5459 20.669Z" fill="#FBBB00"/>
<path d="M100.86 17.5056C100.952 17.9896 101 18.4893 101 19.0001C101 19.5729 100.94 20.1316 100.825 20.6705C100.436 22.5043 99.4181 24.1056 98.0084 25.2388L98.008 25.2384L95.7253 25.1219L95.4023 23.1052C96.3377 22.5566 97.0687 21.6981 97.4537 20.6705H93.1759V17.5056H97.5161H100.86Z" fill="#518EF8"/>
<path d="M98.0081 25.2382L98.0085 25.2386C96.6375 26.3406 94.896 26.9999 93.0001 26.9999C89.9536 26.9999 87.3048 25.2971 85.9536 22.7911L88.5461 20.6689C89.2217 22.472 90.961 23.7555 93.0001 23.7555C93.8766 23.7555 94.6977 23.5186 95.4023 23.105L98.0081 25.2382Z" fill="#28B446"/>
<path d="M98.1064 12.8418L95.5148 14.9635C94.7855 14.5077 93.9235 14.2444 93 14.2444C90.9148 14.2444 89.1429 15.5868 88.5011 17.4545L85.895 15.3209H85.8945C87.226 12.7538 89.9082 11 93 11C94.9411 11 96.7209 11.6914 98.1064 12.8418Z" fill="#F14336"/>
</g>
<path d="M115.046 24.168C114.253 24.168 113.576 24.0187 113.016 23.72C112.456 23.412 111.98 22.992 111.588 22.46L112.456 21.732C112.801 22.1893 113.184 22.5393 113.604 22.782C114.024 23.0153 114.519 23.132 115.088 23.132C115.788 23.132 116.32 22.964 116.684 22.628C117.057 22.292 117.244 21.844 117.244 21.284C117.244 20.8173 117.104 20.458 116.824 20.206C116.544 19.954 116.082 19.7533 115.438 19.604L114.64 19.422C113.744 19.2167 113.058 18.9087 112.582 18.498C112.115 18.078 111.882 17.49 111.882 16.734C111.882 16.3047 111.961 15.922 112.12 15.586C112.279 15.25 112.498 14.97 112.778 14.746C113.067 14.522 113.408 14.354 113.8 14.242C114.201 14.1207 114.64 14.06 115.116 14.06C115.853 14.06 116.483 14.1953 117.006 14.466C117.538 14.7367 117.986 15.1333 118.35 15.656L117.468 16.3C117.197 15.9267 116.871 15.6327 116.488 15.418C116.105 15.2033 115.629 15.096 115.06 15.096C114.435 15.096 113.94 15.2313 113.576 15.502C113.221 15.7633 113.044 16.16 113.044 16.692C113.044 17.1587 113.193 17.5133 113.492 17.756C113.8 17.9893 114.262 18.176 114.878 18.316L115.676 18.498C116.637 18.7127 117.333 19.0393 117.762 19.478C118.191 19.9167 118.406 20.5 118.406 21.228C118.406 21.676 118.327 22.082 118.168 22.446C118.019 22.81 117.799 23.118 117.51 23.37C117.221 23.622 116.866 23.818 116.446 23.958C116.035 24.098 115.569 24.168 115.046 24.168ZM120.885 15.082C120.642 15.082 120.465 15.026 120.353 14.914C120.25 14.7927 120.199 14.6387 120.199 14.452V14.27C120.199 14.0833 120.25 13.934 120.353 13.822C120.465 13.7007 120.642 13.64 120.885 13.64C121.127 13.64 121.3 13.7007 121.403 13.822C121.515 13.934 121.571 14.0833 121.571 14.27V14.452C121.571 14.6387 121.515 14.7927 121.403 14.914C121.3 15.026 121.127 15.082 120.885 15.082ZM120.325 16.776H121.445V24H120.325V16.776ZM129.915 24.798C129.915 25.5447 129.621 26.0907 129.033 26.436C128.454 26.7907 127.581 26.968 126.415 26.968C125.285 26.968 124.473 26.814 123.979 26.506C123.484 26.198 123.237 25.7593 123.237 25.19C123.237 24.798 123.339 24.49 123.545 24.266C123.75 24.0513 124.03 23.8927 124.385 23.79V23.636C123.955 23.4307 123.741 23.0947 123.741 22.628C123.741 22.264 123.857 21.9887 124.091 21.802C124.324 21.606 124.623 21.4613 124.987 21.368V21.312C124.557 21.1067 124.221 20.8127 123.979 20.43C123.745 20.0473 123.629 19.604 123.629 19.1C123.629 18.736 123.694 18.4 123.825 18.092C123.955 17.784 124.137 17.5227 124.371 17.308C124.613 17.084 124.898 16.9113 125.225 16.79C125.561 16.6687 125.934 16.608 126.345 16.608C126.858 16.608 127.315 16.7013 127.717 16.888V16.762C127.717 16.482 127.782 16.2533 127.913 16.076C128.043 15.8893 128.258 15.796 128.557 15.796H129.635V16.776H128.263V17.238C128.524 17.462 128.725 17.7327 128.865 18.05C129.014 18.358 129.089 18.708 129.089 19.1C129.089 19.464 129.023 19.8 128.893 20.108C128.762 20.416 128.575 20.682 128.333 20.906C128.099 21.1207 127.815 21.2887 127.479 21.41C127.143 21.5313 126.769 21.592 126.359 21.592C126.125 21.592 125.892 21.5687 125.659 21.522C125.416 21.5873 125.197 21.6853 125.001 21.816C124.805 21.9373 124.707 22.11 124.707 22.334C124.707 22.5487 124.809 22.6933 125.015 22.768C125.22 22.8427 125.486 22.88 125.813 22.88H127.353C128.249 22.88 128.897 23.0527 129.299 23.398C129.709 23.734 129.915 24.2007 129.915 24.798ZM128.865 24.882C128.865 24.5927 128.753 24.3593 128.529 24.182C128.314 24.014 127.927 23.93 127.367 23.93H124.959C124.511 24.1353 124.287 24.462 124.287 24.91C124.287 25.2273 124.403 25.498 124.637 25.722C124.879 25.946 125.285 26.058 125.855 26.058H126.891C127.516 26.058 128.001 25.96 128.347 25.764C128.692 25.568 128.865 25.274 128.865 24.882ZM126.359 20.696C126.835 20.696 127.213 20.584 127.493 20.36C127.773 20.1267 127.913 19.772 127.913 19.296V18.904C127.913 18.428 127.773 18.078 127.493 17.854C127.213 17.6207 126.835 17.504 126.359 17.504C125.883 17.504 125.505 17.6207 125.225 17.854C124.945 18.078 124.805 18.428 124.805 18.904V19.296C124.805 19.772 124.945 20.1267 125.225 20.36C125.505 20.584 125.883 20.696 126.359 20.696ZM131.221 24V16.776H132.341V17.952H132.397C132.575 17.5413 132.822 17.2147 133.139 16.972C133.466 16.7293 133.9 16.608 134.441 16.608C135.188 16.608 135.776 16.8507 136.205 17.336C136.644 17.812 136.863 18.4887 136.863 19.366V24H135.743V19.562C135.743 18.2647 135.197 17.616 134.105 17.616C133.881 17.616 133.662 17.644 133.447 17.7C133.242 17.756 133.055 17.84 132.887 17.952C132.719 18.064 132.584 18.2087 132.481 18.386C132.388 18.554 132.341 18.7547 132.341 18.988V24H131.221ZM146.939 22.824H146.883C146.808 22.992 146.715 23.16 146.603 23.328C146.5 23.4867 146.37 23.6313 146.211 23.762C146.052 23.8833 145.861 23.9813 145.637 24.056C145.413 24.1307 145.152 24.168 144.853 24.168C144.106 24.168 143.514 23.93 143.075 23.454C142.636 22.9687 142.417 22.2873 142.417 21.41V16.776H143.537V21.214C143.537 22.5113 144.088 23.16 145.189 23.16C145.413 23.16 145.628 23.132 145.833 23.076C146.048 23.02 146.234 22.936 146.393 22.824C146.561 22.712 146.692 22.572 146.785 22.404C146.888 22.2267 146.939 22.0167 146.939 21.774V16.776H148.059V24H146.939V22.824ZM150.444 16.776H151.564V17.952H151.62C151.807 17.4947 152.077 17.1587 152.432 16.944C152.796 16.72 153.23 16.608 153.734 16.608C154.182 16.608 154.588 16.6967 154.952 16.874C155.316 17.0513 155.624 17.3033 155.876 17.63C156.137 17.9567 156.333 18.3533 156.464 18.82C156.604 19.2867 156.674 19.8093 156.674 20.388C156.674 20.9667 156.604 21.4893 156.464 21.956C156.333 22.4227 156.137 22.8193 155.876 23.146C155.624 23.4727 155.316 23.7247 154.952 23.902C154.588 24.0793 154.182 24.168 153.734 24.168C152.754 24.168 152.049 23.72 151.62 22.824H151.564V26.8H150.444V16.776ZM153.426 23.16C154.061 23.16 154.56 22.964 154.924 22.572C155.288 22.1707 155.47 21.648 155.47 21.004V19.772C155.47 19.128 155.288 18.61 154.924 18.218C154.56 17.8167 154.061 17.616 153.426 17.616C153.174 17.616 152.931 17.6533 152.698 17.728C152.474 17.7933 152.278 17.8867 152.11 18.008C151.942 18.1293 151.807 18.2787 151.704 18.456C151.611 18.624 151.564 18.806 151.564 19.002V21.69C151.564 21.9233 151.611 22.1333 151.704 22.32C151.807 22.4973 151.942 22.6513 152.11 22.782C152.278 22.9033 152.474 22.9967 152.698 23.062C152.931 23.1273 153.174 23.16 153.426 23.16ZM161.118 16.776H162.21L162.98 19.898L163.75 23.062H163.778L164.66 19.898L165.57 16.776H166.564L167.502 19.898L168.398 23.062H168.426L169.168 19.898L169.952 16.776H171.002L169.084 24H167.698L166.69 20.528L166.06 18.33H166.032L165.416 20.528L164.408 24H163.05L161.118 16.776ZM173.18 15.082C172.937 15.082 172.76 15.026 172.648 14.914C172.545 14.7927 172.494 14.6387 172.494 14.452V14.27C172.494 14.0833 172.545 13.934 172.648 13.822C172.76 13.7007 172.937 13.64 173.18 13.64C173.422 13.64 173.595 13.7007 173.698 13.822C173.81 13.934 173.866 14.0833 173.866 14.27V14.452C173.866 14.6387 173.81 14.7927 173.698 14.914C173.595 15.026 173.422 15.082 173.18 15.082ZM172.62 16.776H173.74V24H172.62V16.776ZM177.716 24C177.324 24 177.025 23.8927 176.82 23.678C176.624 23.454 176.526 23.1647 176.526 22.81V17.756H175.336V16.776H176.008C176.25 16.776 176.414 16.7293 176.498 16.636C176.591 16.5333 176.638 16.3607 176.638 16.118V14.774H177.646V16.776H179.228V17.756H177.646V23.02H179.116V24H177.716ZM181.028 13.64H182.148V17.952H182.204C182.381 17.5413 182.629 17.2147 182.946 16.972C183.273 16.7293 183.707 16.608 184.248 16.608C184.995 16.608 185.583 16.8507 186.012 17.336C186.451 17.812 186.67 18.4887 186.67 19.366V24H185.55V19.562C185.55 18.2647 185.004 17.616 183.912 17.616C183.688 17.616 183.469 17.644 183.254 17.7C183.049 17.756 182.862 17.84 182.694 17.952C182.526 18.064 182.391 18.2087 182.288 18.386C182.195 18.554 182.148 18.7547 182.148 18.988V24H181.028V13.64ZM198.734 22.572H198.692C198.57 23.0293 198.272 23.412 197.796 23.72C197.329 24.0187 196.722 24.168 195.976 24.168C195.378 24.168 194.828 24.0607 194.324 23.846C193.829 23.622 193.404 23.3 193.05 22.88C192.695 22.4507 192.415 21.9233 192.21 21.298C192.014 20.6633 191.916 19.9353 191.916 19.114C191.916 18.302 192.014 17.5833 192.21 16.958C192.406 16.3233 192.686 15.796 193.05 15.376C193.414 14.9467 193.852 14.62 194.366 14.396C194.879 14.172 195.448 14.06 196.074 14.06C196.951 14.06 197.684 14.256 198.272 14.648C198.86 15.04 199.312 15.558 199.63 16.202L198.664 16.79C198.44 16.2673 198.104 15.8567 197.656 15.558C197.217 15.2593 196.69 15.11 196.074 15.11C195.644 15.11 195.252 15.1893 194.898 15.348C194.543 15.4973 194.235 15.712 193.974 15.992C193.722 16.272 193.526 16.608 193.386 17C193.246 17.392 193.176 17.8307 193.176 18.316V19.898C193.176 20.3833 193.246 20.8267 193.386 21.228C193.526 21.62 193.722 21.956 193.974 22.236C194.235 22.516 194.552 22.7353 194.926 22.894C195.299 23.0433 195.719 23.118 196.186 23.118C196.522 23.118 196.839 23.076 197.138 22.992C197.446 22.8987 197.712 22.7633 197.936 22.586C198.169 22.4087 198.351 22.1893 198.482 21.928C198.612 21.6573 198.678 21.34 198.678 20.976V20.01H196.522V18.974H199.826V24H198.734V22.572ZM204.758 24.168C204.273 24.168 203.829 24.0793 203.428 23.902C203.027 23.7247 202.681 23.4727 202.392 23.146C202.112 22.81 201.893 22.4133 201.734 21.956C201.575 21.4893 201.496 20.9667 201.496 20.388C201.496 19.8187 201.575 19.3007 201.734 18.834C201.893 18.3673 202.112 17.9707 202.392 17.644C202.681 17.308 203.027 17.0513 203.428 16.874C203.829 16.6967 204.273 16.608 204.758 16.608C205.243 16.608 205.682 16.6967 206.074 16.874C206.475 17.0513 206.821 17.308 207.11 17.644C207.399 17.9707 207.623 18.3673 207.782 18.834C207.941 19.3007 208.02 19.8187 208.02 20.388C208.02 20.9667 207.941 21.4893 207.782 21.956C207.623 22.4133 207.399 22.81 207.11 23.146C206.821 23.4727 206.475 23.7247 206.074 23.902C205.682 24.0793 205.243 24.168 204.758 24.168ZM204.758 23.174C205.365 23.174 205.859 22.9873 206.242 22.614C206.625 22.2407 206.816 21.6713 206.816 20.906V19.87C206.816 19.1047 206.625 18.5353 206.242 18.162C205.859 17.7887 205.365 17.602 204.758 17.602C204.151 17.602 203.657 17.7887 203.274 18.162C202.891 18.5353 202.7 19.1047 202.7 19.87V20.906C202.7 21.6713 202.891 22.2407 203.274 22.614C203.657 22.9873 204.151 23.174 204.758 23.174ZM212.592 24.168C212.107 24.168 211.663 24.0793 211.262 23.902C210.861 23.7247 210.515 23.4727 210.226 23.146C209.946 22.81 209.727 22.4133 209.568 21.956C209.409 21.4893 209.33 20.9667 209.33 20.388C209.33 19.8187 209.409 19.3007 209.568 18.834C209.727 18.3673 209.946 17.9707 210.226 17.644C210.515 17.308 210.861 17.0513 211.262 16.874C211.663 16.6967 212.107 16.608 212.592 16.608C213.077 16.608 213.516 16.6967 213.908 16.874C214.309 17.0513 214.655 17.308 214.944 17.644C215.233 17.9707 215.457 18.3673 215.616 18.834C215.775 19.3007 215.854 19.8187 215.854 20.388C215.854 20.9667 215.775 21.4893 215.616 21.956C215.457 22.4133 215.233 22.81 214.944 23.146C214.655 23.4727 214.309 23.7247 213.908 23.902C213.516 24.0793 213.077 24.168 212.592 24.168ZM212.592 23.174C213.199 23.174 213.693 22.9873 214.076 22.614C214.459 22.2407 214.65 21.6713 214.65 20.906V19.87C214.65 19.1047 214.459 18.5353 214.076 18.162C213.693 17.7887 213.199 17.602 212.592 17.602C211.985 17.602 211.491 17.7887 211.108 18.162C210.725 18.5353 210.534 19.1047 210.534 19.87V20.906C210.534 21.6713 210.725 22.2407 211.108 22.614C211.491 22.9873 211.985 23.174 212.592 23.174ZM223.786 24.798C223.786 25.5447 223.492 26.0907 222.904 26.436C222.325 26.7907 221.453 26.968 220.286 26.968C219.157 26.968 218.345 26.814 217.85 26.506C217.355 26.198 217.108 25.7593 217.108 25.19C217.108 24.798 217.211 24.49 217.416 24.266C217.621 24.0513 217.901 23.8927 218.256 23.79V23.636C217.827 23.4307 217.612 23.0947 217.612 22.628C217.612 22.264 217.729 21.9887 217.962 21.802C218.195 21.606 218.494 21.4613 218.858 21.368V21.312C218.429 21.1067 218.093 20.8127 217.85 20.43C217.617 20.0473 217.5 19.604 217.5 19.1C217.5 18.736 217.565 18.4 217.696 18.092C217.827 17.784 218.009 17.5227 218.242 17.308C218.485 17.084 218.769 16.9113 219.096 16.79C219.432 16.6687 219.805 16.608 220.216 16.608C220.729 16.608 221.187 16.7013 221.588 16.888V16.762C221.588 16.482 221.653 16.2533 221.784 16.076C221.915 15.8893 222.129 15.796 222.428 15.796H223.506V16.776H222.134V17.238C222.395 17.462 222.596 17.7327 222.736 18.05C222.885 18.358 222.96 18.708 222.96 19.1C222.96 19.464 222.895 19.8 222.764 20.108C222.633 20.416 222.447 20.682 222.204 20.906C221.971 21.1207 221.686 21.2887 221.35 21.41C221.014 21.5313 220.641 21.592 220.23 21.592C219.997 21.592 219.763 21.5687 219.53 21.522C219.287 21.5873 219.068 21.6853 218.872 21.816C218.676 21.9373 218.578 22.11 218.578 22.334C218.578 22.5487 218.681 22.6933 218.886 22.768C219.091 22.8427 219.357 22.88 219.684 22.88H221.224C222.12 22.88 222.769 23.0527 223.17 23.398C223.581 23.734 223.786 24.2007 223.786 24.798ZM222.736 24.882C222.736 24.5927 222.624 24.3593 222.4 24.182C222.185 24.014 221.798 23.93 221.238 23.93H218.83C218.382 24.1353 218.158 24.462 218.158 24.91C218.158 25.2273 218.275 25.498 218.508 25.722C218.751 25.946 219.157 26.058 219.726 26.058H220.762C221.387 26.058 221.873 25.96 222.218 25.764C222.563 25.568 222.736 25.274 222.736 24.882ZM220.23 20.696C220.706 20.696 221.084 20.584 221.364 20.36C221.644 20.1267 221.784 19.772 221.784 19.296V18.904C221.784 18.428 221.644 18.078 221.364 17.854C221.084 17.6207 220.706 17.504 220.23 17.504C219.754 17.504 219.376 17.6207 219.096 17.854C218.816 18.078 218.676 18.428 218.676 18.904V19.296C218.676 19.772 218.816 20.1267 219.096 20.36C219.376 20.584 219.754 20.696 220.23 20.696ZM226.282 24C225.89 24 225.592 23.8927 225.386 23.678C225.19 23.454 225.092 23.174 225.092 22.838V13.64H226.212V23.02H227.276V24H226.282ZM231.623 24.168C231.128 24.168 230.68 24.0793 230.279 23.902C229.887 23.7247 229.546 23.4727 229.257 23.146C228.977 22.81 228.757 22.4133 228.599 21.956C228.449 21.4893 228.375 20.9667 228.375 20.388C228.375 19.8187 228.449 19.3007 228.599 18.834C228.757 18.3673 228.977 17.9707 229.257 17.644C229.546 17.308 229.887 17.0513 230.279 16.874C230.68 16.6967 231.128 16.608 231.623 16.608C232.108 16.608 232.542 16.6967 232.925 16.874C233.307 17.0513 233.634 17.2987 233.905 17.616C234.175 17.924 234.381 18.2927 234.521 18.722C234.67 19.1513 234.745 19.6227 234.745 20.136V20.668H229.551V21.004C229.551 21.312 229.597 21.6013 229.691 21.872C229.793 22.1333 229.933 22.362 230.111 22.558C230.297 22.754 230.521 22.908 230.783 23.02C231.053 23.132 231.357 23.188 231.693 23.188C232.15 23.188 232.547 23.0807 232.883 22.866C233.228 22.6513 233.494 22.3433 233.681 21.942L234.479 22.516C234.245 23.0107 233.881 23.412 233.387 23.72C232.892 24.0187 232.304 24.168 231.623 24.168ZM231.623 17.546C231.315 17.546 231.035 17.602 230.783 17.714C230.531 17.8167 230.311 17.966 230.125 18.162C229.947 18.358 229.807 18.5913 229.705 18.862C229.602 19.1233 229.551 19.4127 229.551 19.73V19.828H233.541V19.674C233.541 19.03 233.363 18.5167 233.009 18.134C232.663 17.742 232.201 17.546 231.623 17.546Z" fill="black"/>
<defs>
<clipPath id="clip0_1_2214">
<rect width="16" height="16" fill="white" transform="translate(85 11)"/>
</clipPath>
</defs>
</svg>
