<svg width="133" height="36" viewBox="0 0 133 36" fill="none" xmlns="http://www.w3.org/2000/svg">
<rect width="133" height="36" rx="4" fill="#EDEEF0"/>
<path d="M16.74 24L18.105 18.585L18.9 15.405H18.93L19.71 18.585L21.045 24H22.95L25.53 13.53H23.865L22.77 18.57L22.005 22.035H21.96L21.135 18.57L19.905 13.53H18.015L16.77 18.57L15.93 22.05H15.885L15.15 18.57L14.085 13.53H12.36L14.835 24H16.74ZM28.5452 24V19.02C28.5452 18.21 29.2652 17.775 30.5552 17.775H31.2002V16.2H30.7652C29.5202 16.2 28.8452 16.905 28.6202 17.7H28.5452V16.2H26.9102V24H28.5452ZM33.4774 14.805C34.1524 14.805 34.4374 14.445 34.4374 13.95V13.695C34.4374 13.2 34.1524 12.84 33.4774 12.84C32.8024 12.84 32.5024 13.2 32.5024 13.695V13.95C32.5024 14.445 32.8024 14.805 33.4774 14.805ZM32.6524 24H34.2874V16.2H32.6524V24ZM40.2071 24V22.665H38.6921V17.535H40.3271V16.2H38.6921V14.07H37.2221V15.435C37.2221 15.975 37.0421 16.2 36.5021 16.2H35.8421V17.535H37.0571V22.305C37.0571 23.37 37.6571 24 38.7821 24H40.2071ZM45.1021 24.18C46.5571 24.18 47.6971 23.55 48.2821 22.605L47.3221 21.66C46.8721 22.38 46.2271 22.83 45.2671 22.83C43.9471 22.83 43.2121 21.975 43.2121 20.775V20.52H48.5671V19.905C48.5671 17.745 47.3971 16.02 45.1021 16.02C42.8821 16.02 41.5171 17.61 41.5171 20.1C41.5171 22.59 42.8821 24.18 45.1021 24.18ZM45.1021 17.295C46.1821 17.295 46.8421 18.09 46.8421 19.29V19.44H43.2121V19.335C43.2121 18.135 43.9771 17.295 45.1021 17.295ZM60.552 24V22.665H59.727V18.75C59.727 17.01 58.602 16.02 56.592 16.02C55.077 16.02 54.162 16.665 53.652 17.535L54.627 18.42C55.017 17.805 55.572 17.355 56.487 17.355C57.582 17.355 58.092 17.91 58.092 18.855V19.515H56.682C54.507 19.515 53.352 20.31 53.352 21.855C53.352 23.265 54.267 24.18 55.872 24.18C57.012 24.18 57.852 23.67 58.152 22.695H58.227C58.332 23.46 58.782 24 59.637 24H60.552ZM56.337 22.935C55.527 22.935 55.017 22.575 55.017 21.885V21.615C55.017 20.94 55.572 20.565 56.712 20.565H58.092V21.69C58.092 22.455 57.342 22.935 56.337 22.935ZM67.5143 24V19.83H70.3193C72.2393 19.83 73.3643 18.585 73.3643 16.68C73.3643 14.775 72.2393 13.53 70.3193 13.53H65.8193V24H67.5143ZM67.5143 15.015H70.2143C71.0693 15.015 71.5793 15.48 71.5793 16.32V17.04C71.5793 17.88 71.0693 18.345 70.2143 18.345H67.5143V15.015ZM77.8706 24.18C80.0456 24.18 81.4556 22.59 81.4556 20.1C81.4556 17.61 80.0456 16.02 77.8706 16.02C75.6956 16.02 74.2856 17.61 74.2856 20.1C74.2856 22.59 75.6956 24.18 77.8706 24.18ZM77.8706 22.83C76.7606 22.83 76.0106 22.14 76.0106 20.76V19.44C76.0106 18.06 76.7606 17.37 77.8706 17.37C78.9806 17.37 79.7306 18.06 79.7306 19.44V20.76C79.7306 22.14 78.9806 22.83 77.8706 22.83ZM85.7524 24.18C87.6274 24.18 88.8424 23.175 88.8424 21.675C88.8424 20.415 88.0774 19.665 86.3674 19.41L85.6474 19.32C84.8224 19.185 84.4474 18.915 84.4474 18.315C84.4474 17.73 84.8674 17.34 85.7674 17.34C86.6074 17.34 87.2674 17.745 87.6724 18.225L88.6774 17.265C87.9724 16.485 87.1774 16.02 85.7674 16.02C84.0574 16.02 82.8724 16.905 82.8724 18.42C82.8724 19.86 83.8474 20.55 85.4374 20.745L86.1574 20.835C86.9674 20.94 87.2674 21.315 87.2674 21.81C87.2674 22.47 86.7874 22.86 85.8424 22.86C84.9124 22.86 84.2074 22.44 83.6374 21.75L82.5874 22.71C83.3224 23.625 84.2824 24.18 85.7524 24.18ZM94.172 24V22.665H92.657V17.535H94.292V16.2H92.657V14.07H91.187V15.435C91.187 15.975 91.007 16.2 90.467 16.2H89.807V17.535H91.022V22.305C91.022 23.37 91.622 24 92.747 24H94.172Z" fill="black"/>
<g clip-path="url(#clip0_1_836)">
<path d="M111.417 16.1666L116 20.75L120.583 16.1666H111.417Z" fill="black"/>
</g>
<defs>
<clipPath id="clip0_1_836">
<rect width="22" height="22" fill="white" transform="translate(105 7)"/>
</clipPath>
</defs>
</svg>
