<svg width="76" height="13" viewBox="0 0 76 13" fill="none" xmlns="http://www.w3.org/2000/svg">
<path d="M2.668 5.036L1.492 2.866H1.45V11H0.302V1.228H1.66L5.23 7.192L6.406 9.362H6.448V1.228H7.596V11H6.238L2.668 5.036ZM12.8184 11.168C12.3331 11.168 11.8898 11.0793 11.4884 10.902C11.0871 10.7247 10.7418 10.4727 10.4524 10.146C10.1724 9.81 9.9531 9.41333 9.79444 8.956C9.63577 8.48933 9.55644 7.96667 9.55644 7.388C9.55644 6.81867 9.63577 6.30067 9.79444 5.834C9.9531 5.36733 10.1724 4.97067 10.4524 4.644C10.7418 4.308 11.0871 4.05133 11.4884 3.874C11.8898 3.69667 12.3331 3.608 12.8184 3.608C13.3038 3.608 13.7424 3.69667 14.1344 3.874C14.5358 4.05133 14.8811 4.308 15.1704 4.644C15.4598 4.97067 15.6838 5.36733 15.8424 5.834C16.0011 6.30067 16.0804 6.81867 16.0804 7.388C16.0804 7.96667 16.0011 8.48933 15.8424 8.956C15.6838 9.41333 15.4598 9.81 15.1704 10.146C14.8811 10.4727 14.5358 10.7247 14.1344 10.902C13.7424 11.0793 13.3038 11.168 12.8184 11.168ZM12.8184 10.174C13.4251 10.174 13.9198 9.98733 14.3024 9.614C14.6851 9.24067 14.8764 8.67133 14.8764 7.906V6.87C14.8764 6.10467 14.6851 5.53533 14.3024 5.162C13.9198 4.78867 13.4251 4.602 12.8184 4.602C12.2118 4.602 11.7171 4.78867 11.3344 5.162C10.9518 5.53533 10.7604 6.10467 10.7604 6.87V7.906C10.7604 8.67133 10.9518 9.24067 11.3344 9.614C11.7171 9.98733 12.2118 10.174 12.8184 10.174ZM18.4824 2.082C18.2398 2.082 18.0624 2.026 17.9504 1.914C17.8478 1.79267 17.7964 1.63867 17.7964 1.452V1.27C17.7964 1.08333 17.8478 0.933999 17.9504 0.821999C18.0624 0.700666 18.2398 0.64 18.4824 0.64C18.7251 0.64 18.8978 0.700666 19.0004 0.821999C19.1124 0.933999 19.1684 1.08333 19.1684 1.27V1.452C19.1684 1.63867 19.1124 1.79267 19.0004 1.914C18.8978 2.026 18.7251 2.082 18.4824 2.082ZM17.9224 3.776H19.0424V11H17.9224V3.776ZM26.0424 9.824H25.9864C25.5478 10.72 24.8431 11.168 23.8724 11.168C23.4244 11.168 23.0184 11.0793 22.6544 10.902C22.2904 10.7247 21.9778 10.4727 21.7164 10.146C21.4644 9.81933 21.2684 9.42267 21.1284 8.956C20.9978 8.48933 20.9324 7.96667 20.9324 7.388C20.9324 6.80933 20.9978 6.28667 21.1284 5.82C21.2684 5.35333 21.4644 4.95667 21.7164 4.63C21.9778 4.30333 22.2904 4.05133 22.6544 3.874C23.0184 3.69667 23.4244 3.608 23.8724 3.608C24.3764 3.608 24.8058 3.72 25.1604 3.944C25.5244 4.15867 25.7998 4.49467 25.9864 4.952H26.0424V0.64H27.1624V11H26.0424V9.824ZM24.1804 10.16C24.4324 10.16 24.6704 10.1273 24.8944 10.062C25.1278 9.99667 25.3284 9.90333 25.4964 9.782C25.6644 9.65133 25.7951 9.49733 25.8884 9.32C25.9911 9.13333 26.0424 8.92333 26.0424 8.69V6.002C26.0424 5.806 25.9911 5.624 25.8884 5.456C25.7951 5.27867 25.6644 5.12933 25.4964 5.008C25.3284 4.88667 25.1278 4.79333 24.8944 4.728C24.6704 4.65333 24.4324 4.616 24.1804 4.616C23.5458 4.616 23.0464 4.81667 22.6824 5.218C22.3184 5.61 22.1364 6.128 22.1364 6.772V8.004C22.1364 8.648 22.3184 9.17067 22.6824 9.572C23.0464 9.964 23.5458 10.16 24.1804 10.16ZM34.7935 11C34.3735 11 34.0702 10.888 33.8835 10.664C33.7062 10.44 33.5942 10.16 33.5475 9.824H33.4775C33.3188 10.272 33.0575 10.608 32.6935 10.832C32.3295 11.056 31.8955 11.168 31.3915 11.168C30.6262 11.168 30.0288 10.972 29.5995 10.58C29.1795 10.188 28.9695 9.656 28.9695 8.984C28.9695 8.30267 29.2168 7.78 29.7115 7.416C30.2155 7.052 30.9948 6.87 32.0495 6.87H33.4775V6.156C33.4775 5.64267 33.3375 5.25067 33.0575 4.98C32.7775 4.70933 32.3482 4.574 31.7695 4.574C31.3308 4.574 30.9622 4.672 30.6635 4.868C30.3742 5.064 30.1315 5.32533 29.9355 5.652L29.2635 5.022C29.4595 4.63 29.7722 4.29867 30.2015 4.028C30.6308 3.748 31.1722 3.608 31.8255 3.608C32.7028 3.608 33.3842 3.82267 33.8695 4.252C34.3548 4.68133 34.5975 5.27867 34.5975 6.044V10.02H35.4235V11H34.7935ZM31.5735 10.216C31.8535 10.216 32.1102 10.1833 32.3435 10.118C32.5768 10.0527 32.7775 9.95933 32.9455 9.838C33.1135 9.71667 33.2442 9.57667 33.3375 9.418C33.4308 9.25933 33.4775 9.08667 33.4775 8.9V7.71H31.9935C31.3495 7.71 30.8782 7.80333 30.5795 7.99C30.2902 8.17667 30.1455 8.44733 30.1455 8.802V9.096C30.1455 9.45067 30.2715 9.726 30.5235 9.922C30.7848 10.118 31.1348 10.216 31.5735 10.216ZM37.8728 9.362C38.1714 9.362 38.3861 9.44133 38.5168 9.6C38.6568 9.74933 38.7268 9.94533 38.7268 10.188V10.384C38.7268 10.7667 38.6148 11.1867 38.3908 11.644C38.1668 12.1107 37.8541 12.5167 37.4528 12.862H36.5148C36.7948 12.5633 37.0188 12.2787 37.1868 12.008C37.3641 11.7467 37.4901 11.4527 37.5648 11.126C37.3781 11.0793 37.2381 10.9907 37.1448 10.86C37.0608 10.7293 37.0188 10.5707 37.0188 10.384V10.188C37.0188 9.94533 37.0841 9.74933 37.2148 9.6C37.3548 9.44133 37.5741 9.362 37.8728 9.362ZM43.9318 11V10.02H45.3038V2.208H43.9318V1.228H47.8518V2.208H46.4798V10.02H47.8518V11H43.9318ZM49.8873 11V3.776H51.0073V4.952H51.0633C51.2406 4.54133 51.4879 4.21467 51.8053 3.972C52.1319 3.72933 52.5659 3.608 53.1073 3.608C53.8539 3.608 54.4419 3.85067 54.8713 4.336C55.3099 4.812 55.5293 5.48867 55.5293 6.366V11H54.4093V6.562C54.4093 5.26467 53.8633 4.616 52.7713 4.616C52.5473 4.616 52.3279 4.644 52.1133 4.7C51.9079 4.756 51.7213 4.84 51.5533 4.952C51.3853 5.064 51.2499 5.20867 51.1473 5.386C51.0539 5.554 51.0073 5.75467 51.0073 5.988V11H49.8873ZM62.4643 9.824H62.4083C61.9696 10.72 61.265 11.168 60.2943 11.168C59.8463 11.168 59.4403 11.0793 59.0763 10.902C58.7123 10.7247 58.3996 10.4727 58.1383 10.146C57.8863 9.81933 57.6903 9.42267 57.5503 8.956C57.4196 8.48933 57.3543 7.96667 57.3543 7.388C57.3543 6.80933 57.4196 6.28667 57.5503 5.82C57.6903 5.35333 57.8863 4.95667 58.1383 4.63C58.3996 4.30333 58.7123 4.05133 59.0763 3.874C59.4403 3.69667 59.8463 3.608 60.2943 3.608C60.7983 3.608 61.2276 3.72 61.5823 3.944C61.9463 4.15867 62.2216 4.49467 62.4083 4.952H62.4643V0.64H63.5843V11H62.4643V9.824ZM60.6023 10.16C60.8543 10.16 61.0923 10.1273 61.3163 10.062C61.5496 9.99667 61.7503 9.90333 61.9183 9.782C62.0863 9.65133 62.217 9.49733 62.3103 9.32C62.413 9.13333 62.4643 8.92333 62.4643 8.69V6.002C62.4643 5.806 62.413 5.624 62.3103 5.456C62.217 5.27867 62.0863 5.12933 61.9183 5.008C61.7503 4.88667 61.5496 4.79333 61.3163 4.728C61.0923 4.65333 60.8543 4.616 60.6023 4.616C59.9676 4.616 59.4683 4.81667 59.1043 5.218C58.7403 5.61 58.5583 6.128 58.5583 6.772V8.004C58.5583 8.648 58.7403 9.17067 59.1043 9.572C59.4683 9.964 59.9676 10.16 60.6023 10.16ZM66.5254 2.082C66.2827 2.082 66.1054 2.026 65.9934 1.914C65.8907 1.79267 65.8394 1.63867 65.8394 1.452V1.27C65.8394 1.08333 65.8907 0.933999 65.9934 0.821999C66.1054 0.700666 66.2827 0.64 66.5254 0.64C66.7681 0.64 66.9407 0.700666 67.0434 0.821999C67.1554 0.933999 67.2114 1.08333 67.2114 1.27V1.452C67.2114 1.63867 67.1554 1.79267 67.0434 1.914C66.9407 2.026 66.7681 2.082 66.5254 2.082ZM65.9654 3.776H67.0854V11H65.9654V3.776ZM74.7154 11C74.2954 11 73.9921 10.888 73.8054 10.664C73.6281 10.44 73.5161 10.16 73.4694 9.824H73.3994C73.2407 10.272 72.9794 10.608 72.6154 10.832C72.2514 11.056 71.8174 11.168 71.3134 11.168C70.5481 11.168 69.9507 10.972 69.5214 10.58C69.1014 10.188 68.8914 9.656 68.8914 8.984C68.8914 8.30267 69.1387 7.78 69.6334 7.416C70.1374 7.052 70.9167 6.87 71.9714 6.87H73.3994V6.156C73.3994 5.64267 73.2594 5.25067 72.9794 4.98C72.6994 4.70933 72.2701 4.574 71.6914 4.574C71.2527 4.574 70.8841 4.672 70.5854 4.868C70.2961 5.064 70.0534 5.32533 69.8574 5.652L69.1854 5.022C69.3814 4.63 69.6941 4.29867 70.1234 4.028C70.5527 3.748 71.0941 3.608 71.7474 3.608C72.6247 3.608 73.3061 3.82267 73.7914 4.252C74.2767 4.68133 74.5194 5.27867 74.5194 6.044V10.02H75.3454V11H74.7154ZM71.4954 10.216C71.7754 10.216 72.0321 10.1833 72.2654 10.118C72.4987 10.0527 72.6994 9.95933 72.8674 9.838C73.0354 9.71667 73.1661 9.57667 73.2594 9.418C73.3527 9.25933 73.3994 9.08667 73.3994 8.9V7.71H71.9154C71.2714 7.71 70.8001 7.80333 70.5014 7.99C70.2121 8.17667 70.0674 8.44733 70.0674 8.802V9.096C70.0674 9.45067 70.1934 9.726 70.4454 9.922C70.7067 10.118 71.0567 10.216 71.4954 10.216Z" fill="black"/>
</svg>
